<?xml version="1.0" encoding="UTF-8" standalone="no"?>
<!-- Created with Inkscape (http://www.inkscape.org/) -->

<svg
   xmlns:ns0="http://www.iki.fi/pav/software/textext/"
   xmlns:dc="http://purl.org/dc/elements/1.1/"
   xmlns:cc="http://creativecommons.org/ns#"
   xmlns:rdf="http://www.w3.org/1999/02/22-rdf-syntax-ns#"
   xmlns:svg="http://www.w3.org/2000/svg"
   xmlns="http://www.w3.org/2000/svg"
   xmlns:sodipodi="http://sodipodi.sourceforge.net/DTD/sodipodi-0.dtd"
   xmlns:inkscape="http://www.inkscape.org/namespaces/inkscape"
   width="129.42928mm"
   height="89.058479mm"
   viewBox="0 0 129.42928 89.058479"
   version="1.1"
   id="svg8"
   inkscape:version="0.92.3 (2405546, 2018-03-11)"
   sodipodi:docname="Comp.svg">
  <sodipodi:namedview
     id="base"
     pagecolor="#ffffff"
     bordercolor="#666666"
     borderopacity="1.0"
     inkscape:pageopacity="0.0"
     inkscape:pageshadow="2"
     inkscape:zoom="0.7"
     inkscape:cx="430.09502"
     inkscape:cy="46.670377"
     inkscape:document-units="mm"
     inkscape:current-layer="svg8"
     showgrid="false"
     inkscape:window-width="1920"
     inkscape:window-height="1001"
     inkscape:window-x="-9"
     inkscape:window-y="-9"
     inkscape:window-maximized="1"
     fit-margin-top="0"
     fit-margin-left="0"
     fit-margin-right="0"
     fit-margin-bottom="0" />
  <defs
     id="defs2">
    <marker
       inkscape:stockid="DotM"
       orient="auto"
       refY="0"
       refX="0"
       id="DotM"
       style="overflow:visible"
       inkscape:isstock="true">
      <path
         id="path2603"
         d="m -2.5,-1 c 0,2.76 -2.24,5 -5,5 -2.76,0 -5,-2.24 -5,-5 0,-2.76 2.24,-5 5,-5 2.76,0 5,2.24 5,5 z"
         style="fill:#000000;fill-opacity:1;fill-rule:evenodd;stroke:#000000;stroke-width:1.00000003pt;stroke-opacity:1"
         transform="matrix(0.4,0,0,0.4,2.96,0.4)"
         inkscape:connector-curvature="0" />
    </marker>
    <inkscape:path-effect
       effect="spiro"
       id="path-effect2537"
       is_visible="true" />
    <inkscape:path-effect
       effect="spiro"
       id="path-effect2533"
       is_visible="true" />
    <inkscape:path-effect
       is_visible="true"
       id="path-effect2119-4"
       effect="spiro" />
    <inkscape:path-effect
       is_visible="true"
       id="path-effect2119"
       effect="spiro" />
    <inkscape:path-effect
       is_visible="true"
       id="path-effect852-9-8-1"
       effect="spiro" />
    <inkscape:path-effect
       is_visible="true"
       id="path-effect852-9-8-8"
       effect="spiro" />
    <inkscape:path-effect
       is_visible="true"
       id="path-effect852-9-8-4"
       effect="spiro" />
    <inkscape:path-effect
       is_visible="true"
       id="path-effect852-9-8-0"
       effect="spiro" />
  </defs>
  <metadata
     id="metadata5">
    <rdf:RDF>
      <cc:Work
         rdf:about="">
        <dc:format>image/svg+xml</dc:format>
        <dc:type
           rdf:resource="http://purl.org/dc/dcmitype/StillImage" />
        <dc:title></dc:title>
      </cc:Work>
    </rdf:RDF>
  </metadata>
  <g
     id="layer1"
     inkscape:groupmode="layer"
     inkscape:label="Layer 1"
     transform="translate(-43.080273,-24.180789)" />
  <g
     id="g834"
     transform="rotate(-180,62.400068,74.233641)"
     inkscape:label="GND"
     inkscape:export-xdpi="600"
     inkscape:export-ydpi="600">
    <g
       id="g821"
       inkscape:label="GND">
      <circle
         id="path819"
         inkscape:label="circle"
         style="fill:#000000;stroke:#000000;stroke-width:0.69999999;stroke-linecap:round;stroke-linejoin:round;stroke-dasharray:none"
         cx="100"
         cy="100"
         r="1" />
    </g>
    <g
       transform="matrix(-0.739645,0,0,0.739645,290.47322,-425.0402)"
       ns0:preamble="C:\\Program Files\\Inkscape\\share\\extensions/textextLib/CircuitSymbolsLatexPreamble.tex"
       ns0:text=" $+V_{INT}$"
       word-spacing="normal"
       letter-spacing="normal"
       font-size-adjust="none"
       font-stretch="normal"
       font-weight="normal"
       font-variant="normal"
       font-style="normal"
       stroke-miterlimit="10.433"
       xml:space="preserve"
       id="content"
       style="font-style:normal;font-variant:normal;font-weight:normal;font-stretch:normal;letter-spacing:normal;word-spacing:normal;text-anchor:start;fill:none;fill-opacity:1;fill-rule:evenodd;stroke:#000000;stroke-linecap:butt;stroke-linejoin:miter;stroke-miterlimit:10.43299961;stroke-dasharray:none;stroke-dashoffset:0;stroke-opacity:1">
<path
   id="path823"
   style="fill:#000000;stroke-width:0"
   d="m 227.51,709.52 h 2.78 c 0.14,0 0.33,0 0.33,0.2 0,0.2 -0.19,0.2 -0.33,0.2 h -2.78 v 2.78 c 0,0.14 0,0.33 -0.2,0.33 -0.2,0 -0.2,-0.19 -0.2,-0.33 v -2.78 h -2.79 c -0.14,0 -0.33,0 -0.33,-0.2 0,-0.2 0.19,-0.2 0.33,-0.2 h 2.79 v -2.78 c 0,-0.14 0,-0.33 0.2,-0.33 0.2,0 0.2,0.19 0.2,0.33 z"
   inkscape:connector-curvature="0" />
<path
   id="path825"
   style="fill:#000000;stroke-width:0"
   d="m 237.44,712.89 0.05,0.07 0.04,0.06 0.05,0.07 0.04,0.05 0.05,0.06 0.04,0.05 0.04,0.05 0.05,0.04 0.04,0.04 0.04,0.04 0.04,0.03 0.04,0.03 0.05,0.03 0.04,0.03 0.04,0.02 0.04,0.02 0.04,0.02 0.04,0.02 0.03,0.01 0.04,0.02 0.04,0.01 0.04,0.01 0.04,0.01 h 0.03 l 0.04,0.01 h 0.04 l 0.07,0.01 0.07,0.01 h 0.07 c 0.12,0.01 0.13,0.18 0.13,0.19 0,0.08 -0.05,0.12 -0.13,0.12 -0.26,0 -0.55,-0.03 -0.82,-0.03 -0.33,0 -0.67,0.03 -0.99,0.03 -0.06,0 -0.18,0 -0.18,-0.19 0,-0.11 0.09,-0.12 0.15,-0.12 0.27,-0.02 0.46,-0.12 0.46,-0.33 0,-0.15 -0.15,-0.36 -0.15,-0.37 l -3.06,-4.85 -0.67,5.25 c 0,0.17 0.22,0.3 0.68,0.3 0.14,0 0.25,0 0.25,0.2 0,0.09 -0.08,0.11 -0.14,0.11 -0.4,0 -0.82,-0.03 -1.23,-0.03 -0.18,0 -0.37,0.01 -0.55,0.01 -0.18,0 -0.37,0.02 -0.54,0.02 -0.07,0 -0.19,0 -0.19,-0.19 0,-0.12 0.09,-0.12 0.25,-0.12 0.56,0 0.57,-0.09 0.6,-0.34 l 0.79,-6.13 c 0.02,-0.19 0.07,-0.22 0.19,-0.22 0.16,0 0.2,0.05 0.28,0.18 z"
   inkscape:connector-curvature="0" />
<path
   id="path827"
   style="fill:#000000;stroke-width:0"
   d="m 239.88,709.94 0.01,0.02 v 0.02 l 0.01,0.02 v 0.02 l 0.01,0.02 v 0.02 l 0.01,0.01 0.01,0.02 v 0.01 l 0.01,0.01 0.01,0.02 0.01,0.01 0.01,0.01 0.01,0.01 0.01,0.01 0.02,0.01 0.01,0.01 h 0.02 l 0.02,0.01 0.02,0.01 h 0.02 l 0.01,0.01 h 0.01 0.01 0.02 0.01 l 0.01,0.01 h 0.02 0.01 0.02 0.02 0.01 0.02 l 0.02,0.01 h 0.02 0.02 0.02 0.02 0.02 0.02 0.02 0.03 0.02 c 0.18,0 0.26,0 0.26,0.15 0,0.06 -0.05,0.1 -0.11,0.1 -0.15,0 -0.32,-0.02 -0.47,-0.02 -0.15,0 -0.32,-0.01 -0.48,-0.01 0,0 -0.48,0.01 -0.48,0.01 -0.15,0 -0.33,0.02 -0.48,0.02 -0.04,0 -0.15,0 -0.15,-0.15 0,-0.1 0.08,-0.1 0.23,-0.1 0.01,0 0.15,0 0.27,-0.01 0.14,-0.02 0.19,-0.02 0.19,-0.1 0,-0.04 -0.02,-0.09 -0.03,-0.15 l -0.93,-3.69 c -0.06,-0.23 -0.08,-0.3 -0.6,-0.3 -0.19,0 -0.26,0 -0.26,-0.15 0,-0.01 0,-0.1 0.11,-0.1 0.21,0 0.74,0.03 0.94,0.03 l 0.49,-0.01 c 0.15,0 0.33,-0.02 0.48,-0.02 0.04,0 0.15,0 0.15,0.15 0,0.1 -0.09,0.1 -0.23,0.1 -0.01,0 -0.16,0 -0.3,0.02 -0.16,0.01 -0.16,0.04 -0.16,0.1 0,0.01 0,0.05 0.03,0.15 z"
   inkscape:connector-curvature="0" />
<path
   id="path829"
   style="fill:#000000;stroke-width:0"
   d="m 246.9,709.73 0.01,0.05 0.02,0.05 0.01,0.02 v 0.03 l 0.01,0.02 0.01,0.02 0.02,0.02 0.01,0.02 0.01,0.03 0.02,0.02 0.01,0.02 0.02,0.01 0.02,0.02 0.02,0.02 0.02,0.02 0.02,0.01 0.02,0.02 0.03,0.01 0.02,0.02 0.03,0.01 0.03,0.01 0.04,0.01 0.03,0.01 0.04,0.01 0.04,0.01 0.04,0.01 h 0.04 0.03 0.02 l 0.02,0.01 h 0.03 0.02 0.03 c 0.03,0 0.14,0.01 0.14,0.15 0,0.04 -0.04,0.1 -0.11,0.1 -0.23,0 -0.49,-0.03 -0.72,-0.03 -0.17,0 -0.58,0.03 -0.74,0.03 -0.04,0 -0.14,0 -0.14,-0.15 0,-0.09 0.09,-0.1 0.15,-0.1 0.33,-0.01 0.45,-0.11 0.45,-0.28 0,-0.06 -0.01,-0.1 -0.03,-0.17 l -0.76,-3.03 -1.78,3.61 c -0.06,0.12 -0.07,0.12 -0.24,0.12 h -0.95 c -0.14,0 -0.23,0 -0.23,-0.15 0,-0.1 0.09,-0.1 0.23,-0.1 0.15,0 0.3,-0.01 0.45,-0.03 l -0.94,-3.73 c -0.06,-0.26 -0.18,-0.47 -0.72,-0.49 -0.05,0 -0.15,-0.01 -0.15,-0.15 0,-0.07 0.05,-0.1 0.1,-0.1 0.23,0 0.49,0.03 0.73,0.03 0.17,0 0.58,-0.03 0.74,-0.03 0.07,0 0.14,0.04 0.14,0.15 0,0.09 -0.08,0.1 -0.16,0.1 -0.44,0.02 -0.44,0.2 -0.44,0.29 0,0.03 0,0.07 0.03,0.18 l 0.89,3.56 2.05,-4.16 c 0.05,-0.11 0.08,-0.12 0.15,-0.12 0.11,0 0.11,0.02 0.15,0.15 z"
   inkscape:connector-curvature="0" />
<path
   id="path831"
   style="fill:#000000;stroke-width:0"
   d="m 251.52,709.95 v 0.01 l 0.01,0.01 v 0.01 0 0.01 l 0.01,0.01 v 0.01 0.01 0.01 l 0.01,0.01 v 0.02 0.01 l 0.01,0.01 v 0.01 l 0.01,0.01 v 0.01 l 0.01,0.01 v 0 l 0.01,0.01 v 0.01 h 0.01 v 0.01 h 0.01 l 0.01,0.01 v 0 h 0.01 l 0.01,0.01 h 0.01 0.01 0.01 l 0.01,0.01 h 0.01 0.01 0.01 0.01 0.02 c 0.03,0.01 0.28,0.01 0.42,0.01 0.42,0 0.61,0 0.78,-0.05 0.32,-0.1 0.33,-0.3 0.33,-0.55 0,-0.12 0,-0.2 -0.05,-0.57 l -0.01,-0.07 c 0,-0.07 0.05,-0.11 0.12,-0.11 0.1,0 0.11,0.07 0.13,0.18 l 0.19,1.32 c 0,0.1 -0.09,0.1 -0.21,0.1 h -4.3 c -0.18,0 -0.19,0 -0.24,-0.14 l -0.44,-1.23 c -0.01,-0.03 -0.04,-0.1 -0.04,-0.13 0,-0.03 0.02,-0.1 0.12,-0.1 0.09,0 0.11,0.04 0.15,0.17 0.41,1.11 0.64,1.18 1.7,1.18 h 0.29 c 0.21,0 0.22,-0.01 0.22,-0.07 0,-0.01 0,-0.04 -0.03,-0.14 l -0.92,-3.66 c -0.07,-0.26 -0.08,-0.33 -0.82,-0.33 -0.25,0 -0.31,0 -0.31,-0.15 0,-0.02 0.01,-0.1 0.11,-0.1 0.2,0 0.41,0.02 0.61,0.02 0.19,0 0.4,0.01 0.6,0.01 0.19,0 0.43,0 0.63,-0.01 0.19,0 0.39,-0.02 0.58,-0.02 0.06,0 0.16,0 0.16,0.15 0,0.1 -0.06,0.1 -0.28,0.1 -0.13,0 -0.27,0.01 -0.41,0.02 -0.23,0.02 -0.25,0.04 -0.25,0.13 0,0.05 0,0.06 0.03,0.16 z"
   inkscape:connector-curvature="0" />
</g>  </g>
  <g
     inkscape:label="GND"
     transform="rotate(-180,62.381931,84.234649)"
     id="g878"
     inkscape:export-xdpi="600"
     inkscape:export-ydpi="600">
    <g
       inkscape:label="GND"
       id="g864">
      <circle
         style="fill:#000000;stroke:#000000;stroke-width:0.69999999;stroke-linecap:round;stroke-linejoin:round;stroke-dasharray:none"
         inkscape:label="circle"
         id="path862"
         cx="100"
         cy="100"
         r="1" />
    </g>
    <g
       id="g876"
       xml:space="preserve"
       stroke-miterlimit="10.433"
       font-style="normal"
       font-variant="normal"
       font-weight="normal"
       font-stretch="normal"
       font-size-adjust="none"
       letter-spacing="normal"
       word-spacing="normal"
       ns0:text=" $-V_{INT}$"
       ns0:preamble="C:\\Program Files\\Inkscape\\share\\extensions/textextLib/CircuitSymbolsLatexPreamble.tex"
       transform="matrix(-0.739645,0,0,0.739645,290.43695,-424.74931)"
       style="font-style:normal;font-variant:normal;font-weight:normal;font-stretch:normal;letter-spacing:normal;word-spacing:normal;text-anchor:start;fill:none;fill-opacity:1;fill-rule:evenodd;stroke:#000000;stroke-linecap:butt;stroke-linejoin:miter;stroke-miterlimit:10.43299961;stroke-dasharray:none;stroke-dashoffset:0;stroke-opacity:1">
<path
   d="m 230,709.52 h 0.04 0.03 0.03 0.01 0.02 0.01 l 0.02,0.01 h 0.01 0.02 0.01 l 0.02,0.01 h 0.01 0.01 l 0.01,0.01 0.02,0.01 h 0.01 l 0.01,0.01 0.01,0.01 h 0.01 v 0.01 l 0.01,0.01 0.01,0.01 v 0 0.01 l 0.01,0.01 v 0 0.01 0.01 0 l 0.01,0.01 v 0.01 0.01 0 0.01 0.01 0.01 0.01 c 0,0.2 -0.18,0.2 -0.35,0.2 h -5.39 c -0.17,0 -0.35,0 -0.35,-0.2 0,-0.2 0.18,-0.2 0.35,-0.2 z"
   style="fill:#000000;stroke-width:0"
   id="path866"
   inkscape:connector-curvature="0" />
<path
   d="m 237.44,712.89 0.05,0.07 0.04,0.06 0.05,0.07 0.04,0.05 0.05,0.06 0.04,0.05 0.04,0.05 0.05,0.04 0.04,0.04 0.04,0.04 0.04,0.03 0.04,0.03 0.05,0.03 0.04,0.03 0.04,0.02 0.04,0.02 0.04,0.02 0.04,0.02 0.03,0.01 0.04,0.02 0.04,0.01 0.04,0.01 0.04,0.01 h 0.03 l 0.04,0.01 h 0.04 l 0.07,0.01 0.07,0.01 h 0.07 c 0.12,0.01 0.13,0.18 0.13,0.19 0,0.08 -0.05,0.12 -0.13,0.12 -0.26,0 -0.55,-0.03 -0.82,-0.03 -0.33,0 -0.67,0.03 -0.99,0.03 -0.06,0 -0.18,0 -0.18,-0.19 0,-0.11 0.09,-0.12 0.15,-0.12 0.27,-0.02 0.46,-0.12 0.46,-0.33 0,-0.15 -0.15,-0.36 -0.15,-0.37 l -3.06,-4.85 -0.67,5.25 c 0,0.17 0.22,0.3 0.68,0.3 0.14,0 0.25,0 0.25,0.2 0,0.09 -0.08,0.11 -0.14,0.11 -0.4,0 -0.82,-0.03 -1.23,-0.03 -0.18,0 -0.37,0.01 -0.55,0.01 -0.18,0 -0.37,0.02 -0.54,0.02 -0.07,0 -0.19,0 -0.19,-0.19 0,-0.12 0.09,-0.12 0.25,-0.12 0.56,0 0.57,-0.09 0.6,-0.34 l 0.79,-6.13 c 0.02,-0.19 0.07,-0.22 0.19,-0.22 0.16,0 0.2,0.05 0.28,0.18 z"
   style="fill:#000000;stroke-width:0"
   id="path868"
   inkscape:connector-curvature="0" />
<path
   d="m 239.88,709.94 0.01,0.02 v 0.02 l 0.01,0.02 v 0.02 l 0.01,0.02 v 0.02 l 0.01,0.01 0.01,0.02 v 0.01 l 0.01,0.01 0.01,0.02 0.01,0.01 0.01,0.01 0.01,0.01 0.01,0.01 0.02,0.01 0.01,0.01 h 0.02 l 0.02,0.01 0.02,0.01 h 0.02 l 0.01,0.01 h 0.01 0.01 0.02 0.01 l 0.01,0.01 h 0.02 0.01 0.02 0.02 0.01 0.02 l 0.02,0.01 h 0.02 0.02 0.02 0.02 0.02 0.02 0.02 0.03 0.02 c 0.18,0 0.26,0 0.26,0.15 0,0.06 -0.05,0.1 -0.11,0.1 -0.15,0 -0.32,-0.02 -0.47,-0.02 -0.15,0 -0.32,-0.01 -0.48,-0.01 0,0 -0.48,0.01 -0.48,0.01 -0.15,0 -0.33,0.02 -0.48,0.02 -0.04,0 -0.15,0 -0.15,-0.15 0,-0.1 0.08,-0.1 0.23,-0.1 0.01,0 0.15,0 0.27,-0.01 0.14,-0.02 0.19,-0.02 0.19,-0.1 0,-0.04 -0.02,-0.09 -0.03,-0.15 l -0.93,-3.69 c -0.06,-0.23 -0.08,-0.3 -0.6,-0.3 -0.19,0 -0.26,0 -0.26,-0.15 0,-0.01 0,-0.1 0.11,-0.1 0.21,0 0.74,0.03 0.94,0.03 l 0.49,-0.01 c 0.15,0 0.33,-0.02 0.48,-0.02 0.04,0 0.15,0 0.15,0.15 0,0.1 -0.09,0.1 -0.23,0.1 -0.01,0 -0.16,0 -0.3,0.02 -0.16,0.01 -0.16,0.04 -0.16,0.1 0,0.01 0,0.05 0.03,0.15 z"
   style="fill:#000000;stroke-width:0"
   id="path870"
   inkscape:connector-curvature="0" />
<path
   d="m 246.9,709.73 0.01,0.05 0.02,0.05 0.01,0.02 v 0.03 l 0.01,0.02 0.01,0.02 0.02,0.02 0.01,0.02 0.01,0.03 0.02,0.02 0.01,0.02 0.02,0.01 0.02,0.02 0.02,0.02 0.02,0.02 0.02,0.01 0.02,0.02 0.03,0.01 0.02,0.02 0.03,0.01 0.03,0.01 0.04,0.01 0.03,0.01 0.04,0.01 0.04,0.01 0.04,0.01 h 0.04 0.03 0.02 l 0.02,0.01 h 0.03 0.02 0.03 c 0.03,0 0.14,0.01 0.14,0.15 0,0.04 -0.04,0.1 -0.11,0.1 -0.23,0 -0.49,-0.03 -0.72,-0.03 -0.17,0 -0.58,0.03 -0.74,0.03 -0.04,0 -0.14,0 -0.14,-0.15 0,-0.09 0.09,-0.1 0.15,-0.1 0.33,-0.01 0.45,-0.11 0.45,-0.28 0,-0.06 -0.01,-0.1 -0.03,-0.17 l -0.76,-3.03 -1.78,3.61 c -0.06,0.12 -0.07,0.12 -0.24,0.12 h -0.95 c -0.14,0 -0.23,0 -0.23,-0.15 0,-0.1 0.09,-0.1 0.23,-0.1 0.15,0 0.3,-0.01 0.45,-0.03 l -0.94,-3.73 c -0.06,-0.26 -0.18,-0.47 -0.72,-0.49 -0.05,0 -0.15,-0.01 -0.15,-0.15 0,-0.07 0.05,-0.1 0.1,-0.1 0.23,0 0.49,0.03 0.73,0.03 0.17,0 0.58,-0.03 0.74,-0.03 0.07,0 0.14,0.04 0.14,0.15 0,0.09 -0.08,0.1 -0.16,0.1 -0.44,0.02 -0.44,0.2 -0.44,0.29 0,0.03 0,0.07 0.03,0.18 l 0.89,3.56 2.05,-4.16 c 0.05,-0.11 0.08,-0.12 0.15,-0.12 0.11,0 0.11,0.02 0.15,0.15 z"
   style="fill:#000000;stroke-width:0"
   id="path872"
   inkscape:connector-curvature="0" />
<path
   d="m 251.52,709.95 v 0.01 l 0.01,0.01 v 0.01 0 0.01 l 0.01,0.01 v 0.01 0.01 0.01 l 0.01,0.01 v 0.02 0.01 l 0.01,0.01 v 0.01 l 0.01,0.01 v 0.01 l 0.01,0.01 v 0 l 0.01,0.01 v 0.01 h 0.01 v 0.01 h 0.01 l 0.01,0.01 v 0 h 0.01 l 0.01,0.01 h 0.01 0.01 0.01 l 0.01,0.01 h 0.01 0.01 0.01 0.01 0.02 c 0.03,0.01 0.28,0.01 0.42,0.01 0.42,0 0.61,0 0.78,-0.05 0.32,-0.1 0.33,-0.3 0.33,-0.55 0,-0.12 0,-0.2 -0.05,-0.57 l -0.01,-0.07 c 0,-0.07 0.05,-0.11 0.12,-0.11 0.1,0 0.11,0.07 0.13,0.18 l 0.19,1.32 c 0,0.1 -0.09,0.1 -0.21,0.1 h -4.3 c -0.18,0 -0.19,0 -0.24,-0.14 l -0.44,-1.23 c -0.01,-0.03 -0.04,-0.1 -0.04,-0.13 0,-0.03 0.02,-0.1 0.12,-0.1 0.09,0 0.11,0.04 0.15,0.17 0.41,1.11 0.64,1.18 1.7,1.18 h 0.29 c 0.21,0 0.22,-0.01 0.22,-0.07 0,-0.01 0,-0.04 -0.03,-0.14 l -0.92,-3.66 c -0.07,-0.26 -0.08,-0.33 -0.82,-0.33 -0.25,0 -0.31,0 -0.31,-0.15 0,-0.02 0.01,-0.1 0.11,-0.1 0.2,0 0.41,0.02 0.61,0.02 0.19,0 0.4,0.01 0.6,0.01 0.19,0 0.43,0 0.63,-0.01 0.19,0 0.39,-0.02 0.58,-0.02 0.06,0 0.16,0 0.16,0.15 0,0.1 -0.06,0.1 -0.28,0.1 -0.13,0 -0.27,0.01 -0.41,0.02 -0.23,0.02 -0.25,0.04 -0.25,0.13 0,0.05 0,0.06 0.03,0.16 z"
   style="fill:#000000;stroke-width:0"
   id="path874"
   inkscape:connector-curvature="0" />
</g>  </g>
  <g
     id="g936"
     transform="rotate(-180,84.916083,89.872366)"
     inkscape:label="GND"
     inkscape:export-xdpi="600"
     inkscape:export-ydpi="600">
    <g
       id="g926"
       inkscape:label="GND">
      <circle
         id="path924"
         inkscape:label="circle"
         style="fill:#000000;stroke:#000000;stroke-width:0.69999999;stroke-linecap:round;stroke-linejoin:round;stroke-dasharray:none"
         cx="100"
         cy="100"
         r="1" />
    </g>
    <g
       transform="matrix(-0.739645,0,0,0.739645,274.12723,-431.61738)"
       ns0:preamble="C:\\Program Files\\Inkscape\\share\\extensions/textextLib/CircuitSymbolsLatexPreamble.tex"
       ns0:text=" $CLK$"
       word-spacing="normal"
       letter-spacing="normal"
       font-size-adjust="none"
       font-stretch="normal"
       font-weight="normal"
       font-variant="normal"
       font-style="normal"
       stroke-miterlimit="10.433"
       xml:space="preserve"
       id="g934"
       style="font-style:normal;font-variant:normal;font-weight:normal;font-stretch:normal;letter-spacing:normal;word-spacing:normal;text-anchor:start;fill:none;fill-opacity:1;fill-rule:evenodd;stroke:#000000;stroke-linecap:butt;stroke-linejoin:miter;stroke-miterlimit:10.43299961;stroke-dasharray:none;stroke-dashoffset:0;stroke-opacity:1">
<path
   id="path928"
   style="fill:#000000;stroke-width:0"
   d="m 231.01,714.14 v 0 0.01 0 0 0.01 0 0 0.01 0 l -0.01,0.01 v 0 0 0.01 0 l -0.01,0.01 v 0 0 l -0.01,0.01 v 0 0 l -0.01,0.01 v 0 h -0.01 v 0.01 h -0.01 v 0 h -0.01 v 0 0 h -0.01 v 0 0.01 h -0.01 v 0 0 h -0.01 v 0 0 h -0.01 c -0.03,0 -0.04,-0.01 -0.15,-0.12 l -0.7,-0.77 c -0.09,0.14 -0.54,0.89 -1.65,0.89 -2.23,0 -4.47,-2.2 -4.47,-4.5 0,-1.64 1.18,-2.72 2.7,-2.72 0.87,0 1.63,0.39 2.16,0.85 0.92,0.81 1.09,1.72 1.09,1.75 0,0.1 -0.1,0.1 -0.12,0.1 -0.06,0 -0.11,-0.02 -0.13,-0.1 -0.09,-0.29 -0.31,-0.99 -1,-1.57 -0.69,-0.56 -1.32,-0.73 -1.84,-0.73 -0.89,0 -1.95,0.52 -1.95,2.07 0,0.57 0.21,2.18 1.2,3.34 0.61,0.7 1.55,1.2 2.44,1.2 1.01,0 1.6,-0.77 1.6,-1.92 0,-0.39 -0.03,-0.4 -0.03,-0.5 0,-0.1 0.11,-0.1 0.15,-0.1 0.13,0 0.13,0.02 0.18,0.2 z"
   inkscape:connector-curvature="0" />
<path
   id="path930"
   style="fill:#000000;stroke-width:0"
   d="m 235,713.24 0.01,0.04 0.01,0.03 v 0.03 l 0.01,0.03 0.01,0.03 0.01,0.02 0.01,0.03 0.01,0.02 0.01,0.02 0.02,0.02 0.01,0.02 0.02,0.02 0.01,0.02 0.02,0.01 0.03,0.02 0.02,0.01 0.03,0.02 0.03,0.01 0.03,0.01 0.03,0.01 h 0.02 l 0.02,0.01 h 0.02 l 0.02,0.01 h 0.03 0.02 l 0.02,0.01 h 0.03 0.02 0.03 l 0.03,0.01 h 0.03 0.03 0.03 l 0.03,0.01 h 0.04 0.03 0.04 0.03 0.04 0.04 0.04 0.04 0.05 c 0.29,0 0.37,0 0.37,0.19 0,0.12 -0.11,0.12 -0.15,0.12 -0.33,0 -1.15,-0.03 -1.48,-0.03 -0.3,0 -1.03,0.03 -1.33,0.03 -0.07,0 -0.19,0 -0.19,-0.2 0,-0.11 0.09,-0.11 0.28,-0.11 0.02,0 0.21,0 0.38,-0.02 0.18,-0.02 0.27,-0.03 0.27,-0.16 0,-0.04 -0.01,-0.07 -0.04,-0.19 l -1.33,-5.33 c -0.1,-0.39 -0.12,-0.47 -0.91,-0.47 -0.17,0 -0.27,0 -0.27,-0.2 0,-0.11 0.09,-0.11 0.27,-0.11 h 4.61 c 0.24,0 0.25,0 0.31,0.17 l 0.79,2.15 c 0.04,0.11 0.04,0.13 0.04,0.14 0,0.04 -0.03,0.11 -0.12,0.11 -0.09,0 -0.1,-0.05 -0.17,-0.21 -0.34,-0.92 -0.77,-2.05 -2.5,-2.05 h -0.94 c -0.14,0 -0.16,0 -0.22,0.01 -0.1,0.01 -0.13,0.02 -0.13,0.1 0,0.03 0,0.05 0.05,0.23 z"
   inkscape:connector-curvature="0" />
<path
   id="path932"
   style="fill:#000000;stroke-width:0"
   d="m 243.13,711.25 h -0.01 v 0 0.01 0 0.01 0 0 l -0.01,0.01 v 0 0.01 0 0.01 l -0.01,0.01 v 0.01 l -0.01,0.01 v 0.01 0 0.01 h -0.01 v 0.01 0 0.01 0 0 0.01 0 0 0.01 c 0,0.01 0.18,0.15 0.29,0.23 l 1.74,1.34 c 0.94,0.68 1.33,0.72 1.63,0.75 0.08,0.01 0.17,0.02 0.17,0.2 0,0.04 -0.03,0.11 -0.1,0.11 -0.22,0 -0.47,-0.03 -0.71,-0.03 -0.36,0 -0.75,0.03 -1.11,0.03 -0.07,0 -0.19,0 -0.19,-0.2 0,-0.07 0.05,-0.1 0.12,-0.11 0.22,-0.02 0.31,-0.07 0.31,-0.21 0,-0.18 -0.3,-0.4 -0.36,-0.45 l -3.89,-2.98 0.8,3.19 c 0.09,0.35 0.11,0.45 0.84,0.45 0.25,0 0.34,0 0.34,0.2 0,0.09 -0.08,0.11 -0.14,0.11 -0.28,0 -1,-0.03 -1.28,-0.03 -0.29,0 -1,0.03 -1.29,0.03 -0.07,0 -0.2,0 -0.2,-0.19 0,-0.12 0.09,-0.12 0.29,-0.12 0.13,0 0.31,-0.01 0.43,-0.02 0.16,-0.02 0.22,-0.05 0.22,-0.16 0,-0.04 -0.01,-0.07 -0.04,-0.19 l -1.33,-5.33 c -0.1,-0.39 -0.12,-0.47 -0.91,-0.47 -0.17,0 -0.28,0 -0.28,-0.19 0,-0.12 0.12,-0.12 0.15,-0.12 0.28,0 0.99,0.04 1.27,0.04 0.2,0 0.42,-0.01 0.63,-0.01 0.22,0 0.44,-0.03 0.65,-0.03 0.07,0 0.2,0 0.2,0.2 0,0.11 -0.09,0.11 -0.28,0.11 -0.37,0 -0.65,0 -0.65,0.18 0,0.07 0.06,0.29 0.09,0.44 0.14,0.51 0.27,1.04 0.4,1.56 l 1.49,1.15 1.16,-2.67 c 0.11,-0.27 0.11,-0.29 0.11,-0.35 0,-0.3 -0.42,-0.31 -0.51,-0.31 -0.11,0 -0.22,0 -0.22,-0.2 0,-0.11 0.12,-0.11 0.14,-0.11 0.4,0 0.81,0.04 1.21,0.04 0.22,0 0.76,-0.04 0.98,-0.04 0.05,0 0.18,0 0.18,0.2 0,0.11 -0.11,0.11 -0.2,0.11 -0.41,0.01 -0.54,0.1 -0.69,0.45 z"
   inkscape:connector-curvature="0" />
</g>  </g>
  <g
     inkscape:label="Resistor"
     transform="rotate(-90,66.772449,91.674246)"
     id="g1006"
     inkscape:export-xdpi="600"
     inkscape:export-ydpi="600">
    <g
       id="g998">
      <path
         d="m 100,100 h 15.5 l 2,3 3,-6 3,6 3,-6 3,6 3,-6 2,3 H 150"
         style="fill:none;stroke:#000000;stroke-width:1;stroke-linecap:round;stroke-linejoin:round;stroke-dasharray:none"
         inkscape:label="none"
         id="path996"
         inkscape:connector-curvature="0" />
    </g>
    <g
       id="g1004"
       xml:space="preserve"
       stroke-miterlimit="10.433"
       font-style="normal"
       font-variant="normal"
       font-weight="normal"
       font-stretch="normal"
       font-size-adjust="none"
       letter-spacing="normal"
       word-spacing="normal"
       ns0:text=" $R_P$"
       ns0:preamble="C:\\Program Files\\Inkscape\\share\\extensions/textextLib/CircuitSymbolsLatexPreamble.tex"
       transform="matrix(0,0.739645,0.739645,0,-400.05918,-79.761602)"
       style="font-style:normal;font-variant:normal;font-weight:normal;font-stretch:normal;letter-spacing:normal;word-spacing:normal;text-anchor:start;fill:none;fill-opacity:1;fill-rule:evenodd;stroke:#000000;stroke-linecap:butt;stroke-linejoin:miter;stroke-miterlimit:10.43299961;stroke-dasharray:none;stroke-dashoffset:0;stroke-opacity:1">
<path
   d="m 228.61,710.61 0.09,0.02 0.1,0.03 0.09,0.03 0.1,0.03 0.1,0.03 0.09,0.03 0.1,0.04 0.1,0.04 0.09,0.05 0.09,0.04 0.09,0.05 0.09,0.05 0.09,0.05 0.09,0.06 0.08,0.06 0.08,0.06 0.08,0.06 0.07,0.06 0.08,0.07 0.06,0.07 0.07,0.07 0.06,0.07 0.05,0.08 0.05,0.08 0.05,0.08 0.03,0.08 0.04,0.08 0.03,0.09 0.02,0.09 0.02,0.09 0.01,0.09 v 0.09 c 0,0.85 -0.9,1.49 -2.2,1.49 h -2.84 c -0.2,0 -0.29,0 -0.29,-0.2 0,-0.11 0.09,-0.11 0.28,-0.11 0.01,0 0.21,0 0.38,-0.02 0.17,-0.02 0.26,-0.03 0.26,-0.16 0,-0.04 -0.01,-0.07 -0.04,-0.19 l -1.33,-5.33 c -0.1,-0.39 -0.12,-0.47 -0.91,-0.47 -0.18,0 -0.27,0 -0.27,-0.2 0,-0.11 0.12,-0.11 0.14,-0.11 0.28,0 0.98,0.04 1.26,0.04 0.28,0 0.98,-0.04 1.26,-0.04 0.08,0 0.2,0 0.2,0.2 0,0.11 -0.09,0.11 -0.28,0.11 -0.37,0 -0.65,0 -0.65,0.18 0,0.06 0.02,0.11 0.03,0.17 l 0.66,2.63 h 1.19 l -0.01,0.22 h -1.12 l 0.65,2.59 c 0.06,0.24 0.09,0.34 0.28,0.37 0.09,0.01 0.41,0.01 0.61,0.01 0.71,0 1.81,0 1.81,-0.98 0,-0.34 -0.16,-1.02 -0.55,-1.41 -0.25,-0.26 -0.78,-0.58 -1.68,-0.58 l 0.01,-0.22 c 0.91,0 1.09,-0.55 1.09,-0.9 0,-0.15 -0.08,-0.46 -0.14,-0.69 -0.07,-0.27 -0.16,-0.64 -0.16,-0.84 0,-1.07 1.19,-1.07 1.32,-1.07 0.85,0 1.2,1 1.2,1.14 0,0.12 -0.11,0.12 -0.12,0.12 -0.09,0 -0.11,-0.07 -0.13,-0.14 -0.25,-0.74 -0.68,-0.91 -0.91,-0.91 -0.32,0 -0.4,0.22 -0.4,0.61 0,0.31 0.06,0.82 0.11,1.13 0.01,0.14 0.03,0.33 0.03,0.47 0,0.77 -0.66,1.07 -0.93,1.17 z"
   style="fill:#000000;stroke-width:0"
   id="path1000"
   inkscape:connector-curvature="0" />
<path
   d="m 233.38,707.9 0.03,0.22 0.47,1.88 c 0.06,0.22 0.07,0.24 0.36,0.24 h 0.82 c 0.65,0 1.06,-0.2 1.06,-0.69 0,-0.21 -0.09,-0.76 -0.44,-1.08 -0.25,-0.22 -0.65,-0.35 -1.15,-0.35 h -1.12 l -0.03,-0.22 h 1.27 c 1.18,0 2.18,0.75 2.18,1.51 0,0.58 -0.57,1.08 -1.53,1.08 h -2.45 c -0.14,0 -0.22,0 -0.22,-0.15 0,-0.1 0.07,-0.1 0.23,-0.1 0.11,0 0.14,0 0.26,-0.01 0.14,-0.02 0.16,-0.03 0.16,-0.1 0,-0.02 0,-0.05 -0.03,-0.15 l -0.93,-3.67 c -0.06,-0.27 -0.07,-0.32 -0.62,-0.32 -0.12,0 -0.21,0 -0.21,-0.15 0,-0.01 0,-0.1 0.11,-0.1 0.21,0 0.71,0.03 0.91,0.03 0.12,0 0.37,0 0.49,-0.01 0.14,0 0.31,-0.02 0.44,-0.02 0.05,0 0.15,0 0.15,0.15 0,0.1 -0.08,0.1 -0.22,0.1 -0.01,0 -0.14,0 -0.27,0.02 -0.16,0.01 -0.16,0.03 -0.16,0.1 0,0.01 0,0.05 0.03,0.15 z"
   style="fill:#000000;stroke-width:0"
   id="path1002"
   inkscape:connector-curvature="0" />
</g>  </g>
  <g
     id="g1090"
     transform="rotate(-180,93.727633,51.026412)"
     inkscape:label="GND"
     inkscape:export-xdpi="600"
     inkscape:export-ydpi="600">
    <g
       id="g1080"
       inkscape:label="GND"
       transform="translate(12.362606,-5.8098738)">
      <circle
         id="path1078"
         inkscape:label="circle"
         style="fill:#000000;stroke:#000000;stroke-width:0.69999999;stroke-linecap:round;stroke-linejoin:round;stroke-dasharray:none"
         cx="100"
         cy="100"
         r="1" />
    </g>
    <g
       transform="matrix(-0.739645,0,0,0.739645,285.34183,-426.0685)"
       ns0:preamble="C:\\Program Files\\Inkscape\\share\\extensions/textextLib/CircuitSymbolsLatexPreamble.tex"
       ns0:text=" $+5V$"
       word-spacing="normal"
       letter-spacing="normal"
       font-size-adjust="none"
       font-stretch="normal"
       font-weight="normal"
       font-variant="normal"
       font-style="normal"
       stroke-miterlimit="10.433"
       xml:space="preserve"
       id="g1088"
       style="font-style:normal;font-variant:normal;font-weight:normal;font-stretch:normal;letter-spacing:normal;word-spacing:normal;text-anchor:start;fill:none;fill-opacity:1;fill-rule:evenodd;stroke:#000000;stroke-linecap:butt;stroke-linejoin:miter;stroke-miterlimit:10.43299961;stroke-dasharray:none;stroke-dashoffset:0;stroke-opacity:1">
<path
   id="path1082"
   style="fill:#000000;stroke-width:0"
   d="m 227.51,709.52 h 2.78 c 0.14,0 0.33,0 0.33,0.2 0,0.2 -0.19,0.2 -0.33,0.2 h -2.78 v 2.78 c 0,0.14 0,0.33 -0.2,0.33 -0.2,0 -0.2,-0.19 -0.2,-0.33 v -2.78 h -2.79 c -0.14,0 -0.33,0 -0.33,-0.2 0,-0.2 0.19,-0.2 0.33,-0.2 h 2.79 v -2.78 c 0,-0.14 0,-0.33 0.2,-0.33 0.2,0 0.2,0.19 0.2,0.33 z"
   inkscape:connector-curvature="0" />
<path
   id="path1084"
   style="fill:#000000;stroke-width:0"
   d="m 235.66,709.23 v 0.11 l -0.01,0.11 -0.01,0.11 -0.02,0.1 -0.02,0.11 -0.02,0.1 -0.03,0.1 -0.04,0.1 -0.03,0.1 -0.04,0.09 -0.05,0.09 -0.05,0.09 -0.05,0.09 -0.05,0.08 -0.06,0.08 -0.07,0.07 -0.06,0.08 -0.07,0.06 -0.07,0.07 -0.07,0.06 -0.08,0.06 -0.08,0.05 -0.08,0.05 -0.09,0.04 -0.08,0.04 -0.09,0.04 -0.09,0.03 -0.1,0.02 -0.09,0.02 -0.1,0.02 h -0.1 l -0.1,0.01 c -0.47,0 -0.9,-0.16 -1.26,-0.51 v 1.94 c 0.2,-0.06 0.53,-0.13 0.85,-0.13 1.22,0 1.92,0.9 1.92,1.03 0,0.06 -0.03,0.11 -0.1,0.11 -0.01,0 -0.03,0 -0.08,-0.03 -0.2,-0.09 -0.69,-0.29 -1.36,-0.29 -0.39,0 -0.85,0.07 -1.32,0.28 -0.08,0.03 -0.1,0.03 -0.12,0.03 -0.1,0 -0.1,-0.08 -0.1,-0.24 v -2.94 c 0,-0.18 0,-0.26 0.14,-0.26 0.07,0 0.09,0.03 0.13,0.09 0.11,0.16 0.48,0.7 1.28,0.7 0.52,0 0.77,-0.46 0.85,-0.64 0.16,-0.37 0.18,-0.75 0.18,-1.25 0,-0.35 0,-0.94 -0.24,-1.36 -0.24,-0.39 -0.61,-0.65 -1.07,-0.65 -0.72,0 -1.29,0.53 -1.46,1.12 0.03,-0.01 0.06,-0.02 0.17,-0.02 0.33,0 0.5,0.25 0.5,0.48 0,0.24 -0.17,0.49 -0.5,0.49 -0.14,0 -0.49,-0.07 -0.49,-0.53 0,-0.85 0.69,-1.81 1.8,-1.81 1.16,0 2.18,0.95 2.18,2.21 z"
   inkscape:connector-curvature="0" />
<path
   id="path1086"
   style="fill:#000000;stroke-width:0"
   d="m 242.42,712.89 0.05,0.07 0.04,0.06 0.05,0.07 0.04,0.05 0.05,0.06 0.04,0.05 0.05,0.05 0.04,0.04 0.04,0.04 0.04,0.04 0.04,0.03 0.05,0.03 0.04,0.03 0.04,0.03 0.04,0.02 0.04,0.02 0.04,0.02 0.04,0.02 0.04,0.01 0.03,0.02 0.04,0.01 0.04,0.01 0.04,0.01 h 0.03 l 0.04,0.01 h 0.04 l 0.07,0.01 0.07,0.01 h 0.07 c 0.12,0.01 0.13,0.18 0.13,0.19 0,0.08 -0.05,0.12 -0.13,0.12 -0.26,0 -0.55,-0.03 -0.82,-0.03 -0.33,0 -0.67,0.03 -0.98,0.03 -0.06,0 -0.19,0 -0.19,-0.19 0,-0.11 0.09,-0.12 0.16,-0.12 0.26,-0.02 0.45,-0.12 0.45,-0.33 0,-0.15 -0.14,-0.36 -0.14,-0.37 l -3.07,-4.85 -0.67,5.25 c 0,0.17 0.22,0.3 0.68,0.3 0.14,0 0.25,0 0.25,0.2 0,0.09 -0.08,0.11 -0.14,0.11 -0.4,0 -0.82,-0.03 -1.23,-0.03 -0.18,0 -0.37,0.01 -0.55,0.01 -0.18,0 -0.37,0.02 -0.54,0.02 -0.07,0 -0.19,0 -0.19,-0.19 0,-0.12 0.09,-0.12 0.25,-0.12 0.56,0 0.57,-0.09 0.6,-0.34 l 0.79,-6.13 c 0.03,-0.19 0.07,-0.22 0.19,-0.22 0.16,0 0.21,0.05 0.28,0.18 z"
   inkscape:connector-curvature="0" />
</g>  </g>
  <g
     id="g1303"
     inkscape:label="OpAmp"
     transform="translate(-67.4018,-41.553308)"
     inkscape:export-xdpi="600"
     inkscape:export-ydpi="600">
    <g
       id="g1301"
       inkscape:label="OpAmp">
      <path
         id="path1287"
         inkscape:label="none"
         style="fill:none;stroke:#000000;stroke-width:1;stroke-linecap:round;stroke-linejoin:round;stroke-dasharray:none"
         d="m 135,100 -35,20 V 80 l 35,20"
         inkscape:connector-curvature="0" />
      <path
         id="path1289"
         inkscape:label="none"
         style="fill:none;stroke:#000000;stroke-width:1;stroke-linecap:round;stroke-linejoin:round;stroke-dasharray:none"
         d="M 100,110 H 92.5"
         inkscape:connector-curvature="0" />
      <path
         id="path1291"
         inkscape:label="none"
         style="fill:none;stroke:#000000;stroke-width:1;stroke-linecap:round;stroke-linejoin:round;stroke-dasharray:none"
         d="M 100,90 H 92.5"
         inkscape:connector-curvature="0" />
      <path
         id="path1293"
         inkscape:label="none"
         style="fill:none;stroke:#000000;stroke-width:1;stroke-linecap:round;stroke-linejoin:round;stroke-dasharray:none"
         d="m 135,100 h 7.5"
         inkscape:connector-curvature="0" />
      <path
         id="path1295"
         inkscape:label="none"
         style="fill:none;stroke:#000000;stroke-width:0.69999999;stroke-linecap:round;stroke-linejoin:round;stroke-dasharray:none"
         d="m 106,110 h -3"
         inkscape:connector-curvature="0" />
      <path
         id="path1297"
         inkscape:label="none"
         style="fill:none;stroke:#000000;stroke-width:0.69999999;stroke-linecap:round;stroke-linejoin:round;stroke-dasharray:none"
         d="m 106,90 h -3"
         inkscape:connector-curvature="0" />
      <path
         id="path1299"
         inkscape:label="none"
         style="fill:none;stroke:#000000;stroke-width:0.69999999;stroke-linecap:round;stroke-linejoin:round;stroke-dasharray:none"
         d="m 104.5,88.5 v 3"
         inkscape:connector-curvature="0" />
    </g>
  </g>
  <path
     inkscape:original-d="M 88.929267,48.558474 V 88.558481"
     inkscape:path-effect="#path-effect852-9-8-0"
     inkscape:connector-curvature="0"
     id="path850-5-0-6"
     d="M 88.929267,48.558474 V 88.558481"
     style="fill:none;stroke:#000000;stroke-width:1;stroke-linecap:butt;stroke-linejoin:miter;stroke-miterlimit:4;stroke-dasharray:none;stroke-opacity:1"
     inkscape:export-xdpi="600"
     inkscape:export-ydpi="600" />
  <path
     inkscape:original-d="M 128.92928,48.558474 V 88.558481"
     inkscape:path-effect="#path-effect852-9-8-4"
     inkscape:connector-curvature="0"
     id="path850-5-0-4"
     d="M 128.92928,48.558474 V 88.558481"
     style="fill:none;stroke:#000000;stroke-width:1;stroke-linecap:butt;stroke-linejoin:miter;stroke-miterlimit:4;stroke-dasharray:none;stroke-opacity:1"
     inkscape:export-xdpi="600"
     inkscape:export-ydpi="600" />
  <path
     inkscape:original-d="M 128.92928,88.558481 H 88.929267"
     inkscape:path-effect="#path-effect852-9-8-8"
     inkscape:connector-curvature="0"
     id="path850-5-0-5"
     d="M 128.92928,88.558481 H 88.929267"
     style="fill:none;stroke:#000000;stroke-width:1;stroke-linecap:butt;stroke-linejoin:miter;stroke-miterlimit:4;stroke-dasharray:none;stroke-opacity:1"
     inkscape:export-xdpi="600"
     inkscape:export-ydpi="600" />
  <path
     inkscape:original-d="M 128.92928,48.558474 H 88.929267"
     inkscape:path-effect="#path-effect852-9-8-1"
     inkscape:connector-curvature="0"
     id="path850-5-0-47"
     d="M 128.92928,48.558474 H 88.929267"
     style="fill:none;stroke:#000000;stroke-width:1;stroke-linecap:butt;stroke-linejoin:miter;stroke-miterlimit:4;stroke-dasharray:none;stroke-opacity:1"
     inkscape:export-xdpi="600"
     inkscape:export-ydpi="600" />
  <g
     inkscape:label="GND"
     transform="rotate(180,92.536543,86.320276)"
     id="g1762"
     inkscape:export-xdpi="600"
     inkscape:export-ydpi="600">
    <g
       style="font-style:normal;font-variant:normal;font-weight:normal;font-stretch:normal;letter-spacing:normal;word-spacing:normal;text-anchor:start;fill:none;fill-opacity:1;fill-rule:evenodd;stroke:#000000;stroke-linecap:butt;stroke-linejoin:miter;stroke-miterlimit:10.43299961;stroke-dasharray:none;stroke-dashoffset:0;stroke-opacity:1"
       id="g1760"
       xml:space="preserve"
       stroke-miterlimit="10.433"
       font-style="normal"
       font-variant="normal"
       font-weight="normal"
       font-stretch="normal"
       font-size-adjust="none"
       letter-spacing="normal"
       word-spacing="normal"
       ns0:text=" $D$"
       ns0:preamble="C:\\Program Files\\Inkscape\\share\\extensions/textextLib/CircuitSymbolsLatexPreamble.tex"
       transform="matrix(-0.739645,0,0,0.739645,258.37279,-411.45466)">
<path
   inkscape:connector-curvature="0"
   d="m 225.02,708.01 -0.01,-0.04 -0.01,-0.03 -0.01,-0.03 -0.01,-0.03 -0.01,-0.03 -0.01,-0.03 -0.01,-0.02 -0.01,-0.03 -0.01,-0.02 -0.01,-0.02 -0.01,-0.02 -0.02,-0.02 -0.01,-0.02 -0.02,-0.01 -0.02,-0.02 -0.02,-0.01 -0.02,-0.01 -0.03,-0.01 -0.02,-0.01 -0.03,-0.01 -0.04,-0.01 h -0.01 l -0.02,-0.01 h -0.02 -0.02 l -0.02,-0.01 h -0.02 -0.02 -0.02 l -0.03,-0.01 h -0.02 -0.03 -0.02 -0.03 -0.03 -0.03 -0.03 l -0.03,-0.01 h -0.03 -0.03 -0.04 -0.03 -0.04 c -0.17,0 -0.28,0 -0.28,-0.19 0,-0.12 0.09,-0.12 0.28,-0.12 h 3.3 l -0.18,0.31 h -1.13 c -0.14,0 -0.15,0 -0.22,0.01 -0.09,0.01 -0.12,0.02 -0.12,0.1 0,0.03 0,0.05 0.04,0.23 l 1.37,5.45 c 0.09,0.35 0.11,0.38 0.54,0.38 h 1.07 c 0.97,0 1.8,-0.53 1.8,-1.84 0,-0.48 -0.2,-2.11 -1.04,-3.21 -0.29,-0.36 -1.08,-1.12 -2.31,-1.12 l 0.18,-0.31 c 2.08,0 4.04,2.1 4.04,4.28 0,1.4 -0.85,2.51 -2.34,2.51 h -3.35 c -0.19,0 -0.3,0 -0.3,-0.19 0,-0.12 0.09,-0.12 0.29,-0.12 0.13,0 0.3,-0.01 0.42,-0.02 0.16,-0.02 0.22,-0.05 0.22,-0.16 0,-0.04 -0.01,-0.07 -0.04,-0.19 z"
   style="fill:#000000;stroke-width:0"
   id="path1758" />
</g>  </g>
  <g
     id="g1896"
     transform="rotate(180,106.62514,86.176045)"
     inkscape:label="GND"
     inkscape:export-xdpi="600"
     inkscape:export-ydpi="600">
    <g
       style="font-style:normal;font-variant:normal;font-weight:normal;font-stretch:normal;letter-spacing:normal;word-spacing:normal;text-anchor:start;fill:none;fill-opacity:1;fill-rule:evenodd;stroke:#000000;stroke-linecap:butt;stroke-linejoin:miter;stroke-miterlimit:10.43299961;stroke-dasharray:none;stroke-dashoffset:0;stroke-opacity:1"
       transform="matrix(-0.739645,0,0,0.739645,258.16938,-411.61738)"
       ns0:preamble="C:\\Program Files\\Inkscape\\share\\extensions/textextLib/CircuitSymbolsLatexPreamble.tex"
       ns0:text=" $Q$"
       word-spacing="normal"
       letter-spacing="normal"
       font-size-adjust="none"
       font-stretch="normal"
       font-weight="normal"
       font-variant="normal"
       font-style="normal"
       stroke-miterlimit="10.433"
       xml:space="preserve"
       id="g1894">
<path
   inkscape:connector-curvature="0"
   id="path1892"
   style="fill:#000000;stroke-width:0"
   d="m 227.8,707.29 0.14,0.06 0.15,0.07 0.14,0.07 0.14,0.08 0.14,0.08 0.14,0.09 0.14,0.1 0.13,0.1 0.13,0.11 0.13,0.11 0.13,0.12 0.12,0.12 0.12,0.13 0.12,0.13 0.11,0.13 0.1,0.14 0.11,0.14 0.1,0.15 0.09,0.15 0.09,0.16 0.08,0.15 0.07,0.16 0.07,0.17 0.07,0.16 0.06,0.17 0.05,0.17 0.04,0.17 0.03,0.18 0.03,0.17 0.02,0.18 0.02,0.18 v 0.18 c 0,1.59 -1.06,2.67 -2.54,2.67 l -0.06,-0.25 c 1,0 1.72,-0.77 1.72,-2.11 0,-0.99 -0.5,-3.31 -2.18,-4.25 -0.05,0.35 -0.15,1.08 -0.88,1.08 v -0.22 c 0.42,0 0.61,-0.24 0.61,-0.85 0,-0.15 -0.01,-0.16 -0.11,-0.2 -0.26,-0.11 -0.56,-0.17 -0.84,-0.17 v 0 c -0.14,0 -0.46,0 -0.46,0.42 0,0.4 0.38,0.8 0.8,0.8 v 0.22 c -0.53,0 -1.02,-0.5 -1.02,-1.02 0,-0.2 0.06,-0.31 0.06,-0.32 v 0 c -0.77,0.31 -1.11,1.09 -1.11,1.98 0,0.69 0.26,2.1 1.02,3.17 0.72,1.01 1.66,1.47 2.39,1.47 l 0.06,0.25 c -2.15,0 -4.35,-2.26 -4.35,-4.57 0,-1.65 1.12,-2.65 2.55,-2.65 0.25,0 0.59,0.04 0.98,0.14 -0.04,-0.61 -0.04,-0.63 -0.04,-0.76 0,-0.32 0,-1.09 0.83,-1.09 1.19,0 1.66,1.82 1.66,1.92 0,0.07 -0.07,0.1 -0.11,0.1 -0.08,0 -0.09,-0.05 -0.12,-0.11 -0.24,-0.7 -0.81,-0.95 -1.16,-0.95 -0.46,0 -0.61,0.27 -0.71,1.02 z" />
</g>  </g>
  <g
     inkscape:label="GND"
     transform="rotate(180,106.62514,96.432516)"
     id="g2042"
     inkscape:export-xdpi="600"
     inkscape:export-ydpi="600">
    <g
       style="font-style:normal;font-variant:normal;font-weight:normal;font-stretch:normal;letter-spacing:normal;word-spacing:normal;text-anchor:start;fill:none;fill-opacity:1;fill-rule:evenodd;stroke:#000000;stroke-linecap:butt;stroke-linejoin:miter;stroke-miterlimit:10.43299961;stroke-dasharray:none;stroke-dashoffset:0;stroke-opacity:1"
       id="g2040"
       xml:space="preserve"
       stroke-miterlimit="10.433"
       font-style="normal"
       font-variant="normal"
       font-weight="normal"
       font-stretch="normal"
       font-size-adjust="none"
       letter-spacing="normal"
       word-spacing="normal"
       ns0:text=" $\\overline{Q}$"
       ns0:preamble="C:\\Program Files\\Inkscape\\share\\extensions/textextLib/CircuitSymbolsLatexPreamble.tex"
       transform="matrix(-0.739645,0,0,0.739645,258.16938,-411.61738)">
<line
   style="stroke-width:0.398"
   x1="223.42999"
   y1="715.44"
   x2="231.31"
   y2="715.44"
   id="line2036" />
<path
   inkscape:connector-curvature="0"
   d="m 227.8,707.29 0.14,0.06 0.15,0.07 0.14,0.07 0.14,0.08 0.14,0.08 0.14,0.09 0.14,0.1 0.13,0.1 0.13,0.11 0.13,0.11 0.13,0.12 0.12,0.12 0.12,0.13 0.12,0.13 0.11,0.13 0.1,0.14 0.11,0.14 0.1,0.15 0.09,0.15 0.09,0.16 0.08,0.15 0.07,0.16 0.07,0.17 0.07,0.16 0.06,0.17 0.05,0.17 0.04,0.17 0.03,0.18 0.03,0.17 0.02,0.18 0.02,0.18 v 0.18 c 0,1.59 -1.06,2.67 -2.54,2.67 l -0.06,-0.25 c 1,0 1.72,-0.77 1.72,-2.11 0,-0.99 -0.5,-3.31 -2.18,-4.25 -0.05,0.35 -0.15,1.08 -0.88,1.08 v -0.22 c 0.42,0 0.61,-0.24 0.61,-0.85 0,-0.15 -0.01,-0.16 -0.11,-0.2 -0.26,-0.11 -0.56,-0.17 -0.84,-0.17 v 0 c -0.14,0 -0.46,0 -0.46,0.42 0,0.4 0.38,0.8 0.8,0.8 v 0.22 c -0.53,0 -1.02,-0.5 -1.02,-1.02 0,-0.2 0.06,-0.31 0.06,-0.32 v 0 c -0.77,0.31 -1.11,1.09 -1.11,1.98 0,0.69 0.26,2.1 1.02,3.17 0.72,1.01 1.66,1.47 2.39,1.47 l 0.06,0.25 c -2.15,0 -4.35,-2.26 -4.35,-4.57 0,-1.65 1.12,-2.65 2.55,-2.65 0.25,0 0.59,0.04 0.98,0.14 -0.04,-0.61 -0.04,-0.63 -0.04,-0.76 0,-0.32 0,-1.09 0.83,-1.09 1.19,0 1.66,1.82 1.66,1.92 0,0.07 -0.07,0.1 -0.11,0.1 -0.08,0 -0.09,-0.05 -0.12,-0.11 -0.24,-0.7 -0.81,-0.95 -1.16,-0.95 -0.46,0 -0.61,0.27 -0.71,1.02 z"
   style="fill:#000000;stroke-width:0"
   id="path2038" />
</g>  </g>
  <path
     inkscape:original-d="m 88.825847,74.918588 4.8192,4.819203"
     inkscape:path-effect="#path-effect2119"
     inkscape:connector-curvature="0"
     id="path2117"
     d="m 88.825847,74.918588 4.8192,4.819203"
     style="fill:none;stroke:#000000;stroke-width:1;stroke-linecap:butt;stroke-linejoin:miter;stroke-miterlimit:4;stroke-dasharray:none;stroke-opacity:1"
     inkscape:export-xdpi="600"
     inkscape:export-ydpi="600" />
  <path
     inkscape:original-d="m 93.645047,79.737791 -4.8192,4.8192"
     inkscape:path-effect="#path-effect2119-4"
     inkscape:connector-curvature="0"
     id="path2117-9"
     d="m 93.645047,79.737791 -4.8192,4.8192"
     style="fill:none;stroke:#000000;stroke-width:1;stroke-linecap:butt;stroke-linejoin:miter;stroke-miterlimit:4;stroke-dasharray:none;stroke-opacity:1"
     inkscape:export-xdpi="600"
     inkscape:export-ydpi="600" />
  <path
     style="fill:none;stroke:#000000;stroke-width:1;stroke-linecap:butt;stroke-linejoin:miter;stroke-miterlimit:4;stroke-dasharray:none;stroke-opacity:1"
     d="m 88.984537,79.737791 h -19.0098"
     id="path2531"
     inkscape:connector-curvature="0"
     inkscape:path-effect="#path-effect2533"
     inkscape:original-d="m 88.984537,79.737791 h -19.0098"
     inkscape:export-xdpi="600"
     inkscape:export-ydpi="600" />
  <path
     style="fill:none;stroke:#000000;stroke-width:1;stroke-linecap:butt;stroke-linejoin:miter;stroke-miterlimit:4;stroke-dasharray:none;stroke-opacity:1;marker-start:url(#DotM)"
     d="m 75.098197,58.446691 h 13.73522"
     id="path2535"
     inkscape:connector-curvature="0"
     inkscape:path-effect="#path-effect2537"
     inkscape:original-d="m 75.098197,58.446691 h 13.73522"
     inkscape:export-xdpi="600"
     inkscape:export-ydpi="600" />
</svg>
