<?xml version="1.0" encoding="UTF-8" standalone="no"?>
<!-- Created with Inkscape (http://www.inkscape.org/) -->

<svg
   xmlns:ns0="http://www.iki.fi/pav/software/textext/"
   xmlns:dc="http://purl.org/dc/elements/1.1/"
   xmlns:cc="http://creativecommons.org/ns#"
   xmlns:rdf="http://www.w3.org/1999/02/22-rdf-syntax-ns#"
   xmlns:svg="http://www.w3.org/2000/svg"
   xmlns="http://www.w3.org/2000/svg"
   xmlns:sodipodi="http://sodipodi.sourceforge.net/DTD/sodipodi-0.dtd"
   xmlns:inkscape="http://www.inkscape.org/namespaces/inkscape"
   width="210mm"
   height="297mm"
   viewBox="0 0 210 297"
   version="1.1"
   id="svg8"
   inkscape:version="0.92.3 (2405546, 2018-03-11)"
   sodipodi:docname="Diagrama.svg">
  <sodipodi:namedview
     id="base"
     pagecolor="#ffffff"
     bordercolor="#666666"
     borderopacity="1.0"
     inkscape:pageopacity="0.0"
     inkscape:pageshadow="2"
     inkscape:zoom="2.8"
     inkscape:cx="600.95248"
     inkscape:cy="886.13743"
     inkscape:document-units="mm"
     inkscape:current-layer="g3081"
     showgrid="false"
     inkscape:window-width="1920"
     inkscape:window-height="1001"
     inkscape:window-x="-9"
     inkscape:window-y="-9"
     inkscape:window-maximized="1" />
  <defs
     id="defs2">
    <inkscape:path-effect
       is_visible="true"
       id="path-effect2929"
       effect="spiro" />
    <marker
       inkscape:stockid="DotM"
       orient="auto"
       refY="0.0"
       refX="0.0"
       id="marker2907"
       style="overflow:visible"
       inkscape:isstock="true">
      <path
         id="path2905"
         d="M -2.5,-1.0 C -2.5,1.7600000 -4.7400000,4.0 -7.5,4.0 C -10.260000,4.0 -12.5,1.7600000 -12.5,-1.0 C -12.5,-3.7600000 -10.260000,-6.0 -7.5,-6.0 C -4.7400000,-6.0 -2.5,-3.7600000 -2.5,-1.0 z "
         style="fill-rule:evenodd;stroke:#000000;stroke-width:1pt;stroke-opacity:1;fill:#000000;fill-opacity:1"
         transform="scale(0.4) translate(7.4, 1)" />
    </marker>
    <inkscape:path-effect
       is_visible="true"
       id="path-effect2897"
       effect="spiro" />
    <inkscape:path-effect
       is_visible="true"
       id="path-effect2893"
       effect="spiro" />
    <inkscape:path-effect
       is_visible="true"
       id="path-effect2889"
       effect="spiro" />
    <inkscape:path-effect
       is_visible="true"
       id="path-effect2885"
       effect="spiro" />
    <marker
       inkscape:isstock="true"
       style="overflow:visible"
       id="marker2865"
       refX="0.0"
       refY="0.0"
       orient="auto"
       inkscape:stockid="DotM">
      <path
         transform="scale(0.4) translate(7.4, 1)"
         style="fill-rule:evenodd;stroke:#000000;stroke-width:1pt;stroke-opacity:1;fill:#000000;fill-opacity:1"
         d="M -2.5,-1.0 C -2.5,1.7600000 -4.7400000,4.0 -7.5,4.0 C -10.260000,4.0 -12.5,1.7600000 -12.5,-1.0 C -12.5,-3.7600000 -10.260000,-6.0 -7.5,-6.0 C -4.7400000,-6.0 -2.5,-3.7600000 -2.5,-1.0 z "
         id="path2863" />
    </marker>
    <marker
       inkscape:collect="always"
       inkscape:isstock="true"
       style="overflow:visible"
       id="DotM"
       refX="0.0"
       refY="0.0"
       orient="auto"
       inkscape:stockid="DotM">
      <path
         transform="scale(0.4) translate(7.4, 1)"
         style="fill-rule:evenodd;stroke:#000000;stroke-width:1pt;stroke-opacity:1;fill:#000000;fill-opacity:1"
         d="M -2.5,-1.0 C -2.5,1.7600000 -4.7400000,4.0 -7.5,4.0 C -10.260000,4.0 -12.5,1.7600000 -12.5,-1.0 C -12.5,-3.7600000 -10.260000,-6.0 -7.5,-6.0 C -4.7400000,-6.0 -2.5,-3.7600000 -2.5,-1.0 z "
         id="path2651" />
    </marker>
    <inkscape:path-effect
       is_visible="true"
       id="path-effect2567"
       effect="spiro" />
    <inkscape:path-effect
       is_visible="true"
       id="path-effect2473"
       effect="spiro" />
    <inkscape:path-effect
       is_visible="true"
       id="path-effect2469"
       effect="spiro" />
    <inkscape:path-effect
       is_visible="true"
       id="path-effect2119"
       effect="spiro" />
    <inkscape:path-effect
       effect="spiro"
       id="path-effect1385"
       is_visible="true" />
    <inkscape:path-effect
       effect="spiro"
       id="path-effect1381"
       is_visible="true" />
    <inkscape:path-effect
       is_visible="true"
       id="path-effect1055"
       effect="spiro" />
    <inkscape:path-effect
       is_visible="true"
       id="path-effect852"
       effect="spiro" />
    <inkscape:path-effect
       is_visible="true"
       id="path-effect852-9"
       effect="spiro" />
    <inkscape:path-effect
       is_visible="true"
       id="path-effect852-9-8"
       effect="spiro" />
    <inkscape:path-effect
       is_visible="true"
       id="path-effect852-9-5"
       effect="spiro" />
    <inkscape:path-effect
       is_visible="true"
       id="path-effect852-9-8-0"
       effect="spiro" />
    <inkscape:path-effect
       is_visible="true"
       id="path-effect852-9-8-4"
       effect="spiro" />
    <inkscape:path-effect
       is_visible="true"
       id="path-effect852-9-8-8"
       effect="spiro" />
    <inkscape:path-effect
       is_visible="true"
       id="path-effect852-9-8-1"
       effect="spiro" />
    <inkscape:path-effect
       is_visible="true"
       id="path-effect2119-4"
       effect="spiro" />
    <inkscape:path-effect
       is_visible="true"
       id="path-effect852-9-5-0"
       effect="spiro" />
    <inkscape:path-effect
       is_visible="true"
       id="path-effect852-9-7"
       effect="spiro" />
    <inkscape:path-effect
       is_visible="true"
       id="path-effect852-9-8-8-0"
       effect="spiro" />
    <inkscape:path-effect
       is_visible="true"
       id="path-effect852-9-8-4-2"
       effect="spiro" />
    <inkscape:path-effect
       is_visible="true"
       id="path-effect852-9-8-1-8"
       effect="spiro" />
    <inkscape:path-effect
       is_visible="true"
       id="path-effect852-9-8-0-1"
       effect="spiro" />
    <inkscape:path-effect
       is_visible="true"
       id="path-effect852-9-8-8-3"
       effect="spiro" />
    <inkscape:path-effect
       is_visible="true"
       id="path-effect852-9-8-4-7"
       effect="spiro" />
    <inkscape:path-effect
       is_visible="true"
       id="path-effect852-9-8-1-3"
       effect="spiro" />
    <inkscape:path-effect
       is_visible="true"
       id="path-effect852-9-8-0-7"
       effect="spiro" />
    <inkscape:path-effect
       is_visible="true"
       id="path-effect2567-1"
       effect="spiro" />
    <marker
       inkscape:stockid="arrowSwitchStart"
       style="overflow:visible"
       refY="0.0"
       refX="0.0"
       orient="auto"
       id="arrowSwitchStart">
      <path
         id="path2970"
         transform="scale(0.25) rotate(0) translate(7.2925,0)"
         style="stroke-width:1.0;stroke:#FF0000;fill:#FF0000;fill-rule:evenodd"
         d="M 0.0,0.0 L 5.0,-5.0 L -12.5,0.0 L 5.0,5.0 L 0.0,0.0 z " />
    </marker>
    <marker
       inkscape:stockid="arrowSwitchEnd"
       style="overflow:visible"
       refY="0.0"
       refX="0.0"
       orient="auto"
       id="arrowSwitchEnd">
      <path
         id="path2973"
         transform="scale(0.25) rotate(180) translate(7.2925,0)"
         style="stroke-width:1.0;stroke:#FF0000;fill:#FF0000;fill-rule:evenodd"
         d="M 0.0,0.0 L 5.0,-5.0 L -12.5,0.0 L 5.0,5.0 L 0.0,0.0 z " />
    </marker>
  </defs>
  <metadata
     id="metadata5">
    <rdf:RDF>
      <cc:Work
         rdf:about="">
        <dc:format>image/svg+xml</dc:format>
        <dc:type
           rdf:resource="http://purl.org/dc/dcmitype/StillImage" />
        <dc:title />
      </cc:Work>
    </rdf:RDF>
  </metadata>
  <g
     inkscape:label="Layer 1"
     inkscape:groupmode="layer"
     id="layer1" />
  <path
     inkscape:original-d="M 10.279752,124.67559 H 50.279754"
     inkscape:path-effect="#path-effect852"
     inkscape:connector-curvature="0"
     id="path850"
     d="M 10.279752,124.67559 H 50.279754"
     style="fill:none;stroke:#000000;stroke-width:1;stroke-linecap:butt;stroke-linejoin:miter;stroke-miterlimit:4;stroke-dasharray:none;stroke-opacity:1" />
  <path
     inkscape:original-d="M 10.279752,84.675588 H 50.279754"
     inkscape:path-effect="#path-effect852-9"
     inkscape:connector-curvature="0"
     id="path850-5"
     d="M 10.279752,84.675588 H 50.279754"
     style="fill:none;stroke:#000000;stroke-width:1;stroke-linecap:butt;stroke-linejoin:miter;stroke-miterlimit:4;stroke-dasharray:none;stroke-opacity:1" />
  <path
     inkscape:original-d="M 50.279754,84.675588 V 124.67559"
     inkscape:path-effect="#path-effect852-9-8"
     inkscape:connector-curvature="0"
     id="path850-5-0"
     d="M 50.279754,84.675588 V 124.67559"
     style="fill:none;stroke:#000000;stroke-width:1;stroke-linecap:butt;stroke-linejoin:miter;stroke-miterlimit:4;stroke-dasharray:none;stroke-opacity:1" />
  <path
     inkscape:original-d="M 10.279752,84.675584 V 124.67559"
     inkscape:path-effect="#path-effect852-9-5"
     inkscape:connector-curvature="0"
     id="path850-5-01"
     d="M 10.279752,84.675584 V 124.67559"
     style="fill:none;stroke:#000000;stroke-width:1;stroke-linecap:butt;stroke-linejoin:miter;stroke-miterlimit:4;stroke-dasharray:none;stroke-opacity:1" />
  <g
     id="g926"
     transform="rotate(-180,30,100.92857)"
     inkscape:label="GND">
    <g
       transform="matrix(-2.2829811,0,0,2.2829811,547.41541,-1518.7081)"
       ns0:preamble="C:\\Program Files\\Inkscape\\share\\extensions/textextLib/CircuitSymbolsLatexPreamble.tex"
       ns0:text=" $\\int$"
       word-spacing="normal"
       letter-spacing="normal"
       font-size-adjust="none"
       font-stretch="normal"
       font-weight="normal"
       font-variant="normal"
       font-style="normal"
       stroke-miterlimit="10.433"
       xml:space="preserve"
       id="content"
       style="font-style:normal;font-variant:normal;font-weight:normal;font-stretch:normal;letter-spacing:normal;word-spacing:normal;text-anchor:start;fill:none;fill-opacity:1;fill-rule:evenodd;stroke:#000000;stroke-linecap:butt;stroke-linejoin:miter;stroke-miterlimit:10.43299961;stroke-dasharray:none;stroke-dashoffset:0;stroke-opacity:1">
<path
   id="path923"
   style="fill:#000000;stroke-width:0"
   d="m 226.14,706.52 v -0.08 l -0.01,-0.07 -0.01,-0.14 -0.02,-0.14 -0.02,-0.13 -0.01,-0.12 -0.02,-0.12 -0.02,-0.11 -0.03,-0.1 -0.02,-0.1 -0.02,-0.09 -0.03,-0.09 -0.03,-0.08 -0.03,-0.08 -0.03,-0.07 -0.03,-0.07 -0.03,-0.06 -0.03,-0.06 -0.04,-0.05 -0.03,-0.05 -0.04,-0.04 -0.04,-0.04 -0.04,-0.03 -0.04,-0.03 -0.05,-0.03 -0.04,-0.03 -0.05,-0.02 -0.04,-0.01 -0.05,-0.01 -0.05,-0.01 -0.05,-0.01 -0.05,-0.01 h -0.05 c -0.13,0 -0.43,0.03 -0.64,0.21 0.29,0.04 0.37,0.27 0.37,0.41 0,0.29 -0.22,0.42 -0.41,0.42 -0.2,0 -0.42,-0.13 -0.42,-0.43 0,-0.48 0.5,-0.83 1.1,-0.83 0.95,0 1.42,0.87 1.64,1.76 0.13,0.52 0.49,3.41 0.57,4.51 l 0.19,2.48 c 0.14,1.82 0.48,2.07 0.93,2.07 0.1,0 0.41,-0.02 0.63,-0.21 -0.29,-0.04 -0.37,-0.26 -0.37,-0.4 0,-0.29 0.22,-0.42 0.41,-0.42 0.2,0 0.42,0.13 0.42,0.43 0,0.47 -0.5,0.82 -1.1,0.82 -0.95,0 -1.34,-0.96 -1.51,-1.72 -0.12,-0.54 -0.48,-3.34 -0.57,-4.55 z"
   inkscape:connector-curvature="0" />
</g>  </g>
  <g
     inkscape:label="GND"
     transform="rotate(-180,8.3521727,126.61492)"
     id="g1010">
    <g
       style="font-style:normal;font-variant:normal;font-weight:normal;font-stretch:normal;letter-spacing:normal;word-spacing:normal;text-anchor:start;fill:none;fill-opacity:1;fill-rule:evenodd;stroke:#000000;stroke-linecap:butt;stroke-linejoin:miter;stroke-miterlimit:10.43299961;stroke-dasharray:none;stroke-dashoffset:0;stroke-opacity:1"
       id="g1008"
       xml:space="preserve"
       stroke-miterlimit="10.433"
       font-style="normal"
       font-variant="normal"
       font-weight="normal"
       font-stretch="normal"
       font-size-adjust="none"
       letter-spacing="normal"
       word-spacing="normal"
       ns0:text=" $\\textrm{Diferencial}$"
       ns0:preamble="C:\\Program Files\\Inkscape\\share\\extensions/textextLib/CircuitSymbolsLatexPreamble.tex"
       transform="matrix(-0.739645,0,0,0.739645,168.7985,-391.43853)">
<path
   inkscape:connector-curvature="0"
   d="m 223.78,714.02 v -0.31 h 0.24 c 0.77,0 0.79,-0.11 0.79,-0.47 v -5.23 c 0,-0.36 -0.02,-0.47 -0.79,-0.47 h -0.24 v -0.31 h 3.65 l -0.27,0.31 h -1.01 c -0.46,0 -0.48,0.07 -0.48,0.4 v 5.38 c 0,0.32 0.02,0.39 0.48,0.39 h 1 c 0.62,0 1.31,-0.22 1.82,-0.92 0.43,-0.59 0.52,-1.44 0.52,-2.22 0,-1.1 -0.19,-1.7 -0.55,-2.18 -0.2,-0.27 -0.77,-0.85 -1.78,-0.85 l 0.27,-0.31 c 1.68,0 3.05,1.48 3.05,3.34 0,1.89 -1.34,3.45 -3.05,3.45 z"
   style="fill:#000000;stroke-width:0"
   id="path982" />
<path
   inkscape:connector-curvature="0"
   d="m 232.81,711.63 -1.4,-0.11 v -0.31 c 0.65,0 0.74,-0.06 0.74,-0.55 v -2.67 c 0,-0.45 -0.11,-0.45 -0.78,-0.45 v -0.31 c 0.32,0.01 0.86,0.04 1.1,0.04 0.35,0 0.7,-0.03 1.04,-0.04 v 0.31 c -0.66,0 -0.7,0.05 -0.7,0.44 z"
   style="fill:#000000;stroke-width:0"
   id="path984" />
<path
   inkscape:connector-curvature="0"
   d="m 232.85,713.35 v 0.03 l -0.01,0.03 v 0.03 0.03 l -0.01,0.02 -0.01,0.03 -0.01,0.03 -0.01,0.02 -0.01,0.02 -0.01,0.03 -0.01,0.02 -0.02,0.02 -0.01,0.02 -0.02,0.02 -0.01,0.02 -0.02,0.02 -0.02,0.01 -0.02,0.02 -0.02,0.01 -0.02,0.02 -0.02,0.01 -0.02,0.01 -0.03,0.01 -0.02,0.01 -0.02,0.01 -0.03,0.01 -0.02,0.01 h -0.03 l -0.02,0.01 h -0.03 -0.02 -0.03 c -0.31,0 -0.53,-0.27 -0.53,-0.53 0,-0.26 0.22,-0.52 0.53,-0.52 0.28,0 0.53,0.21 0.53,0.52 z"
   style="fill:#000000;stroke-width:0"
   id="path986" />
<path
   inkscape:connector-curvature="0"
   d="m 235.55,711.52 v 1.15 c 0,0.87 0.48,1.35 0.92,1.35 0.03,0 0.18,0 0.33,-0.07 -0.12,-0.04 -0.3,-0.17 -0.3,-0.42 0,-0.23 0.16,-0.42 0.43,-0.42 0.29,0 0.44,0.19 0.44,0.43 0,0.37 -0.37,0.7 -0.9,0.7 -0.7,0 -1.54,-0.53 -1.54,-1.58 v -1.14 h -0.79 v -0.31 h 0.79 v -3.22 c 0,-0.45 -0.11,-0.45 -0.78,-0.45 v -0.31 c 0.39,0.01 0.86,0.04 1.14,0.04 0.39,0 0.86,0 1.26,-0.04 v 0.31 h -0.21 c -0.74,0 -0.75,0.11 -0.75,0.47 v 3.2 h 1.13 v 0.31 z"
   style="fill:#000000;stroke-width:0"
   id="path988" />
<path
   inkscape:connector-curvature="0"
   d="m 237.96,709.53 0.01,0.21 c 0.06,1.48 0.9,1.73 1.24,1.73 1.03,0 1.13,-1.34 1.13,-1.73 h -2.37 l -0.01,-0.21 h 2.78 c 0.22,0 0.25,0 0.25,0.21 0,0.98 -0.54,1.94 -1.78,1.94 -1.16,0 -2.08,-1.02 -2.08,-2.26 0,-1.33 1.05,-2.29 2.2,-2.29 1.21,0 1.66,1.1 1.66,1.29 0,0.1 -0.08,0.12 -0.13,0.12 -0.09,0 -0.11,-0.06 -0.13,-0.14 -0.35,-1.03 -1.24,-1.03 -1.34,-1.03 -0.5,0 -0.9,0.3 -1.13,0.67 -0.3,0.48 -0.3,1.13 -0.3,1.49 z"
   style="fill:#000000;stroke-width:0"
   id="path990" />
<path
   inkscape:connector-curvature="0"
   d="m 242.95,710.53 v 1.1 l -1.39,-0.11 v -0.31 c 0.7,0 0.78,-0.07 0.78,-0.56 v -2.66 c 0,-0.45 -0.11,-0.45 -0.78,-0.45 v -0.31 c 0.39,0.01 0.86,0.04 1.14,0.04 0.4,0 0.87,0 1.26,-0.04 v 0.31 h -0.2 c -0.74,0 -0.76,0.11 -0.76,0.47 v 1.53 c 0,0.98 0.42,1.87 1.17,1.87 0.07,0 0.09,0 0.11,-0.01 -0.03,-0.01 -0.23,-0.13 -0.23,-0.39 0,-0.28 0.21,-0.43 0.43,-0.43 0.18,0 0.43,0.12 0.43,0.44 0,0.32 -0.31,0.61 -0.74,0.61 -0.72,0 -1.08,-0.67 -1.22,-1.1 z"
   style="fill:#000000;stroke-width:0"
   id="path992" />
<path
   inkscape:connector-curvature="0"
   d="m 246.29,709.53 0.01,0.21 c 0.06,1.48 0.9,1.73 1.24,1.73 1.03,0 1.12,-1.34 1.12,-1.73 h -2.36 l -0.01,-0.21 h 2.78 c 0.22,0 0.25,0 0.25,0.21 0,0.98 -0.54,1.94 -1.78,1.94 -1.16,0 -2.08,-1.02 -2.08,-2.26 0,-1.33 1.05,-2.29 2.2,-2.29 1.21,0 1.66,1.1 1.66,1.29 0,0.1 -0.08,0.12 -0.13,0.12 -0.09,0 -0.11,-0.06 -0.13,-0.14 -0.35,-1.03 -1.24,-1.03 -1.34,-1.03 -0.5,0 -0.9,0.3 -1.13,0.67 -0.3,0.48 -0.3,1.13 -0.3,1.49 z"
   style="fill:#000000;stroke-width:0"
   id="path994" />
<path
   inkscape:connector-curvature="0"
   d="m 250.71,710.65 v -2.66 c 0,-0.45 -0.11,-0.45 -0.78,-0.45 v -0.31 c 0.35,0.01 0.86,0.04 1.13,0.04 0.26,0 0.78,-0.03 1.11,-0.04 v 0.31 c -0.66,0 -0.77,0 -0.77,0.45 v 1.83 c 0,1.03 0.7,1.59 1.34,1.59 0.63,0 0.74,-0.54 0.74,-1.11 v -2.31 c 0,-0.45 -0.11,-0.45 -0.78,-0.45 v -0.31 c 0.35,0.01 0.86,0.04 1.13,0.04 0.26,0 0.78,-0.03 1.12,-0.04 v 0.31 c -0.52,0 -0.77,0 -0.78,0.3 v 1.9 c 0,0.85 0,1.16 -0.31,1.52 -0.14,0.17 -0.47,0.37 -1.05,0.37 -0.72,0 -1.19,-0.43 -1.47,-1.05 v 1.05 l -1.41,-0.11 v -0.31 c 0.7,0 0.78,-0.07 0.78,-0.56 z"
   style="fill:#000000;stroke-width:0"
   id="path996" />
<path
   inkscape:connector-curvature="0"
   d="m 256.31,709.4 v 0.08 l 0.01,0.07 v 0.07 0.07 l 0.01,0.07 v 0.07 l 0.01,0.06 0.01,0.06 0.01,0.06 0.01,0.06 0.01,0.06 0.01,0.06 0.03,0.11 0.03,0.1 0.03,0.1 0.04,0.09 0.04,0.09 0.04,0.08 0.04,0.07 0.05,0.07 0.05,0.07 0.05,0.06 0.05,0.05 0.05,0.05 0.06,0.05 0.05,0.04 0.06,0.04 0.05,0.03 0.06,0.03 0.06,0.03 0.05,0.02 0.06,0.02 0.06,0.01 0.05,0.02 0.05,0.01 h 0.06 l 0.05,0.01 h 0.05 c 0.09,0 0.72,-0.01 1.07,-0.37 -0.41,-0.03 -0.47,-0.33 -0.47,-0.46 0,-0.26 0.18,-0.45 0.46,-0.45 0.26,0 0.46,0.16 0.46,0.46 0,0.68 -0.76,1.06 -1.53,1.06 -1.25,0 -2.16,-1.07 -2.16,-2.3 0,-1.27 0.98,-2.25 2.14,-2.25 1.34,0 1.66,1.19 1.66,1.29 0,0.1 -0.1,0.1 -0.13,0.1 -0.09,0 -0.11,-0.04 -0.13,-0.1 -0.29,-0.93 -0.94,-1.05 -1.31,-1.05 -0.53,0 -1.41,0.43 -1.41,2.03 z"
   style="fill:#000000;stroke-width:0"
   id="path998" />
<path
   inkscape:connector-curvature="0"
   d="m 261.34,711.63 -1.4,-0.11 v -0.31 c 0.65,0 0.74,-0.06 0.74,-0.55 v -2.67 c 0,-0.45 -0.11,-0.45 -0.78,-0.45 v -0.31 c 0.32,0.01 0.86,0.04 1.1,0.04 0.35,0 0.7,-0.03 1.04,-0.04 v 0.31 c -0.66,0 -0.7,0.05 -0.7,0.44 z"
   style="fill:#000000;stroke-width:0"
   id="path1000" />
<path
   inkscape:connector-curvature="0"
   d="m 261.38,713.35 v 0.03 0.03 l -0.01,0.03 v 0.03 l -0.01,0.02 -0.01,0.03 v 0.03 l -0.01,0.02 -0.02,0.02 -0.01,0.03 -0.01,0.02 -0.01,0.02 -0.02,0.02 -0.02,0.02 -0.01,0.02 -0.02,0.02 -0.02,0.01 -0.02,0.02 -0.02,0.01 -0.02,0.02 -0.02,0.01 -0.02,0.01 -0.03,0.01 -0.02,0.01 -0.02,0.01 -0.03,0.01 -0.02,0.01 h -0.03 l -0.02,0.01 h -0.03 -0.02 -0.03 c -0.31,0 -0.53,-0.27 -0.53,-0.53 0,-0.26 0.22,-0.52 0.53,-0.52 0.28,0 0.53,0.21 0.53,0.52 z"
   style="fill:#000000;stroke-width:0"
   id="path1002" />
<path
   inkscape:connector-curvature="0"
   d="m 265.66,707.99 0.01,-0.04 v -0.03 l 0.01,-0.04 0.01,-0.04 0.01,-0.04 0.01,-0.03 0.01,-0.04 0.02,-0.03 0.01,-0.04 0.02,-0.03 0.01,-0.04 0.02,-0.03 0.02,-0.03 0.02,-0.04 0.03,-0.03 0.02,-0.03 0.03,-0.02 0.02,-0.03 0.03,-0.03 0.03,-0.02 0.03,-0.02 0.03,-0.03 0.03,-0.02 0.04,-0.01 0.03,-0.02 0.04,-0.01 0.04,-0.02 0.03,-0.01 h 0.04 l 0.04,-0.01 h 0.05 l 0.04,-0.01 c 0.21,0 0.82,0.14 0.82,0.95 v 0.55 h -0.25 v -0.55 c 0,-0.58 -0.25,-0.64 -0.36,-0.64 -0.33,0 -0.37,0.45 -0.37,0.5 v 1.99 c 0,0.41 0,0.8 -0.36,1.17 -0.39,0.39 -0.89,0.54 -1.36,0.54 -0.82,0 -1.51,-0.46 -1.51,-1.12 0,-0.29 0.2,-0.46 0.46,-0.46 0.28,0 0.46,0.19 0.46,0.45 0,0.12 -0.05,0.45 -0.51,0.46 0.27,0.35 0.76,0.46 1.08,0.46 0.48,0 1.05,-0.39 1.05,-1.27 v -0.37 -0.21 -0.99 c 0,-0.95 -0.71,-1.29 -1.16,-1.29 -0.49,0 -0.9,0.35 -0.9,0.85 0,0.54 0.42,1.37 2.06,1.43 v 0 0.21 c -0.51,-0.03 -1.2,-0.06 -1.83,-0.36 -0.75,-0.34 -1,-0.85 -1,-1.29 0,-0.81 0.97,-1.05 1.6,-1.05 0.65,0 1.11,0.39 1.3,0.86 z"
   style="fill:#000000;stroke-width:0"
   id="path1004" />
<path
   inkscape:connector-curvature="0"
   d="m 269.09,714.13 -1.44,-0.11 v -0.31 c 0.7,0 0.78,-0.07 0.78,-0.55 v -5.17 c 0,-0.45 -0.11,-0.45 -0.78,-0.45 v -0.31 c 0.33,0.01 0.86,0.04 1.11,0.04 0.25,0 0.74,-0.03 1.11,-0.04 v 0.31 c -0.67,0 -0.78,0 -0.78,0.45 z"
   style="fill:#000000;stroke-width:0"
   id="path1006" />
</g>  </g>
  <g
     id="g1119"
     transform="rotate(-180,76.961682,117.37054)"
     inkscape:label="GND" />
  <g
     inkscape:label="GND"
     transform="rotate(-180,69.638393,104.42485)"
     id="g1224">
    <g
       style="font-style:normal;font-variant:normal;font-weight:normal;font-stretch:normal;letter-spacing:normal;word-spacing:normal;text-anchor:start;fill:none;fill-opacity:1;fill-rule:evenodd;stroke:#000000;stroke-linecap:butt;stroke-linejoin:miter;stroke-miterlimit:10.43299961;stroke-dasharray:none;stroke-dashoffset:0;stroke-opacity:1"
       id="g1222"
       xml:space="preserve"
       stroke-miterlimit="10.433"
       font-style="normal"
       font-variant="normal"
       font-weight="normal"
       font-stretch="normal"
       font-size-adjust="none"
       letter-spacing="normal"
       word-spacing="normal"
       ns0:text=" $\\textrm{Comp.}$"
       ns0:preamble="C:\\Program Files\\Inkscape\\share\\extensions/textextLib/CircuitSymbolsLatexPreamble.tex"
       transform="matrix(-0.739645,0,0,0.739645,235.79512,-421.61738)">
<path
   inkscape:connector-curvature="0"
   d="m 223.99,710.63 v -0.19 l 0.02,-0.19 0.02,-0.18 0.03,-0.18 0.04,-0.18 0.05,-0.18 0.06,-0.16 0.06,-0.17 0.07,-0.16 0.08,-0.16 0.09,-0.15 0.09,-0.15 0.1,-0.14 0.1,-0.13 0.11,-0.13 0.12,-0.13 0.12,-0.12 0.13,-0.11 0.13,-0.1 0.14,-0.1 0.14,-0.09 0.14,-0.09 0.15,-0.08 0.16,-0.07 0.15,-0.06 0.16,-0.06 0.16,-0.04 0.17,-0.04 0.17,-0.03 0.17,-0.03 0.17,-0.01 h 0.17 c 1.63,0 2.6,1.38 2.6,2.53 0,0.1 0,0.17 -0.13,0.17 -0.11,0 -0.11,-0.06 -0.12,-0.16 -0.08,-1.42 -1.14,-2.24 -2.23,-2.24 -0.61,0 -2.56,0.34 -2.56,3.3 0,2.97 1.94,3.31 2.55,3.31 1.09,0 1.97,-0.9 2.17,-2.35 0.02,-0.14 0.02,-0.17 0.16,-0.17 0.16,0 0.16,0.03 0.16,0.24 V 714 c 0,0.17 0,0.24 -0.11,0.24 -0.04,0 -0.08,0 -0.16,-0.12 l -0.49,-0.74 c -0.37,0.36 -0.88,0.86 -1.84,0.86 -1.86,0 -3.47,-1.58 -3.47,-3.61 z"
   style="fill:#000000;stroke-width:0"
   id="path1212" />
<path
   inkscape:connector-curvature="0"
   d="m 235.32,709.36 v 0.12 l -0.01,0.12 -0.01,0.11 -0.02,0.12 -0.03,0.11 -0.03,0.11 -0.03,0.11 -0.04,0.1 -0.05,0.1 -0.04,0.1 -0.06,0.1 -0.06,0.09 -0.06,0.1 -0.06,0.08 -0.07,0.09 -0.08,0.08 -0.07,0.08 -0.08,0.07 -0.09,0.07 -0.08,0.06 -0.09,0.07 -0.09,0.05 -0.1,0.05 -0.1,0.05 -0.1,0.04 -0.1,0.04 -0.1,0.03 -0.11,0.03 -0.11,0.02 -0.11,0.01 -0.11,0.01 h -0.11 l -0.01,-0.21 c 0.44,0 0.87,-0.22 1.13,-0.65 0.26,-0.43 0.26,-1 0.26,-1.38 0,-0.36 0,-0.89 -0.22,-1.33 -0.22,-0.45 -0.66,-0.74 -1.16,-0.74 v 0 c -0.43,0 -0.87,0.21 -1.14,0.67 -0.25,0.44 -0.25,1.04 -0.25,1.4 0,0.39 0,0.92 0.24,1.36 0.27,0.46 0.74,0.67 1.14,0.67 l 0.01,0.21 c -1.25,0 -2.21,-1.08 -2.21,-2.32 0,-1.28 1.03,-2.23 2.2,-2.23 1.21,0 2.21,0.97 2.21,2.23 z"
   style="fill:#000000;stroke-width:0"
   id="path1214" />
<path
   inkscape:connector-curvature="0"
   d="m 236.71,710.65 v -2.66 c 0,-0.45 -0.11,-0.45 -0.78,-0.45 v -0.31 c 0.35,0.01 0.86,0.04 1.12,0.04 0.26,0 0.78,-0.03 1.12,-0.04 v 0.31 c -0.67,0 -0.78,0 -0.78,0.45 v 1.83 c 0,1.03 0.71,1.59 1.35,1.59 0.63,0 0.74,-0.54 0.74,-1.11 v -2.31 c 0,-0.45 -0.11,-0.45 -0.78,-0.45 v -0.31 c 0.35,0.01 0.86,0.04 1.13,0.04 0.26,0 0.77,-0.03 1.11,-0.04 v 0.31 c -0.67,0 -0.78,0 -0.78,0.45 v 1.83 c 0,1.03 0.71,1.59 1.35,1.59 0.63,0 0.74,-0.54 0.74,-1.11 v -2.31 c 0,-0.45 -0.11,-0.45 -0.78,-0.45 v -0.31 c 0.35,0.01 0.86,0.04 1.13,0.04 0.26,0 0.78,-0.03 1.12,-0.04 v 0.31 c -0.52,0 -0.77,0 -0.78,0.3 v 1.9 c 0,0.85 0,1.16 -0.31,1.52 -0.14,0.17 -0.47,0.37 -1.05,0.37 -0.84,0 -1.28,-0.6 -1.44,-0.98 -0.14,0.87 -0.88,0.98 -1.33,0.98 -0.73,0 -1.2,-0.43 -1.48,-1.05 v 1.05 l -1.4,-0.11 v -0.31 c 0.7,0 0.78,-0.07 0.78,-0.56 z"
   style="fill:#000000;stroke-width:0"
   id="path1216" />
<path
   inkscape:connector-curvature="0"
   d="m 245.63,710.97 v 0.66 l -1.44,-0.11 v -0.31 c 0.71,0 0.78,-0.06 0.78,-0.5 v -4.65 c 0,-0.44 -0.11,-0.44 -0.78,-0.44 v -0.31 c 0.34,0.01 0.86,0.03 1.12,0.03 0.26,0 0.77,-0.02 1.12,-0.03 v 0.31 c -0.67,0 -0.78,0 -0.78,0.44 v 1.67 0.09 l 0.14,0.13 c -0.14,0.21 -0.14,0.22 -0.14,0.42 v 0 2.21 c 0.29,0.51 0.78,0.8 1.29,0.8 0.73,0 1.34,-0.88 1.34,-2 0,-1.2 -0.7,-2.04 -1.44,-2.04 -0.4,0 -0.78,0.2 -1.05,0.61 l -0.14,-0.13 c 0.06,-0.16 0.47,-0.69 1.23,-0.69 1.19,0 2.23,0.97 2.23,2.25 0,1.26 -0.97,2.25 -2.09,2.25 -0.78,0 -1.2,-0.44 -1.39,-0.66 z"
   style="fill:#000000;stroke-width:0"
   id="path1218" />
<path
   inkscape:connector-curvature="0"
   d="m 251.36,707.76 v 0.03 0.02 l -0.01,0.03 v 0.03 l -0.01,0.02 v 0.03 l -0.01,0.02 -0.01,0.03 -0.01,0.02 -0.01,0.02 -0.02,0.02 -0.01,0.02 -0.02,0.03 -0.01,0.02 -0.02,0.01 -0.02,0.02 -0.01,0.02 -0.02,0.02 -0.02,0.01 -0.02,0.02 -0.03,0.01 -0.02,0.01 -0.02,0.02 -0.02,0.01 -0.03,0.01 h -0.02 l -0.03,0.01 -0.02,0.01 h -0.03 l -0.03,0.01 h -0.02 -0.03 c -0.29,0 -0.53,-0.24 -0.53,-0.53 0,-0.29 0.24,-0.53 0.53,-0.53 0.29,0 0.53,0.24 0.53,0.53 z"
   style="fill:#000000;stroke-width:0"
   id="path1220" />
</g>  </g>
  <g
     id="g1328"
     inkscape:label="OpAmp"
     transform="translate(6.3437421,-5.32441)">
    <g
       id="g1326"
       inkscape:label="OpAmp">
      <path
         id="path1312"
         inkscape:label="none"
         style="fill:none;stroke:#000000;stroke-width:1;stroke-linecap:round;stroke-linejoin:round;stroke-dasharray:none"
         d="M 95,110 60,130 V 90 l 35,20"
         inkscape:connector-curvature="0" />
      <path
         id="path1314"
         inkscape:label="none"
         style="fill:none;stroke:#000000;stroke-width:1;stroke-linecap:round;stroke-linejoin:round;stroke-dasharray:none"
         d="M 60,120 H 52.5"
         inkscape:connector-curvature="0" />
      <path
         id="path1316"
         inkscape:label="none"
         style="fill:none;stroke:#000000;stroke-width:1;stroke-linecap:round;stroke-linejoin:round;stroke-dasharray:none"
         d="M 60,100 H 52.5"
         inkscape:connector-curvature="0" />
      <path
         id="path1318"
         inkscape:label="none"
         style="fill:none;stroke:#000000;stroke-width:1;stroke-linecap:round;stroke-linejoin:round;stroke-dasharray:none"
         d="m 95,110 h 7.5"
         inkscape:connector-curvature="0" />
    </g>
  </g>
  <path
     style="fill:none;stroke:#000000;stroke-width:1;stroke-linecap:butt;stroke-linejoin:miter;stroke-opacity:1;stroke-miterlimit:4;stroke-dasharray:none"
     d="M 58.84374,94.675588 H 50.554315"
     id="path1379"
     inkscape:connector-curvature="0"
     inkscape:path-effect="#path-effect1381"
     inkscape:original-d="M 58.84374,94.675588 H 50.554315" />
  <path
     style="fill:none;stroke:#000000;stroke-width:1;stroke-linecap:butt;stroke-linejoin:miter;stroke-opacity:1;stroke-miterlimit:4;stroke-dasharray:none"
     d="M 58.84374,114.67559 H 50.365326"
     id="path1383"
     inkscape:connector-curvature="0"
     inkscape:path-effect="#path-effect1385"
     inkscape:original-d="M 58.84374,114.67559 H 50.365326" />
  <path
     inkscape:original-d="M 109.24404,94.691959 V 134.69196"
     inkscape:path-effect="#path-effect852-9-8-0"
     inkscape:connector-curvature="0"
     id="path850-5-0-6"
     d="M 109.24404,94.691959 V 134.69196"
     style="fill:none;stroke:#000000;stroke-width:1;stroke-linecap:butt;stroke-linejoin:miter;stroke-miterlimit:4;stroke-dasharray:none;stroke-opacity:1" />
  <path
     inkscape:original-d="M 149.24405,94.691959 V 134.69196"
     inkscape:path-effect="#path-effect852-9-8-4"
     inkscape:connector-curvature="0"
     id="path850-5-0-4"
     d="M 149.24405,94.691959 V 134.69196"
     style="fill:none;stroke:#000000;stroke-width:1;stroke-linecap:butt;stroke-linejoin:miter;stroke-miterlimit:4;stroke-dasharray:none;stroke-opacity:1" />
  <path
     inkscape:original-d="M 149.24405,134.69196 H 109.24404"
     inkscape:path-effect="#path-effect852-9-8-8"
     inkscape:connector-curvature="0"
     id="path850-5-0-5"
     d="M 149.24405,134.69196 H 109.24404"
     style="fill:none;stroke:#000000;stroke-width:1;stroke-linecap:butt;stroke-linejoin:miter;stroke-miterlimit:4;stroke-dasharray:none;stroke-opacity:1" />
  <path
     inkscape:original-d="M 149.24405,94.691959 H 109.24404"
     inkscape:path-effect="#path-effect852-9-8-1"
     inkscape:connector-curvature="0"
     id="path850-5-0-47"
     d="M 149.24405,94.691959 H 109.24404"
     style="fill:none;stroke:#000000;stroke-width:1;stroke-linecap:butt;stroke-linejoin:miter;stroke-miterlimit:4;stroke-dasharray:none;stroke-opacity:1" />
  <g
     inkscape:label="GND"
     transform="rotate(-180,102.69393,109.38702)"
     id="g1762">
    <g
       style="font-style:normal;font-variant:normal;font-weight:normal;font-stretch:normal;letter-spacing:normal;word-spacing:normal;text-anchor:start;fill:none;fill-opacity:1;fill-rule:evenodd;stroke:#000000;stroke-linecap:butt;stroke-linejoin:miter;stroke-miterlimit:10.43299961;stroke-dasharray:none;stroke-dashoffset:0;stroke-opacity:1"
       id="g1760"
       xml:space="preserve"
       stroke-miterlimit="10.433"
       font-style="normal"
       font-variant="normal"
       font-weight="normal"
       font-stretch="normal"
       font-size-adjust="none"
       letter-spacing="normal"
       word-spacing="normal"
       ns0:text=" $D$"
       ns0:preamble="C:\\Program Files\\Inkscape\\share\\extensions/textextLib/CircuitSymbolsLatexPreamble.tex"
       transform="matrix(-0.739645,0,0,0.739645,258.37279,-411.45466)">
<path
   inkscape:connector-curvature="0"
   d="m 225.02,708.01 -0.01,-0.04 -0.01,-0.03 -0.01,-0.03 -0.01,-0.03 -0.01,-0.03 -0.01,-0.03 -0.01,-0.02 -0.01,-0.03 -0.01,-0.02 -0.01,-0.02 -0.01,-0.02 -0.02,-0.02 -0.01,-0.02 -0.02,-0.01 -0.02,-0.02 -0.02,-0.01 -0.02,-0.01 -0.03,-0.01 -0.02,-0.01 -0.03,-0.01 -0.04,-0.01 h -0.01 l -0.02,-0.01 h -0.02 -0.02 l -0.02,-0.01 h -0.02 -0.02 -0.02 l -0.03,-0.01 h -0.02 -0.03 -0.02 -0.03 -0.03 -0.03 -0.03 l -0.03,-0.01 h -0.03 -0.03 -0.04 -0.03 -0.04 c -0.17,0 -0.28,0 -0.28,-0.19 0,-0.12 0.09,-0.12 0.28,-0.12 h 3.3 l -0.18,0.31 h -1.13 c -0.14,0 -0.15,0 -0.22,0.01 -0.09,0.01 -0.12,0.02 -0.12,0.1 0,0.03 0,0.05 0.04,0.23 l 1.37,5.45 c 0.09,0.35 0.11,0.38 0.54,0.38 h 1.07 c 0.97,0 1.8,-0.53 1.8,-1.84 0,-0.48 -0.2,-2.11 -1.04,-3.21 -0.29,-0.36 -1.08,-1.12 -2.31,-1.12 l 0.18,-0.31 c 2.08,0 4.04,2.1 4.04,4.28 0,1.4 -0.85,2.51 -2.34,2.51 h -3.35 c -0.19,0 -0.3,0 -0.3,-0.19 0,-0.12 0.09,-0.12 0.29,-0.12 0.13,0 0.3,-0.01 0.42,-0.02 0.16,-0.02 0.22,-0.05 0.22,-0.16 0,-0.04 -0.01,-0.07 -0.04,-0.19 z"
   style="fill:#000000;stroke-width:0"
   id="path1758" />
</g>  </g>
  <g
     id="g1896"
     transform="rotate(-180,116.78253,109.24279)"
     inkscape:label="GND">
    <g
       style="font-style:normal;font-variant:normal;font-weight:normal;font-stretch:normal;letter-spacing:normal;word-spacing:normal;text-anchor:start;fill:none;fill-opacity:1;fill-rule:evenodd;stroke:#000000;stroke-linecap:butt;stroke-linejoin:miter;stroke-miterlimit:10.43299961;stroke-dasharray:none;stroke-dashoffset:0;stroke-opacity:1"
       transform="matrix(-0.739645,0,0,0.739645,258.16938,-411.61738)"
       ns0:preamble="C:\\Program Files\\Inkscape\\share\\extensions/textextLib/CircuitSymbolsLatexPreamble.tex"
       ns0:text=" $Q$"
       word-spacing="normal"
       letter-spacing="normal"
       font-size-adjust="none"
       font-stretch="normal"
       font-weight="normal"
       font-variant="normal"
       font-style="normal"
       stroke-miterlimit="10.433"
       xml:space="preserve"
       id="g1894">
<path
   inkscape:connector-curvature="0"
   id="path1892"
   style="fill:#000000;stroke-width:0"
   d="m 227.8,707.29 0.14,0.06 0.15,0.07 0.14,0.07 0.14,0.08 0.14,0.08 0.14,0.09 0.14,0.1 0.13,0.1 0.13,0.11 0.13,0.11 0.13,0.12 0.12,0.12 0.12,0.13 0.12,0.13 0.11,0.13 0.1,0.14 0.11,0.14 0.1,0.15 0.09,0.15 0.09,0.16 0.08,0.15 0.07,0.16 0.07,0.17 0.07,0.16 0.06,0.17 0.05,0.17 0.04,0.17 0.03,0.18 0.03,0.17 0.02,0.18 0.02,0.18 v 0.18 c 0,1.59 -1.06,2.67 -2.54,2.67 l -0.06,-0.25 c 1,0 1.72,-0.77 1.72,-2.11 0,-0.99 -0.5,-3.31 -2.18,-4.25 -0.05,0.35 -0.15,1.08 -0.88,1.08 v -0.22 c 0.42,0 0.61,-0.24 0.61,-0.85 0,-0.15 -0.01,-0.16 -0.11,-0.2 -0.26,-0.11 -0.56,-0.17 -0.84,-0.17 v 0 c -0.14,0 -0.46,0 -0.46,0.42 0,0.4 0.38,0.8 0.8,0.8 v 0.22 c -0.53,0 -1.02,-0.5 -1.02,-1.02 0,-0.2 0.06,-0.31 0.06,-0.32 v 0 c -0.77,0.31 -1.11,1.09 -1.11,1.98 0,0.69 0.26,2.1 1.02,3.17 0.72,1.01 1.66,1.47 2.39,1.47 l 0.06,0.25 c -2.15,0 -4.35,-2.26 -4.35,-4.57 0,-1.65 1.12,-2.65 2.55,-2.65 0.25,0 0.59,0.04 0.98,0.14 -0.04,-0.61 -0.04,-0.63 -0.04,-0.76 0,-0.32 0,-1.09 0.83,-1.09 1.19,0 1.66,1.82 1.66,1.92 0,0.07 -0.07,0.1 -0.11,0.1 -0.08,0 -0.09,-0.05 -0.12,-0.11 -0.24,-0.7 -0.81,-0.95 -1.16,-0.95 -0.46,0 -0.61,0.27 -0.71,1.02 z" />
</g>  </g>
  <g
     inkscape:label="GND"
     transform="rotate(-180,116.78253,119.49926)"
     id="g2042">
    <g
       style="font-style:normal;font-variant:normal;font-weight:normal;font-stretch:normal;letter-spacing:normal;word-spacing:normal;text-anchor:start;fill:none;fill-opacity:1;fill-rule:evenodd;stroke:#000000;stroke-linecap:butt;stroke-linejoin:miter;stroke-miterlimit:10.43299961;stroke-dasharray:none;stroke-dashoffset:0;stroke-opacity:1"
       id="g2040"
       xml:space="preserve"
       stroke-miterlimit="10.433"
       font-style="normal"
       font-variant="normal"
       font-weight="normal"
       font-stretch="normal"
       font-size-adjust="none"
       letter-spacing="normal"
       word-spacing="normal"
       ns0:text=" $\\overline{Q}$"
       ns0:preamble="C:\\Program Files\\Inkscape\\share\\extensions/textextLib/CircuitSymbolsLatexPreamble.tex"
       transform="matrix(-0.739645,0,0,0.739645,258.16938,-411.61738)">
<line
   style="stroke-width:0.398"
   x1="223.42999"
   y1="715.44"
   x2="231.31"
   y2="715.44"
   id="line2036" />
<path
   inkscape:connector-curvature="0"
   d="m 227.8,707.29 0.14,0.06 0.15,0.07 0.14,0.07 0.14,0.08 0.14,0.08 0.14,0.09 0.14,0.1 0.13,0.1 0.13,0.11 0.13,0.11 0.13,0.12 0.12,0.12 0.12,0.13 0.12,0.13 0.11,0.13 0.1,0.14 0.11,0.14 0.1,0.15 0.09,0.15 0.09,0.16 0.08,0.15 0.07,0.16 0.07,0.17 0.07,0.16 0.06,0.17 0.05,0.17 0.04,0.17 0.03,0.18 0.03,0.17 0.02,0.18 0.02,0.18 v 0.18 c 0,1.59 -1.06,2.67 -2.54,2.67 l -0.06,-0.25 c 1,0 1.72,-0.77 1.72,-2.11 0,-0.99 -0.5,-3.31 -2.18,-4.25 -0.05,0.35 -0.15,1.08 -0.88,1.08 v -0.22 c 0.42,0 0.61,-0.24 0.61,-0.85 0,-0.15 -0.01,-0.16 -0.11,-0.2 -0.26,-0.11 -0.56,-0.17 -0.84,-0.17 v 0 c -0.14,0 -0.46,0 -0.46,0.42 0,0.4 0.38,0.8 0.8,0.8 v 0.22 c -0.53,0 -1.02,-0.5 -1.02,-1.02 0,-0.2 0.06,-0.31 0.06,-0.32 v 0 c -0.77,0.31 -1.11,1.09 -1.11,1.98 0,0.69 0.26,2.1 1.02,3.17 0.72,1.01 1.66,1.47 2.39,1.47 l 0.06,0.25 c -2.15,0 -4.35,-2.26 -4.35,-4.57 0,-1.65 1.12,-2.65 2.55,-2.65 0.25,0 0.59,0.04 0.98,0.14 -0.04,-0.61 -0.04,-0.63 -0.04,-0.76 0,-0.32 0,-1.09 0.83,-1.09 1.19,0 1.66,1.82 1.66,1.92 0,0.07 -0.07,0.1 -0.11,0.1 -0.08,0 -0.09,-0.05 -0.12,-0.11 -0.24,-0.7 -0.81,-0.95 -1.16,-0.95 -0.46,0 -0.61,0.27 -0.71,1.02 z"
   style="fill:#000000;stroke-width:0"
   id="path2038" />
</g>  </g>
  <path
     inkscape:original-d="m 109.14062,121.05207 4.8192,4.8192"
     inkscape:path-effect="#path-effect2119"
     inkscape:connector-curvature="0"
     id="path2117"
     d="m 109.14062,121.05207 4.8192,4.8192"
     style="fill:none;stroke:#000000;stroke-width:1;stroke-linecap:butt;stroke-linejoin:miter;stroke-opacity:1;stroke-miterlimit:4;stroke-dasharray:none" />
  <path
     inkscape:original-d="m 113.95982,125.87127 -4.8192,4.8192"
     inkscape:path-effect="#path-effect2119-4"
     inkscape:connector-curvature="0"
     id="path2117-9"
     d="m 113.95982,125.87127 -4.8192,4.8192"
     style="fill:none;stroke:#000000;stroke-width:1;stroke-linecap:butt;stroke-linejoin:miter;stroke-miterlimit:4;stroke-dasharray:none;stroke-opacity:1" />
  <g
     id="g2222"
     transform="rotate(-180.000000 80.000000 130.000000)"
     inkscape:label="GND" />
  <g
     inkscape:label="GND"
     transform="rotate(-180,89.41397,133.96875)"
     id="g2386">
    <g
       inkscape:label="GND"
       id="g2376">
      <circle
         r="1"
         cy="130"
         cx="80"
         style="fill:#000000;stroke:#000000;stroke-width:0.69999999;stroke-linecap:round;stroke-linejoin:round;stroke-dasharray:none"
         inkscape:label="circle"
         id="path2374" />
    </g>
    <g
       style="font-style:normal;font-variant:normal;font-weight:normal;font-stretch:normal;letter-spacing:normal;word-spacing:normal;text-anchor:start;fill:none;fill-opacity:1;fill-rule:evenodd;stroke:#000000;stroke-linecap:butt;stroke-linejoin:miter;stroke-miterlimit:10.43299961;stroke-dasharray:none;stroke-dashoffset:0;stroke-opacity:1"
       id="g2384"
       xml:space="preserve"
       stroke-miterlimit="10.433"
       font-style="normal"
       font-variant="normal"
       font-weight="normal"
       font-stretch="normal"
       font-size-adjust="none"
       letter-spacing="normal"
       word-spacing="normal"
       ns0:text=" $CLK$"
       ns0:preamble="C:\\Program Files\\Inkscape\\share\\extensions/textextLib/CircuitSymbolsLatexPreamble.tex"
       transform="matrix(-0.739645,0,0,0.739645,254.12723,-401.61738)">
<path
   inkscape:connector-curvature="0"
   d="m 231.01,714.14 v 0 0.01 0 0 0.01 0 0 0.01 0 l -0.01,0.01 v 0 0 0.01 0 l -0.01,0.01 v 0 0 l -0.01,0.01 v 0 0 l -0.01,0.01 v 0 h -0.01 v 0.01 h -0.01 v 0 h -0.01 v 0 0 h -0.01 v 0 0.01 h -0.01 v 0 0 h -0.01 v 0 0 h -0.01 c -0.03,0 -0.04,-0.01 -0.15,-0.12 l -0.7,-0.77 c -0.09,0.14 -0.54,0.89 -1.65,0.89 -2.23,0 -4.47,-2.2 -4.47,-4.5 0,-1.64 1.18,-2.72 2.7,-2.72 0.87,0 1.63,0.39 2.16,0.85 0.92,0.81 1.09,1.72 1.09,1.75 0,0.1 -0.1,0.1 -0.12,0.1 -0.06,0 -0.11,-0.02 -0.13,-0.1 -0.09,-0.29 -0.31,-0.99 -1,-1.57 -0.69,-0.56 -1.32,-0.73 -1.84,-0.73 -0.89,0 -1.95,0.52 -1.95,2.07 0,0.57 0.21,2.18 1.2,3.34 0.61,0.7 1.55,1.2 2.44,1.2 1.01,0 1.6,-0.77 1.6,-1.92 0,-0.39 -0.03,-0.4 -0.03,-0.5 0,-0.1 0.11,-0.1 0.15,-0.1 0.13,0 0.13,0.02 0.18,0.2 z"
   style="fill:#000000;stroke-width:0"
   id="path2378" />
<path
   inkscape:connector-curvature="0"
   d="m 235,713.24 0.01,0.04 0.01,0.03 v 0.03 l 0.01,0.03 0.01,0.03 0.01,0.02 0.01,0.03 0.01,0.02 0.01,0.02 0.02,0.02 0.01,0.02 0.02,0.02 0.01,0.02 0.02,0.01 0.03,0.02 0.02,0.01 0.03,0.02 0.03,0.01 0.03,0.01 0.03,0.01 h 0.02 l 0.02,0.01 h 0.02 l 0.02,0.01 h 0.03 0.02 l 0.02,0.01 h 0.03 0.02 0.03 l 0.03,0.01 h 0.03 0.03 0.03 l 0.03,0.01 h 0.04 0.03 0.04 0.03 0.04 0.04 0.04 0.04 0.05 c 0.29,0 0.37,0 0.37,0.19 0,0.12 -0.11,0.12 -0.15,0.12 -0.33,0 -1.15,-0.03 -1.48,-0.03 -0.3,0 -1.03,0.03 -1.33,0.03 -0.07,0 -0.19,0 -0.19,-0.2 0,-0.11 0.09,-0.11 0.28,-0.11 0.02,0 0.21,0 0.38,-0.02 0.18,-0.02 0.27,-0.03 0.27,-0.16 0,-0.04 -0.01,-0.07 -0.04,-0.19 l -1.33,-5.33 c -0.1,-0.39 -0.12,-0.47 -0.91,-0.47 -0.17,0 -0.27,0 -0.27,-0.2 0,-0.11 0.09,-0.11 0.27,-0.11 h 4.61 c 0.24,0 0.25,0 0.31,0.17 l 0.79,2.15 c 0.04,0.11 0.04,0.13 0.04,0.14 0,0.04 -0.03,0.11 -0.12,0.11 -0.09,0 -0.1,-0.05 -0.17,-0.21 -0.34,-0.92 -0.77,-2.05 -2.5,-2.05 h -0.94 c -0.14,0 -0.16,0 -0.22,0.01 -0.1,0.01 -0.13,0.02 -0.13,0.1 0,0.03 0,0.05 0.05,0.23 z"
   style="fill:#000000;stroke-width:0"
   id="path2380" />
<path
   inkscape:connector-curvature="0"
   d="m 243.13,711.25 h -0.01 v 0 0.01 0 0.01 0 0 l -0.01,0.01 v 0 0.01 0 0.01 l -0.01,0.01 v 0.01 l -0.01,0.01 v 0.01 0 0.01 h -0.01 v 0.01 0 0.01 0 0 0.01 0 0 0.01 c 0,0.01 0.18,0.15 0.29,0.23 l 1.74,1.34 c 0.94,0.68 1.33,0.72 1.63,0.75 0.08,0.01 0.17,0.02 0.17,0.2 0,0.04 -0.03,0.11 -0.1,0.11 -0.22,0 -0.47,-0.03 -0.71,-0.03 -0.36,0 -0.75,0.03 -1.11,0.03 -0.07,0 -0.19,0 -0.19,-0.2 0,-0.07 0.05,-0.1 0.12,-0.11 0.22,-0.02 0.31,-0.07 0.31,-0.21 0,-0.18 -0.3,-0.4 -0.36,-0.45 l -3.89,-2.98 0.8,3.19 c 0.09,0.35 0.11,0.45 0.84,0.45 0.25,0 0.34,0 0.34,0.2 0,0.09 -0.08,0.11 -0.14,0.11 -0.28,0 -1,-0.03 -1.28,-0.03 -0.29,0 -1,0.03 -1.29,0.03 -0.07,0 -0.2,0 -0.2,-0.19 0,-0.12 0.09,-0.12 0.29,-0.12 0.13,0 0.31,-0.01 0.43,-0.02 0.16,-0.02 0.22,-0.05 0.22,-0.16 0,-0.04 -0.01,-0.07 -0.04,-0.19 l -1.33,-5.33 c -0.1,-0.39 -0.12,-0.47 -0.91,-0.47 -0.17,0 -0.28,0 -0.28,-0.19 0,-0.12 0.12,-0.12 0.15,-0.12 0.28,0 0.99,0.04 1.27,0.04 0.2,0 0.42,-0.01 0.63,-0.01 0.22,0 0.44,-0.03 0.65,-0.03 0.07,0 0.2,0 0.2,0.2 0,0.11 -0.09,0.11 -0.28,0.11 -0.37,0 -0.65,0 -0.65,0.18 0,0.07 0.06,0.29 0.09,0.44 0.14,0.51 0.27,1.04 0.4,1.56 l 1.49,1.15 1.16,-2.67 c 0.11,-0.27 0.11,-0.29 0.11,-0.35 0,-0.3 -0.42,-0.31 -0.51,-0.31 -0.11,0 -0.22,0 -0.22,-0.2 0,-0.11 0.12,-0.11 0.14,-0.11 0.4,0 0.81,0.04 1.21,0.04 0.22,0 0.76,-0.04 0.98,-0.04 0.05,0 0.18,0 0.18,0.2 0,0.11 -0.11,0.11 -0.2,0.11 -0.41,0.01 -0.54,0.1 -0.69,0.45 z"
   style="fill:#000000;stroke-width:0"
   id="path2382" />
</g>  </g>
  <path
     inkscape:original-d="M 109.35324,125.87127 H 98.822906"
     inkscape:path-effect="#path-effect2469"
     inkscape:connector-curvature="0"
     id="path2467"
     d="M 109.35324,125.87127 H 98.822906"
     style="fill:none;stroke:#000000;stroke-width:1;stroke-linecap:butt;stroke-linejoin:miter;stroke-miterlimit:4;stroke-dasharray:none;stroke-opacity:1" />
  <path
     inkscape:original-d="m 98.822906,125.87127 v 12.00074"
     inkscape:path-effect="#path-effect2473"
     inkscape:connector-curvature="0"
     id="path2471"
     d="m 98.822906,125.87127 v 12.00074"
     style="fill:none;stroke:#000000;stroke-width:1;stroke-linecap:butt;stroke-linejoin:miter;stroke-opacity:1;stroke-miterlimit:4;stroke-dasharray:none" />
  <path
     inkscape:original-d="M 159.35491,54.69196 V 94.691959"
     inkscape:path-effect="#path-effect852-9-8-0-1"
     inkscape:connector-curvature="0"
     id="path850-5-0-6-8"
     d="M 159.35491,54.69196 V 94.691959"
     style="fill:none;stroke:#000000;stroke-width:1;stroke-linecap:butt;stroke-linejoin:miter;stroke-miterlimit:4;stroke-dasharray:none;stroke-opacity:1" />
  <path
     inkscape:original-d="M 199.35493,54.69196 V 94.691959"
     inkscape:path-effect="#path-effect852-9-8-4-2"
     inkscape:connector-curvature="0"
     id="path850-5-0-4-2"
     d="M 199.35493,54.69196 V 94.691959"
     style="fill:none;stroke:#000000;stroke-width:1;stroke-linecap:butt;stroke-linejoin:miter;stroke-miterlimit:4;stroke-dasharray:none;stroke-opacity:1" />
  <path
     inkscape:original-d="M 199.35493,94.691959 H 159.35491"
     inkscape:path-effect="#path-effect852-9-8-8-0"
     inkscape:connector-curvature="0"
     id="path850-5-0-5-6"
     d="M 199.35493,94.691959 H 159.35491"
     style="fill:none;stroke:#000000;stroke-width:1;stroke-linecap:butt;stroke-linejoin:miter;stroke-miterlimit:4;stroke-dasharray:none;stroke-opacity:1" />
  <path
     inkscape:original-d="M 199.35493,54.69196 H 159.35491"
     inkscape:path-effect="#path-effect852-9-8-1-8"
     inkscape:connector-curvature="0"
     id="path850-5-0-47-2"
     d="M 199.35493,54.69196 H 159.35491"
     style="fill:none;stroke:#000000;stroke-width:1;stroke-linecap:butt;stroke-linejoin:miter;stroke-miterlimit:4;stroke-dasharray:none;stroke-opacity:1" />
  <path
     inkscape:original-d="m 159.44941,134.69196 v 40"
     inkscape:path-effect="#path-effect852-9-8-0-7"
     inkscape:connector-curvature="0"
     id="path850-5-0-6-2"
     d="m 159.44941,134.69196 v 40"
     style="fill:none;stroke:#000000;stroke-width:1;stroke-linecap:butt;stroke-linejoin:miter;stroke-miterlimit:4;stroke-dasharray:none;stroke-opacity:1" />
  <path
     inkscape:original-d="m 199.44943,134.69196 v 40"
     inkscape:path-effect="#path-effect852-9-8-4-7"
     inkscape:connector-curvature="0"
     id="path850-5-0-4-24"
     d="m 199.44943,134.69196 v 40"
     style="fill:none;stroke:#000000;stroke-width:1;stroke-linecap:butt;stroke-linejoin:miter;stroke-miterlimit:4;stroke-dasharray:none;stroke-opacity:1" />
  <path
     inkscape:original-d="M 199.44943,174.69196 H 159.44941"
     inkscape:path-effect="#path-effect852-9-8-8-3"
     inkscape:connector-curvature="0"
     id="path850-5-0-5-4"
     d="M 199.44943,174.69196 H 159.44941"
     style="fill:none;stroke:#000000;stroke-width:1;stroke-linecap:butt;stroke-linejoin:miter;stroke-miterlimit:4;stroke-dasharray:none;stroke-opacity:1" />
  <path
     inkscape:original-d="M 199.44943,134.69196 H 159.44941"
     inkscape:path-effect="#path-effect852-9-8-1-3"
     inkscape:connector-curvature="0"
     id="path850-5-0-47-5"
     d="M 199.44943,134.69196 H 159.44941"
     style="fill:none;stroke:#000000;stroke-width:1;stroke-linecap:butt;stroke-linejoin:miter;stroke-miterlimit:4;stroke-dasharray:none;stroke-opacity:1" />
  <path
     inkscape:original-d="m 187.62321,67.014563 h 23.51971"
     inkscape:path-effect="#path-effect2567"
     inkscape:connector-curvature="0"
     id="path2565"
     d="m 187.62321,67.014563 h 23.51971"
     style="fill:none;stroke:#000000;stroke-width:1;stroke-linecap:butt;stroke-linejoin:miter;stroke-opacity:1;stroke-miterlimit:4;stroke-dasharray:none;marker-start:url(#DotM)" />
  <path
     inkscape:original-d="m 187.62321,81.580752 h 23.51971"
     inkscape:path-effect="#path-effect2567-1"
     inkscape:connector-curvature="0"
     id="path2565-2"
     d="m 187.62321,81.580752 h 23.51971"
     style="fill:none;stroke:#000000;stroke-width:1;stroke-linecap:butt;stroke-linejoin:miter;stroke-miterlimit:4;stroke-dasharray:none;stroke-opacity:1;marker-start:url(#marker2865)" />
  <path
     inkscape:original-d="M 174.99472,74.23084 H 149.90479"
     inkscape:path-effect="#path-effect2897"
     inkscape:connector-curvature="0"
     id="path2895"
     d="M 174.99472,74.23084 H 149.90479"
     style="fill:none;stroke:#000000;stroke-width:1;stroke-linecap:butt;stroke-linejoin:miter;stroke-opacity:1;stroke-miterlimit:4;stroke-dasharray:none;marker-start:url(#marker2907)" />
  <path
     inkscape:original-d="m 174.99472,74.23084 12.52146,-7.229271"
     inkscape:path-effect="#path-effect2929"
     inkscape:connector-curvature="0"
     id="path2927"
     d="m 174.99472,74.23084 12.52146,-7.229271"
     style="fill:none;stroke:#000000;stroke-width:1;stroke-linecap:butt;stroke-linejoin:miter;stroke-opacity:1;stroke-miterlimit:4;stroke-dasharray:none" />
  <g
     id="g3081"
     inkscape:label="Switch"
     transform="translate(-59.720238,-41.388393)">
    <path
       id="path3075"
       inkscape:label="arc"
       sodipodi:type="arc"
       sodipodi:start="5.8534099"
       sodipodi:ry="12"
       sodipodi:rx="12"
       sodipodi:open="true"
       sodipodi:end="0.42977543"
       sodipodi:cy="115.13542"
       sodipodi:cx="229.7187"
       style="fill:none;stroke:#ff0000;stroke-width:1;stroke-linecap:round;stroke-linejoin:round;stroke-dasharray:none;marker-end:url(#arrowSwitchEnd)"
       d="m 240.62742,110.13542 a 12,12 0 0 1 0,10" />
  </g>
</svg>
