<?xml version="1.0" encoding="UTF-8" standalone="no"?>
<!-- Created with Inkscape (http://www.inkscape.org/) -->

<svg
   xmlns:ns0="http://www.iki.fi/pav/software/textext/"
   xmlns:dc="http://purl.org/dc/elements/1.1/"
   xmlns:cc="http://creativecommons.org/ns#"
   xmlns:rdf="http://www.w3.org/1999/02/22-rdf-syntax-ns#"
   xmlns:svg="http://www.w3.org/2000/svg"
   xmlns="http://www.w3.org/2000/svg"
   xmlns:sodipodi="http://sodipodi.sourceforge.net/DTD/sodipodi-0.dtd"
   xmlns:inkscape="http://www.inkscape.org/namespaces/inkscape"
   width="146.88406mm"
   height="85.191483mm"
   viewBox="0 0 146.88406 85.191483"
   version="1.1"
   id="svg8"
   inkscape:version="0.92.3 (2405546, 2018-03-11)"
   sodipodi:docname="IntegradorRC.svg">
  <sodipodi:namedview
     id="base"
     pagecolor="#ffffff"
     bordercolor="#666666"
     borderopacity="1.0"
     inkscape:pageopacity="0.0"
     inkscape:pageshadow="2"
     inkscape:zoom="0.98994949"
     inkscape:cx="206.54509"
     inkscape:cy="103.15213"
     inkscape:document-units="mm"
     inkscape:current-layer="svg8"
     showgrid="false"
     inkscape:window-width="1920"
     inkscape:window-height="1001"
     inkscape:window-x="-9"
     inkscape:window-y="-9"
     inkscape:window-maximized="1"
     fit-margin-top="0"
     fit-margin-left="0"
     fit-margin-right="0"
     fit-margin-bottom="0" />
  <defs
     id="defs2">
    <marker
       inkscape:isstock="true"
       style="overflow:visible"
       id="marker1649"
       refX="0"
       refY="0"
       orient="auto"
       inkscape:stockid="DotM">
      <path
         transform="matrix(0.4,0,0,0.4,2.96,0.4)"
         style="fill:#000000;fill-opacity:1;fill-rule:evenodd;stroke:#000000;stroke-width:1.00000003pt;stroke-opacity:1"
         d="m -2.5,-1 c 0,2.76 -2.24,5 -5,5 -2.76,0 -5,-2.24 -5,-5 0,-2.76 2.24,-5 5,-5 2.76,0 5,2.24 5,5 z"
         id="path1647"
         inkscape:connector-curvature="0" />
    </marker>
    <inkscape:path-effect
       is_visible="true"
       id="path-effect1645"
       effect="spiro" />
    <inkscape:path-effect
       is_visible="true"
       id="path-effect1641"
       effect="spiro" />
    <marker
       inkscape:stockid="DotM"
       orient="auto"
       refY="0"
       refX="0"
       id="marker1276"
       style="overflow:visible"
       inkscape:isstock="true">
      <path
         id="path1274"
         d="m -2.5,-1 c 0,2.76 -2.24,5 -5,5 -2.76,0 -5,-2.24 -5,-5 0,-2.76 2.24,-5 5,-5 2.76,0 5,2.24 5,5 z"
         style="fill:#000000;fill-opacity:1;fill-rule:evenodd;stroke:#000000;stroke-width:1.00000003pt;stroke-opacity:1"
         transform="matrix(0.4,0,0,0.4,2.96,0.4)"
         inkscape:connector-curvature="0" />
    </marker>
    <inkscape:path-effect
       effect="spiro"
       id="path-effect1272"
       is_visible="true" />
    <inkscape:path-effect
       effect="spiro"
       id="path-effect1268"
       is_visible="true" />
    <inkscape:path-effect
       is_visible="true"
       id="path-effect1182"
       effect="spiro" />
    <marker
       inkscape:isstock="true"
       style="overflow:visible"
       id="DotM"
       refX="0"
       refY="0"
       orient="auto"
       inkscape:stockid="DotM">
      <path
         transform="matrix(0.4,0,0,0.4,2.96,0.4)"
         style="fill:#000000;fill-opacity:1;fill-rule:evenodd;stroke:#000000;stroke-width:1.00000003pt;stroke-opacity:1"
         d="m -2.5,-1 c 0,2.76 -2.24,5 -5,5 -2.76,0 -5,-2.24 -5,-5 0,-2.76 2.24,-5 5,-5 2.76,0 5,2.24 5,5 z"
         id="path980"
         inkscape:connector-curvature="0" />
    </marker>
    <inkscape:path-effect
       is_visible="true"
       id="path-effect914"
       effect="spiro" />
  </defs>
  <metadata
     id="metadata5">
    <rdf:RDF>
      <cc:Work
         rdf:about="">
        <dc:format>image/svg+xml</dc:format>
        <dc:type
           rdf:resource="http://purl.org/dc/dcmitype/StillImage" />
        <dc:title></dc:title>
      </cc:Work>
    </rdf:RDF>
  </metadata>
  <g
     inkscape:label="Layer 1"
     inkscape:groupmode="layer"
     id="layer1"
     transform="translate(-3.2283312,-88.80708)" />
  <g
     inkscape:label="Capacitor"
     transform="translate(22.468098,-113.32642)"
     id="g832"
     inkscape:export-xdpi="600"
     inkscape:export-ydpi="600">
    <g
       inkscape:label="Capacitor"
       id="g827">
      <path
         d="M 60,130 H 83"
         style="fill:none;stroke:#000000;stroke-width:1;stroke-linecap:round;stroke-linejoin:round;stroke-dasharray:none"
         inkscape:label="none"
         id="path819"
         inkscape:connector-curvature="0" />
      <path
         d="M 110,130 H 87"
         style="fill:none;stroke:#000000;stroke-width:1;stroke-linecap:round;stroke-linejoin:round;stroke-dasharray:none"
         inkscape:label="none"
         id="path821"
         inkscape:connector-curvature="0" />
      <path
         d="M 83,137 V 123"
         style="fill:none;stroke:#000000;stroke-width:1;stroke-linecap:round;stroke-linejoin:round;stroke-dasharray:none"
         inkscape:label="none"
         id="path823"
         inkscape:connector-curvature="0" />
      <path
         d="M 87,137 V 123"
         style="fill:none;stroke:#000000;stroke-width:1;stroke-linecap:round;stroke-linejoin:round;stroke-dasharray:none"
         inkscape:label="none"
         id="path825"
         inkscape:connector-curvature="0" />
    </g>
    <g
       id="content"
       xml:space="preserve"
       stroke-miterlimit="10.433"
       font-style="normal"
       font-variant="normal"
       font-weight="normal"
       font-stretch="normal"
       font-size-adjust="none"
       letter-spacing="normal"
       word-spacing="normal"
       ns0:text=" $C$"
       ns0:preamble="C:\\Program Files\\Inkscape\\share\\extensions/textextLib/CircuitSymbolsLatexPreamble.tex"
       transform="matrix(0.739645,0,0,-0.739645,-83.247048,641.61047)"
       style="font-style:normal;font-variant:normal;font-weight:normal;font-stretch:normal;letter-spacing:normal;word-spacing:normal;text-anchor:start;fill:none;fill-opacity:1;fill-rule:evenodd;stroke:#000000;stroke-linecap:butt;stroke-linejoin:miter;stroke-miterlimit:10.43299961;stroke-dasharray:none;stroke-dashoffset:0;stroke-opacity:1">
<path
   d="m 231.01,714.14 v 0 0.01 0 0 0.01 0 0 0.01 0 l -0.01,0.01 v 0 0 0.01 0 l -0.01,0.01 v 0 0 l -0.01,0.01 v 0 0 l -0.01,0.01 v 0 h -0.01 v 0.01 h -0.01 v 0 h -0.01 v 0 0 h -0.01 v 0 0.01 h -0.01 v 0 0 h -0.01 v 0 0 h -0.01 c -0.03,0 -0.04,-0.01 -0.15,-0.12 l -0.7,-0.77 c -0.09,0.14 -0.54,0.89 -1.65,0.89 -2.23,0 -4.47,-2.2 -4.47,-4.5 0,-1.64 1.18,-2.72 2.7,-2.72 0.87,0 1.63,0.39 2.16,0.85 0.92,0.81 1.09,1.72 1.09,1.75 0,0.1 -0.1,0.1 -0.12,0.1 -0.06,0 -0.11,-0.02 -0.13,-0.1 -0.09,-0.29 -0.31,-0.99 -1,-1.57 -0.69,-0.56 -1.32,-0.73 -1.84,-0.73 -0.89,0 -1.95,0.52 -1.95,2.07 0,0.57 0.21,2.18 1.2,3.34 0.61,0.7 1.55,1.2 2.44,1.2 1.01,0 1.6,-0.77 1.6,-1.92 0,-0.39 -0.03,-0.4 -0.03,-0.5 0,-0.1 0.11,-0.1 0.15,-0.1 0.13,0 0.13,0.02 0.18,0.2 z"
   style="fill:#000000;stroke-width:0"
   id="path829"
   inkscape:connector-curvature="0" />
</g>  </g>
  <g
     id="g866"
     transform="translate(-51.344402,-89.702913)"
     inkscape:label="Resistor"
     inkscape:export-xdpi="600"
     inkscape:export-ydpi="600">
    <g
       id="g860">
      <path
         id="path858"
         inkscape:label="none"
         style="fill:none;stroke:#000000;stroke-width:1;stroke-linecap:round;stroke-linejoin:round;stroke-dasharray:none"
         d="m 60,130 h 15.5 l 2,3 3,-6 3,6 3,-6 3,6 3,-6 2,3 H 110"
         inkscape:connector-curvature="0" />
    </g>
    <g
       transform="matrix(0.739645,0,0,-0.739645,-83.195273,646.61047)"
       ns0:preamble="C:\\Program Files\\Inkscape\\share\\extensions/textextLib/CircuitSymbolsLatexPreamble.tex"
       ns0:text=" $R$"
       word-spacing="normal"
       letter-spacing="normal"
       font-size-adjust="none"
       font-stretch="normal"
       font-weight="normal"
       font-variant="normal"
       font-style="normal"
       stroke-miterlimit="10.433"
       xml:space="preserve"
       id="g864"
       style="font-style:normal;font-variant:normal;font-weight:normal;font-stretch:normal;letter-spacing:normal;word-spacing:normal;text-anchor:start;fill:none;fill-opacity:1;fill-rule:evenodd;stroke:#000000;stroke-linecap:butt;stroke-linejoin:miter;stroke-miterlimit:10.43299961;stroke-dasharray:none;stroke-dashoffset:0;stroke-opacity:1">
<path
   id="path862"
   style="fill:#000000;stroke-width:0"
   d="m 228.61,710.61 0.09,0.02 0.1,0.03 0.09,0.03 0.1,0.03 0.1,0.03 0.09,0.03 0.1,0.04 0.1,0.04 0.09,0.05 0.09,0.04 0.09,0.05 0.09,0.05 0.09,0.05 0.09,0.06 0.08,0.06 0.08,0.06 0.08,0.06 0.07,0.06 0.08,0.07 0.06,0.07 0.07,0.07 0.06,0.07 0.05,0.08 0.05,0.08 0.05,0.08 0.03,0.08 0.04,0.08 0.03,0.09 0.02,0.09 0.02,0.09 0.01,0.09 v 0.09 c 0,0.85 -0.9,1.49 -2.2,1.49 h -2.84 c -0.2,0 -0.29,0 -0.29,-0.2 0,-0.11 0.09,-0.11 0.28,-0.11 0.01,0 0.21,0 0.38,-0.02 0.17,-0.02 0.26,-0.03 0.26,-0.16 0,-0.04 -0.01,-0.07 -0.04,-0.19 l -1.33,-5.33 c -0.1,-0.39 -0.12,-0.47 -0.91,-0.47 -0.18,0 -0.27,0 -0.27,-0.2 0,-0.11 0.12,-0.11 0.14,-0.11 0.28,0 0.98,0.04 1.26,0.04 0.28,0 0.98,-0.04 1.26,-0.04 0.08,0 0.2,0 0.2,0.2 0,0.11 -0.09,0.11 -0.28,0.11 -0.37,0 -0.65,0 -0.65,0.18 0,0.06 0.02,0.11 0.03,0.17 l 0.66,2.63 h 1.19 l -0.01,0.22 h -1.12 l 0.65,2.59 c 0.06,0.24 0.09,0.34 0.28,0.37 0.09,0.01 0.41,0.01 0.61,0.01 0.71,0 1.81,0 1.81,-0.98 0,-0.34 -0.16,-1.02 -0.55,-1.41 -0.25,-0.26 -0.78,-0.58 -1.68,-0.58 l 0.01,-0.22 c 0.91,0 1.09,-0.55 1.09,-0.9 0,-0.15 -0.08,-0.46 -0.14,-0.69 -0.07,-0.27 -0.16,-0.64 -0.16,-0.84 0,-1.07 1.19,-1.07 1.32,-1.07 0.85,0 1.2,1 1.2,1.14 0,0.12 -0.11,0.12 -0.12,0.12 -0.09,0 -0.11,-0.07 -0.13,-0.14 -0.25,-0.74 -0.68,-0.91 -0.91,-0.91 -0.32,0 -0.4,0.22 -0.4,0.61 0,0.31 0.06,0.82 0.11,1.13 0.01,0.14 0.03,0.33 0.03,0.47 0,0.77 -0.66,1.07 -0.93,1.17 z"
   inkscape:connector-curvature="0" />
</g>  </g>
  <g
     transform="translate(-10.031903,-59.702913)"
     inkscape:label="OpAmp"
     id="g884"
     inkscape:export-xdpi="600"
     inkscape:export-ydpi="600">
    <g
       inkscape:label="OpAmp"
       id="g882">
      <path
         inkscape:connector-curvature="0"
         d="m 135,110 -35,20 V 90 l 35,20"
         style="fill:none;stroke:#000000;stroke-width:1;stroke-linecap:round;stroke-linejoin:round;stroke-dasharray:none"
         inkscape:label="none"
         id="path868" />
      <path
         inkscape:connector-curvature="0"
         d="M 100,120 H 92.5"
         style="fill:none;stroke:#000000;stroke-width:1;stroke-linecap:round;stroke-linejoin:round;stroke-dasharray:none"
         inkscape:label="none"
         id="path870" />
      <path
         inkscape:connector-curvature="0"
         d="M 100,100 H 92.5"
         style="fill:none;stroke:#000000;stroke-width:1;stroke-linecap:round;stroke-linejoin:round;stroke-dasharray:none"
         inkscape:label="none"
         id="path872" />
      <path
         inkscape:connector-curvature="0"
         d="m 135,110 h 7.5"
         style="fill:none;stroke:#000000;stroke-width:1;stroke-linecap:round;stroke-linejoin:round;stroke-dasharray:none"
         inkscape:label="none"
         id="path874" />
      <path
         inkscape:connector-curvature="0"
         d="m 106,120 h -3"
         style="fill:none;stroke:#000000;stroke-width:0.69999999;stroke-linecap:round;stroke-linejoin:round;stroke-dasharray:none"
         inkscape:label="none"
         id="path876" />
      <path
         inkscape:connector-curvature="0"
         d="m 104.5,121.5 v -3"
         style="fill:none;stroke:#000000;stroke-width:0.69999999;stroke-linecap:round;stroke-linejoin:round;stroke-dasharray:none"
         inkscape:label="none"
         id="path878" />
      <path
         inkscape:connector-curvature="0"
         d="m 106,100 h -3"
         style="fill:none;stroke:#000000;stroke-width:0.69999999;stroke-linecap:round;stroke-linejoin:round;stroke-dasharray:none"
         inkscape:label="none"
         id="path880" />
    </g>
  </g>
  <path
     inkscape:original-d="M 82.468098,16.67357 V 40.29709"
     inkscape:path-effect="#path-effect914"
     inkscape:connector-curvature="0"
     id="path912"
     d="M 82.468098,16.67357 V 40.29709"
     style="fill:none;stroke:#000000;stroke-width:1;stroke-linecap:butt;stroke-linejoin:miter;stroke-miterlimit:4;stroke-dasharray:none;stroke-opacity:1;marker-end:url(#DotM)"
     inkscape:export-xdpi="600"
     inkscape:export-ydpi="600" />
  <path
     inkscape:original-d="M 132.4681,16.67357 V 49.82088"
     inkscape:path-effect="#path-effect1182"
     inkscape:connector-curvature="0"
     id="path1180"
     d="M 132.4681,16.67357 V 49.82088"
     style="fill:none;stroke:#000000;stroke-width:1;stroke-linecap:butt;stroke-linejoin:miter;stroke-miterlimit:4;stroke-dasharray:none;stroke-opacity:1"
     inkscape:export-xdpi="600"
     inkscape:export-ydpi="600" />
  <g
     id="g1226"
     transform="translate(-7.5319026,-69.308568)"
     inkscape:label="GND"
     inkscape:export-xdpi="600"
     inkscape:export-ydpi="600">
    <g
       id="g1224"
       inkscape:label="GND">
      <path
         id="path1216"
         inkscape:label="none"
         style="fill:none;stroke:#000000;stroke-width:1;stroke-linecap:round;stroke-linejoin:round;stroke-dasharray:none"
         d="m 90,140 v 10"
         inkscape:connector-curvature="0" />
      <path
         id="path1218"
         inkscape:label="none"
         style="fill:none;stroke:#000000;stroke-width:1;stroke-linecap:round;stroke-linejoin:round;stroke-dasharray:none"
         d="M 97,150 H 83"
         inkscape:connector-curvature="0" />
      <path
         id="path1220"
         inkscape:label="none"
         style="fill:none;stroke:#000000;stroke-width:1;stroke-linecap:round;stroke-linejoin:round;stroke-dasharray:none"
         d="m 93.5,152 h -7"
         inkscape:connector-curvature="0" />
      <path
         id="path1222"
         inkscape:label="none"
         style="fill:none;stroke:#000000;stroke-width:1;stroke-linecap:round;stroke-linejoin:round;stroke-dasharray:none"
         d="M 91,154 H 89"
         inkscape:connector-curvature="0" />
    </g>
  </g>
  <path
     style="fill:none;stroke:#000000;stroke-width:1;stroke-linecap:butt;stroke-linejoin:miter;stroke-miterlimit:4;stroke-dasharray:none;stroke-opacity:1"
     d="M 82.468096,70.69143 V 60.29709"
     id="path1266"
     inkscape:connector-curvature="0"
     inkscape:path-effect="#path-effect1268"
     inkscape:original-d="M 82.468096,70.69143 V 60.29709"
     inkscape:export-xdpi="600"
     inkscape:export-ydpi="600" />
  <path
     style="fill:none;stroke:#000000;stroke-width:1;stroke-linecap:butt;stroke-linejoin:miter;stroke-miterlimit:4;stroke-dasharray:none;stroke-opacity:1;marker-start:url(#marker1276)"
     d="m 132.4681,50.29708 h 10.39137"
     id="path1270"
     inkscape:connector-curvature="0"
     inkscape:path-effect="#path-effect1272"
     inkscape:original-d="m 132.4681,50.29708 h 10.39137"
     inkscape:export-xdpi="600"
     inkscape:export-ydpi="600" />
  <g
     inkscape:label="GND"
     transform="rotate(-180,49.371604,90.15124)"
     id="g1332"
     inkscape:export-xdpi="600"
     inkscape:export-ydpi="600">
    <g
       inkscape:label="GND"
       id="g1324">
      <circle
         r="1"
         cy="140"
         cx="90"
         style="fill:#000000;stroke:#000000;stroke-width:0.69999999;stroke-linecap:round;stroke-linejoin:round;stroke-dasharray:none"
         inkscape:label="circle"
         id="path1322" />
    </g>
    <g
       style="font-style:normal;font-variant:normal;font-weight:normal;font-stretch:normal;letter-spacing:normal;word-spacing:normal;text-anchor:start;fill:none;fill-opacity:1;fill-rule:evenodd;stroke:#000000;stroke-linecap:butt;stroke-linejoin:miter;stroke-miterlimit:10.43299961;stroke-dasharray:none;stroke-dashoffset:0;stroke-opacity:1"
       id="g1330"
       xml:space="preserve"
       stroke-miterlimit="10.433"
       font-style="normal"
       font-variant="normal"
       font-weight="normal"
       font-stretch="normal"
       font-size-adjust="none"
       letter-spacing="normal"
       word-spacing="normal"
       ns0:text=" $V_I$"
       ns0:preamble="C:\\Program Files\\Inkscape\\share\\extensions/textextLib/CircuitSymbolsLatexPreamble.tex"
       transform="matrix(-0.739645,0,0,0.739645,259.00149,-391.45466)">
<path
   inkscape:connector-curvature="0"
   d="m 229.7,712.89 0.04,0.07 0.05,0.06 0.04,0.07 0.04,0.05 0.05,0.06 0.04,0.05 0.05,0.05 0.04,0.04 0.04,0.04 0.04,0.04 0.04,0.03 0.05,0.03 0.04,0.03 0.04,0.03 0.04,0.02 0.04,0.02 0.04,0.02 0.04,0.02 0.04,0.01 0.03,0.02 0.04,0.01 0.04,0.01 0.04,0.01 h 0.03 l 0.04,0.01 h 0.04 l 0.07,0.01 0.07,0.01 h 0.07 c 0.12,0.01 0.13,0.18 0.13,0.19 0,0.08 -0.05,0.12 -0.13,0.12 -0.26,0 -0.55,-0.03 -0.82,-0.03 -0.33,0 -0.66,0.03 -0.98,0.03 -0.06,0 -0.19,0 -0.19,-0.19 0,-0.11 0.09,-0.12 0.16,-0.12 0.26,-0.02 0.46,-0.12 0.46,-0.33 0,-0.15 -0.15,-0.36 -0.15,-0.37 l -3.07,-4.85 -0.67,5.25 c 0,0.17 0.22,0.3 0.68,0.3 0.14,0 0.25,0 0.25,0.2 0,0.09 -0.08,0.11 -0.14,0.11 -0.4,0 -0.82,-0.03 -1.23,-0.03 -0.18,0 -0.37,0.01 -0.55,0.01 -0.18,0 -0.37,0.02 -0.54,0.02 -0.07,0 -0.19,0 -0.19,-0.19 0,-0.12 0.09,-0.12 0.25,-0.12 0.56,0 0.57,-0.09 0.6,-0.34 l 0.79,-6.13 c 0.03,-0.19 0.07,-0.22 0.19,-0.22 0.17,0 0.2,0.05 0.28,0.18 z"
   style="fill:#000000;stroke-width:0"
   id="path1326" />
<path
   inkscape:connector-curvature="0"
   d="m 232.13,709.94 0.01,0.02 v 0.02 l 0.01,0.02 v 0.02 l 0.01,0.02 0.01,0.02 v 0.01 l 0.01,0.02 0.01,0.01 v 0.01 l 0.01,0.02 0.01,0.01 0.01,0.01 0.01,0.01 0.02,0.01 0.01,0.01 0.01,0.01 h 0.02 l 0.02,0.01 0.02,0.01 h 0.02 l 0.01,0.01 h 0.01 0.02 0.01 0.01 l 0.02,0.01 h 0.01 0.02 0.01 0.02 0.02 0.01 l 0.02,0.01 h 0.02 0.02 0.02 0.02 0.02 0.02 0.03 0.02 0.02 c 0.18,0 0.26,0 0.26,0.15 0,0.06 -0.05,0.1 -0.11,0.1 -0.15,0 -0.32,-0.02 -0.47,-0.02 -0.15,0 -0.32,-0.01 -0.47,-0.01 0,0 -0.49,0.01 -0.49,0.01 -0.15,0 -0.32,0.02 -0.48,0.02 -0.04,0 -0.15,0 -0.15,-0.15 0,-0.1 0.08,-0.1 0.23,-0.1 0.01,0 0.15,0 0.27,-0.01 0.14,-0.02 0.19,-0.02 0.19,-0.1 0,-0.04 -0.02,-0.09 -0.03,-0.15 l -0.93,-3.69 c -0.05,-0.23 -0.07,-0.3 -0.6,-0.3 -0.19,0 -0.26,0 -0.26,-0.15 0,-0.01 0,-0.1 0.11,-0.1 0.21,0 0.74,0.03 0.95,0.03 l 0.48,-0.01 c 0.15,0 0.33,-0.02 0.48,-0.02 0.04,0 0.15,0 0.15,0.15 0,0.1 -0.09,0.1 -0.23,0.1 -0.01,0 -0.16,0 -0.29,0.02 -0.17,0.01 -0.17,0.04 -0.17,0.1 0,0.01 0,0.05 0.03,0.15 z"
   style="fill:#000000;stroke-width:0"
   id="path1328" />
</g>  </g>
  <g
     id="g1448"
     transform="rotate(-180,49.306583,100.24731)"
     inkscape:label="GND"
     inkscape:export-xdpi="600"
     inkscape:export-ydpi="600">
    <g
       id="g1436"
       inkscape:label="GND">
      <circle
         id="path1434"
         inkscape:label="circle"
         style="fill:#000000;stroke:#000000;stroke-width:0.69999999;stroke-linecap:round;stroke-linejoin:round;stroke-dasharray:none"
         cx="90"
         cy="140"
         r="1" />
    </g>
    <g
       transform="matrix(-0.739645,0,0,0.739645,264.28625,-391.45466)"
       ns0:preamble="C:\\Program Files\\Inkscape\\share\\extensions/textextLib/CircuitSymbolsLatexPreamble.tex"
       ns0:text=" $V_{REF}$"
       word-spacing="normal"
       letter-spacing="normal"
       font-size-adjust="none"
       font-stretch="normal"
       font-weight="normal"
       font-variant="normal"
       font-style="normal"
       stroke-miterlimit="10.433"
       xml:space="preserve"
       id="g1446"
       style="font-style:normal;font-variant:normal;font-weight:normal;font-stretch:normal;letter-spacing:normal;word-spacing:normal;text-anchor:start;fill:none;fill-opacity:1;fill-rule:evenodd;stroke:#000000;stroke-linecap:butt;stroke-linejoin:miter;stroke-miterlimit:10.43299961;stroke-dasharray:none;stroke-dashoffset:0;stroke-opacity:1">
<path
   id="path1438"
   style="fill:#000000;stroke-width:0"
   d="m 229.7,712.89 0.04,0.07 0.05,0.06 0.04,0.07 0.04,0.05 0.05,0.06 0.04,0.05 0.05,0.05 0.04,0.04 0.04,0.04 0.04,0.04 0.04,0.03 0.05,0.03 0.04,0.03 0.04,0.03 0.04,0.02 0.04,0.02 0.04,0.02 0.04,0.02 0.04,0.01 0.03,0.02 0.04,0.01 0.04,0.01 0.04,0.01 h 0.03 l 0.04,0.01 h 0.04 l 0.07,0.01 0.07,0.01 h 0.07 c 0.12,0.01 0.13,0.18 0.13,0.19 0,0.08 -0.05,0.12 -0.13,0.12 -0.26,0 -0.55,-0.03 -0.82,-0.03 -0.33,0 -0.66,0.03 -0.98,0.03 -0.06,0 -0.19,0 -0.19,-0.19 0,-0.11 0.09,-0.12 0.16,-0.12 0.26,-0.02 0.46,-0.12 0.46,-0.33 0,-0.15 -0.15,-0.36 -0.15,-0.37 l -3.07,-4.85 -0.67,5.25 c 0,0.17 0.22,0.3 0.68,0.3 0.14,0 0.25,0 0.25,0.2 0,0.09 -0.08,0.11 -0.14,0.11 -0.4,0 -0.82,-0.03 -1.23,-0.03 -0.18,0 -0.37,0.01 -0.55,0.01 -0.18,0 -0.37,0.02 -0.54,0.02 -0.07,0 -0.19,0 -0.19,-0.19 0,-0.12 0.09,-0.12 0.25,-0.12 0.56,0 0.57,-0.09 0.6,-0.34 l 0.79,-6.13 c 0.03,-0.19 0.07,-0.22 0.19,-0.22 0.17,0 0.2,0.05 0.28,0.18 z"
   inkscape:connector-curvature="0" />
<path
   id="path1440"
   style="fill:#000000;stroke-width:0"
   d="m 233.4,708.1 0.07,0.02 0.08,0.03 0.08,0.02 0.07,0.02 0.08,0.03 0.07,0.03 0.07,0.02 0.07,0.04 0.07,0.03 0.07,0.03 0.07,0.04 0.06,0.03 0.06,0.04 0.06,0.04 0.06,0.04 0.06,0.04 0.05,0.05 0.05,0.04 0.05,0.05 0.04,0.04 0.04,0.05 0.04,0.05 0.04,0.05 0.03,0.05 0.03,0.05 0.03,0.05 0.02,0.06 0.02,0.05 0.01,0.06 0.01,0.05 0.01,0.06 v 0.06 c 0,0.6 -0.71,1.07 -1.73,1.07 h -2.14 c -0.14,0 -0.23,0 -0.23,-0.15 0,-0.1 0.09,-0.1 0.23,-0.1 0,0 0.14,0 0.26,-0.01 0.15,-0.02 0.16,-0.03 0.16,-0.1 0,-0.02 0,-0.05 -0.03,-0.15 l -0.92,-3.7 c -0.06,-0.23 -0.07,-0.29 -0.62,-0.29 -0.12,0 -0.21,0 -0.21,-0.15 0,-0.06 0.05,-0.1 0.11,-0.1 0.14,0 0.3,0.02 0.44,0.02 0.13,0 0.33,0.01 0.46,0.01 0.14,0 0.3,-0.01 0.45,-0.01 0.14,0 0.32,-0.02 0.46,-0.02 0.04,0 0.15,0 0.15,0.15 0,0.1 -0.07,0.1 -0.23,0.1 -0.11,0 -0.14,0 -0.27,0.02 -0.15,0.02 -0.15,0.03 -0.15,0.1 0,0.01 0,0.05 0.03,0.15 l 0.44,1.76 h 0.95 l 0.01,0.2 h -0.91 l 0.45,1.78 c 0.05,0.2 0.07,0.22 0.22,0.24 h 0.45 c 0.65,0 1.45,0 1.45,-0.72 0,-0.28 -0.13,-0.72 -0.46,-0.97 -0.29,-0.22 -0.72,-0.33 -1.2,-0.33 l -0.01,-0.2 c 0.6,0 0.86,-0.3 0.86,-0.62 0,-0.09 -0.06,-0.33 -0.1,-0.49 -0.08,-0.32 -0.11,-0.43 -0.11,-0.54 0,-0.55 0.51,-0.77 1.03,-0.77 0.64,0 0.92,0.68 0.92,0.81 0,0.02 -0.01,0.1 -0.12,0.1 -0.09,0 -0.1,-0.05 -0.13,-0.12 -0.09,-0.31 -0.35,-0.59 -0.64,-0.59 -0.19,0 -0.32,0.07 -0.32,0.45 0,0.17 0.04,0.53 0.07,0.72 0.03,0.19 0.03,0.26 0.03,0.33 0,0.08 0,0.3 -0.2,0.51 -0.13,0.15 -0.32,0.24 -0.47,0.29 z"
   inkscape:connector-curvature="0" />
<path
   id="path1442"
   style="fill:#000000;stroke-width:0"
   d="m 240.82,707.35 v 0 0.01 0 h 0.01 v 0.01 0 0 0.01 0 0.01 h 0.01 v 0.01 0 0.01 h 0.01 v 0.01 0 0.01 0 0.01 0 h 0.01 v 0.01 0 0 0.01 0 0 0 0 0.01 0 0 0 0 0 0 c 0,0.04 -0.03,0.1 -0.12,0.1 -0.01,0 -0.05,0 -0.08,-0.03 -0.01,-0.01 -0.02,-0.02 -0.1,-0.2 -0.46,-1 -0.81,-1.35 -1.95,-1.35 h -1.19 c -0.22,0 -0.22,0.01 -0.22,0.07 0,0.01 0,0.04 0.02,0.15 l 0.47,1.86 h 0.79 c 0.55,0 0.63,-0.09 0.63,-0.32 0,-0.08 -0.02,-0.19 -0.05,-0.31 -0.02,-0.06 -0.02,-0.07 -0.02,-0.09 0,-0.01 0.01,-0.09 0.12,-0.09 0.1,0 0.11,0.03 0.13,0.15 l 0.39,1.52 c 0.02,0.09 0.02,0.1 0.02,0.11 0,0.07 -0.06,0.09 -0.12,0.09 -0.09,0 -0.1,-0.03 -0.14,-0.18 -0.15,-0.54 -0.36,-0.63 -0.95,-0.63 h -0.73 l 0.42,1.66 c 0.05,0.21 0.06,0.23 0.35,0.23 h 1.14 c 0.92,0 1.15,-0.19 1.15,-0.8 0,-0.19 -0.03,-0.39 -0.03,-0.43 0,-0.05 0.02,-0.12 0.12,-0.12 0.1,0 0.11,0.07 0.13,0.18 l 0.12,1.21 c 0.02,0.21 -0.03,0.21 -0.2,0.21 h -3.85 c -0.14,0 -0.22,0 -0.22,-0.15 0,-0.1 0.08,-0.1 0.23,-0.1 0.11,0 0.14,0 0.26,-0.01 0.14,-0.02 0.16,-0.03 0.16,-0.1 0,-0.05 -0.02,-0.12 -0.03,-0.15 l -0.91,-3.64 c -0.08,-0.27 -0.08,-0.32 -0.63,-0.32 -0.12,0 -0.21,0 -0.21,-0.15 0,-0.1 0.09,-0.1 0.21,-0.1 h 3.95 c 0.18,0 0.18,0 0.24,0.13 z"
   inkscape:connector-curvature="0" />
<path
   id="path1444"
   style="fill:#000000;stroke-width:0"
   d="m 243.9,707.98 h 0.75 c 0.53,0 0.62,-0.08 0.62,-0.31 0,-0.11 0,-0.12 -0.04,-0.32 -0.02,-0.04 -0.02,-0.06 -0.02,-0.08 0,-0.07 0.04,-0.1 0.11,-0.1 0.09,0 0.1,0.03 0.14,0.16 l 0.37,1.47 c 0.01,0.02 0.03,0.13 0.03,0.14 0,0.07 -0.05,0.1 -0.12,0.1 -0.09,0 -0.1,-0.04 -0.14,-0.16 -0.14,-0.54 -0.34,-0.65 -0.93,-0.65 h -0.7 l 0.44,1.75 c 0.05,0.21 0.06,0.23 0.35,0.23 h 1.07 c 0.93,0 1.11,-0.22 1.11,-0.8 0,-0.23 -0.03,-0.37 -0.03,-0.43 0,-0.05 0.02,-0.12 0.12,-0.12 0.1,0 0.11,0.07 0.12,0.18 l 0.13,1.21 c 0.02,0.21 -0.03,0.21 -0.2,0.21 h -3.73 c -0.14,0 -0.23,0 -0.23,-0.15 0,-0.1 0.09,-0.1 0.23,-0.1 0,0 0.14,0 0.26,-0.01 0.15,-0.02 0.16,-0.03 0.16,-0.1 0,-0.05 -0.02,-0.12 -0.03,-0.15 l -0.91,-3.64 c -0.07,-0.27 -0.08,-0.32 -0.62,-0.32 -0.12,0 -0.22,0 -0.22,-0.15 0,-0.06 0.05,-0.1 0.12,-0.1 0.2,0 0.72,0.03 0.92,0.03 l 0.54,-0.01 c 0.18,0 0.38,-0.02 0.55,-0.02 0.05,0 0.15,0 0.15,0.15 0,0.1 -0.08,0.1 -0.24,0.1 -0.01,0 -0.19,0 -0.36,0.02 -0.15,0.01 -0.22,0.02 -0.22,0.11 0,0.03 0,0.05 0.02,0.13 z"
   inkscape:connector-curvature="0" />
</g>  </g>
  <g
     inkscape:label="Resistor"
     transform="translate(-61.344402,-79.481187)"
     id="g1574"
     inkscape:export-xdpi="600"
     inkscape:export-ydpi="600">
    <g
       id="g1568">
      <path
         inkscape:connector-curvature="0"
         d="m 70,140 h 15.5 l 2,3 3,-6 3,6 3,-6 3,6 3,-6 2,3 H 120"
         style="fill:none;stroke:#000000;stroke-width:1;stroke-linecap:round;stroke-linejoin:round;stroke-dasharray:none"
         inkscape:label="none"
         id="path1566" />
    </g>
    <g
       style="font-style:normal;font-variant:normal;font-weight:normal;font-stretch:normal;letter-spacing:normal;word-spacing:normal;text-anchor:start;fill:none;fill-opacity:1;fill-rule:evenodd;stroke:#000000;stroke-linecap:butt;stroke-linejoin:miter;stroke-miterlimit:10.43299961;stroke-dasharray:none;stroke-dashoffset:0;stroke-opacity:1"
       id="g1572"
       xml:space="preserve"
       stroke-miterlimit="10.433"
       font-style="normal"
       font-variant="normal"
       font-weight="normal"
       font-stretch="normal"
       font-size-adjust="none"
       letter-spacing="normal"
       word-spacing="normal"
       ns0:text=" $R$"
       ns0:preamble="C:\\Program Files\\Inkscape\\share\\extensions/textextLib/CircuitSymbolsLatexPreamble.tex"
       transform="matrix(0.739645,0,0,-0.739645,-73.195273,656.61047)">
<path
   inkscape:connector-curvature="0"
   d="m 228.61,710.61 0.09,0.02 0.1,0.03 0.09,0.03 0.1,0.03 0.1,0.03 0.09,0.03 0.1,0.04 0.1,0.04 0.09,0.05 0.09,0.04 0.09,0.05 0.09,0.05 0.09,0.05 0.09,0.06 0.08,0.06 0.08,0.06 0.08,0.06 0.07,0.06 0.08,0.07 0.06,0.07 0.07,0.07 0.06,0.07 0.05,0.08 0.05,0.08 0.05,0.08 0.03,0.08 0.04,0.08 0.03,0.09 0.02,0.09 0.02,0.09 0.01,0.09 v 0.09 c 0,0.85 -0.9,1.49 -2.2,1.49 h -2.84 c -0.2,0 -0.29,0 -0.29,-0.2 0,-0.11 0.09,-0.11 0.28,-0.11 0.01,0 0.21,0 0.38,-0.02 0.17,-0.02 0.26,-0.03 0.26,-0.16 0,-0.04 -0.01,-0.07 -0.04,-0.19 l -1.33,-5.33 c -0.1,-0.39 -0.12,-0.47 -0.91,-0.47 -0.18,0 -0.27,0 -0.27,-0.2 0,-0.11 0.12,-0.11 0.14,-0.11 0.28,0 0.98,0.04 1.26,0.04 0.28,0 0.98,-0.04 1.26,-0.04 0.08,0 0.2,0 0.2,0.2 0,0.11 -0.09,0.11 -0.28,0.11 -0.37,0 -0.65,0 -0.65,0.18 0,0.06 0.02,0.11 0.03,0.17 l 0.66,2.63 h 1.19 l -0.01,0.22 h -1.12 l 0.65,2.59 c 0.06,0.24 0.09,0.34 0.28,0.37 0.09,0.01 0.41,0.01 0.61,0.01 0.71,0 1.81,0 1.81,-0.98 0,-0.34 -0.16,-1.02 -0.55,-1.41 -0.25,-0.26 -0.78,-0.58 -1.68,-0.58 l 0.01,-0.22 c 0.91,0 1.09,-0.55 1.09,-0.9 0,-0.15 -0.08,-0.46 -0.14,-0.69 -0.07,-0.27 -0.16,-0.64 -0.16,-0.84 0,-1.07 1.19,-1.07 1.32,-1.07 0.85,0 1.2,1 1.2,1.14 0,0.12 -0.11,0.12 -0.12,0.12 -0.09,0 -0.11,-0.07 -0.13,-0.14 -0.25,-0.74 -0.68,-0.91 -0.91,-0.91 -0.32,0 -0.4,0.22 -0.4,0.61 0,0.31 0.06,0.82 0.11,1.13 0.01,0.14 0.03,0.33 0.03,0.47 0,0.77 -0.66,1.07 -0.93,1.17 z"
   style="fill:#000000;stroke-width:0"
   id="path1570" />
</g>  </g>
  <path
     inkscape:original-d="M 58.655599,40.29709 H 82.468096"
     inkscape:path-effect="#path-effect1641"
     inkscape:connector-curvature="0"
     id="path1639"
     d="M 58.655599,40.29709 H 82.468096"
     style="fill:none;stroke:#000000;stroke-width:1;stroke-linecap:butt;stroke-linejoin:miter;stroke-miterlimit:4;stroke-dasharray:none;stroke-opacity:1"
     inkscape:export-xdpi="600"
     inkscape:export-ydpi="600" />
  <path
     inkscape:original-d="M 58.655599,60.51881 V 40.29709"
     inkscape:path-effect="#path-effect1645"
     inkscape:connector-curvature="0"
     id="path1643"
     d="M 58.655599,60.51881 V 40.29709"
     style="fill:none;stroke:#000000;stroke-width:1;stroke-linecap:butt;stroke-linejoin:miter;stroke-miterlimit:4;stroke-dasharray:none;stroke-opacity:1;marker-end:url(#marker1649)"
     inkscape:export-xdpi="600"
     inkscape:export-ydpi="600" />
  <g
     id="g1730"
     transform="rotate(-180,126.39876,95.1358)"
     inkscape:label="GND"
     inkscape:export-xdpi="600"
     inkscape:export-ydpi="600">
    <g
       id="g1722"
       inkscape:label="GND">
      <circle
         id="path1720"
         inkscape:label="circle"
         style="fill:#000000;stroke:#000000;stroke-width:0.69999999;stroke-linecap:round;stroke-linejoin:round;stroke-dasharray:none"
         cx="110"
         cy="140"
         r="1" />
    </g>
    <g
       transform="matrix(-0.739645,0,0,0.739645,279.75962,-391.45466)"
       ns0:preamble="C:\\Program Files\\Inkscape\\share\\extensions/textextLib/CircuitSymbolsLatexPreamble.tex"
       ns0:text=" $V_O$"
       word-spacing="normal"
       letter-spacing="normal"
       font-size-adjust="none"
       font-stretch="normal"
       font-weight="normal"
       font-variant="normal"
       font-style="normal"
       stroke-miterlimit="10.433"
       xml:space="preserve"
       id="g1728"
       style="font-style:normal;font-variant:normal;font-weight:normal;font-stretch:normal;letter-spacing:normal;word-spacing:normal;text-anchor:start;fill:none;fill-opacity:1;fill-rule:evenodd;stroke:#000000;stroke-linecap:butt;stroke-linejoin:miter;stroke-miterlimit:10.43299961;stroke-dasharray:none;stroke-dashoffset:0;stroke-opacity:1">
<path
   id="path1724"
   style="fill:#000000;stroke-width:0"
   d="m 229.7,712.89 0.04,0.07 0.05,0.06 0.04,0.07 0.04,0.05 0.05,0.06 0.04,0.05 0.05,0.05 0.04,0.04 0.04,0.04 0.04,0.04 0.04,0.03 0.05,0.03 0.04,0.03 0.04,0.03 0.04,0.02 0.04,0.02 0.04,0.02 0.04,0.02 0.04,0.01 0.03,0.02 0.04,0.01 0.04,0.01 0.04,0.01 h 0.03 l 0.04,0.01 h 0.04 l 0.07,0.01 0.07,0.01 h 0.07 c 0.12,0.01 0.13,0.18 0.13,0.19 0,0.08 -0.05,0.12 -0.13,0.12 -0.26,0 -0.55,-0.03 -0.82,-0.03 -0.33,0 -0.66,0.03 -0.98,0.03 -0.06,0 -0.19,0 -0.19,-0.19 0,-0.11 0.09,-0.12 0.16,-0.12 0.26,-0.02 0.46,-0.12 0.46,-0.33 0,-0.15 -0.15,-0.36 -0.15,-0.37 l -3.07,-4.85 -0.67,5.25 c 0,0.17 0.22,0.3 0.68,0.3 0.14,0 0.25,0 0.25,0.2 0,0.09 -0.08,0.11 -0.14,0.11 -0.4,0 -0.82,-0.03 -1.23,-0.03 -0.18,0 -0.37,0.01 -0.55,0.01 -0.18,0 -0.37,0.02 -0.54,0.02 -0.07,0 -0.19,0 -0.19,-0.19 0,-0.12 0.09,-0.12 0.25,-0.12 0.56,0 0.57,-0.09 0.6,-0.34 l 0.79,-6.13 c 0.03,-0.19 0.07,-0.22 0.19,-0.22 0.17,0 0.2,0.05 0.28,0.18 z"
   inkscape:connector-curvature="0" />
<path
   id="path1726"
   style="fill:#000000;stroke-width:0"
   d="m 235.04,708.7 v 0.1 l -0.01,0.1 -0.01,0.1 -0.02,0.09 -0.02,0.1 -0.02,0.09 -0.03,0.09 -0.03,0.09 -0.04,0.08 -0.04,0.09 -0.05,0.08 -0.05,0.08 -0.05,0.07 -0.05,0.08 -0.07,0.07 -0.06,0.06 -0.07,0.07 -0.07,0.06 -0.07,0.05 -0.08,0.06 -0.08,0.04 -0.09,0.05 -0.09,0.04 -0.09,0.04 -0.09,0.03 -0.1,0.03 -0.1,0.03 -0.1,0.02 -0.11,0.02 -0.11,0.01 -0.11,0.01 h -0.12 l -0.05,-0.22 c 0.72,0 1.39,-0.46 1.39,-1.47 0,-0.51 -0.21,-1.52 -0.86,-2.27 -0.49,-0.55 -1.13,-0.84 -1.67,-0.84 v 0 c -0.74,0 -1.37,0.5 -1.37,1.53 0,0.36 0.09,1.34 0.74,2.14 0.47,0.57 1.14,0.91 1.77,0.91 l 0.05,0.22 c -1.67,0 -3.28,-1.56 -3.28,-3.12 0,-1.12 0.83,-1.91 2.03,-1.91 1.67,0 3.28,1.52 3.28,3.1 z"
   inkscape:connector-curvature="0" />
</g>  </g>
</svg>
