<?xml version="1.0" encoding="UTF-8" standalone="no"?>
<!-- Created with Inkscape (http://www.inkscape.org/) -->

<svg
   xmlns:ns1="http://www.iki.fi/pav/software/textext/"
   xmlns:dc="http://purl.org/dc/elements/1.1/"
   xmlns:cc="http://creativecommons.org/ns#"
   xmlns:rdf="http://www.w3.org/1999/02/22-rdf-syntax-ns#"
   xmlns:svg="http://www.w3.org/2000/svg"
   xmlns="http://www.w3.org/2000/svg"
   xmlns:sodipodi="http://sodipodi.sourceforge.net/DTD/sodipodi-0.dtd"
   xmlns:inkscape="http://www.inkscape.org/namespaces/inkscape"
   width="85.599998mm"
   height="53.98mm"
   viewBox="0 0 85.599998 53.98"
   version="1.1"
   id="svg8"
   inkscape:version="0.92.3 (2405546, 2018-03-11)"
   sodipodi:docname="triangular.svg">
  <sodipodi:namedview
     id="base"
     pagecolor="#ffffff"
     bordercolor="#666666"
     borderopacity="1.0"
     inkscape:pageopacity="0.0"
     inkscape:pageshadow="2"
     inkscape:zoom="2"
     inkscape:cx="243.05844"
     inkscape:cy="155.99644"
     inkscape:document-units="mm"
     inkscape:current-layer="g4240"
     showgrid="false"
     inkscape:window-width="1920"
     inkscape:window-height="986"
     inkscape:window-x="-11"
     inkscape:window-y="-11"
     inkscape:window-maximized="1"
     units="mm" />
  <defs
     id="defs2">
    <marker
       inkscape:isstock="true"
       style="overflow:visible"
       id="marker1934"
       refX="0"
       refY="0"
       orient="auto"
       inkscape:stockid="Arrow1Sstart">
      <path
         transform="matrix(0.2,0,0,0.2,1.2,0)"
         style="fill:#00b000;fill-opacity:1;fill-rule:evenodd;stroke:#00b000;stroke-width:1.00000003pt;stroke-opacity:1"
         d="M 0,0 5,-5 -12.5,0 5,5 Z"
         id="path1932"
         inkscape:connector-curvature="0" />
    </marker>
    <marker
       inkscape:isstock="true"
       style="overflow:visible"
       id="Arrow1Sstart"
       refX="0"
       refY="0"
       orient="auto"
       inkscape:stockid="Arrow1Sstart">
      <path
         transform="matrix(0.2,0,0,0.2,1.2,0)"
         style="fill:#000000;fill-opacity:1;fill-rule:evenodd;stroke:#000000;stroke-width:1.00000003pt;stroke-opacity:1"
         d="M 0,0 5,-5 -12.5,0 5,5 Z"
         id="path852"
         inkscape:connector-curvature="0" />
    </marker>
    <marker
       inkscape:isstock="true"
       style="overflow:visible"
       id="marker1802"
       refX="0"
       refY="0"
       orient="auto"
       inkscape:stockid="Arrow2Send">
      <path
         transform="matrix(-0.3,0,0,-0.3,0.69,0)"
         d="M 8.7185878,4.0337352 -2.2072895,0.01601326 8.7185884,-4.0017078 c -1.7454984,2.3720609 -1.7354408,5.6174519 -6e-7,8.035443 z"
         style="fill:#00b000;fill-opacity:1;fill-rule:evenodd;stroke:#00b000;stroke-width:0.625;stroke-linejoin:round;stroke-opacity:1"
         id="path1800"
         inkscape:connector-curvature="0" />
    </marker>
    <marker
       inkscape:isstock="true"
       style="overflow:visible"
       id="Arrow1Send"
       refX="0"
       refY="0"
       orient="auto"
       inkscape:stockid="Arrow1Send">
      <path
         transform="matrix(-0.2,0,0,-0.2,-1.2,0)"
         style="fill:#000000;fill-opacity:1;fill-rule:evenodd;stroke:#000000;stroke-width:1.00000003pt;stroke-opacity:1"
         d="M 0,0 5,-5 -12.5,0 5,5 Z"
         id="path855"
         inkscape:connector-curvature="0" />
    </marker>
    <marker
       inkscape:isstock="true"
       style="overflow:visible"
       id="marker1676"
       refX="0"
       refY="0"
       orient="auto"
       inkscape:stockid="Arrow2Send">
      <path
         transform="matrix(-0.3,0,0,-0.3,0.69,0)"
         d="M 8.7185878,4.0337352 -2.2072895,0.01601326 8.7185884,-4.0017078 c -1.7454984,2.3720609 -1.7354408,5.6174519 -6e-7,8.035443 z"
         style="fill:#000000;fill-opacity:1;fill-rule:evenodd;stroke:#000000;stroke-width:0.625;stroke-linejoin:round;stroke-opacity:1"
         id="path1674"
         inkscape:connector-curvature="0" />
    </marker>
    <marker
       inkscape:isstock="true"
       style="overflow:visible"
       id="Arrow2Send"
       refX="0"
       refY="0"
       orient="auto"
       inkscape:stockid="Arrow2Send">
      <path
         transform="matrix(-0.3,0,0,-0.3,0.69,0)"
         d="M 8.7185878,4.0337352 -2.2072895,0.01601326 8.7185884,-4.0017078 c -1.7454984,2.3720609 -1.7354408,5.6174519 -6e-7,8.035443 z"
         style="fill:#000000;fill-opacity:1;fill-rule:evenodd;stroke:#000000;stroke-width:0.625;stroke-linejoin:round;stroke-opacity:1"
         id="path873"
         inkscape:connector-curvature="0" />
    </marker>
    <marker
       inkscape:isstock="true"
       style="overflow:visible"
       id="Arrow1Mend"
       refX="0"
       refY="0"
       orient="auto"
       inkscape:stockid="Arrow1Mend">
      <path
         transform="matrix(-0.4,0,0,-0.4,-4,0)"
         style="fill:#000000;fill-opacity:1;fill-rule:evenodd;stroke:#000000;stroke-width:1.00000003pt;stroke-opacity:1"
         d="M 0,0 5,-5 -12.5,0 5,5 Z"
         id="path849"
         inkscape:connector-curvature="0" />
    </marker>
    <marker
       inkscape:isstock="true"
       style="overflow:visible"
       id="TriangleInS"
       refX="0"
       refY="0"
       orient="auto"
       inkscape:stockid="TriangleInS">
      <path
         transform="scale(-0.2)"
         style="fill:#000000;fill-opacity:1;fill-rule:evenodd;stroke:#000000;stroke-width:1.00000003pt;stroke-opacity:1"
         d="M 5.77,0 -2.88,5 V -5 Z"
         id="path979"
         inkscape:connector-curvature="0" />
    </marker>
  </defs>
  <metadata
     id="metadata5">
    <rdf:RDF>
      <cc:Work
         rdf:about="">
        <dc:format>image/svg+xml</dc:format>
        <dc:type
           rdf:resource="http://purl.org/dc/dcmitype/StillImage" />
        <dc:title></dc:title>
      </cc:Work>
    </rdf:RDF>
  </metadata>
  <g
     id="layer1"
     inkscape:groupmode="layer"
     inkscape:label="Capa 1"
     transform="translate(0,-243.02001)">
    <path
       sodipodi:nodetypes="cccc"
       inkscape:connector-curvature="0"
       id="path815"
       d="m 11.83644,285.42432 18.475732,-18.47573 3.833247,-3.83324 21.987357,21.98735"
       style="fill:none;stroke:#0000ff;stroke-width:0.46311429px;stroke-linecap:butt;stroke-linejoin:miter;stroke-opacity:1" />
    <path
       inkscape:connector-curvature="0"
       id="path815-3"
       d="m 56.132776,285.1027 22.308979,-22.30897 6.116689,6.11668 v 0"
       style="fill:none;stroke:#0000ff;stroke-width:0.46311429px;stroke-linecap:butt;stroke-linejoin:miter;stroke-opacity:1"
       sodipodi:nodetypes="cccc" />
    <path
       inkscape:connector-curvature="0"
       id="path832"
       d="m 11.224564,274.23368 h 73.02321"
       style="fill:none;stroke:#000000;stroke-width:0.46311429px;stroke-linecap:butt;stroke-linejoin:miter;stroke-opacity:1"
       sodipodi:nodetypes="cc" />
    <path
       sodipodi:nodetypes="cc"
       inkscape:connector-curvature="0"
       id="path834"
       d="m 11.543128,257.15349 v 17.03285"
       style="fill:none;stroke:#000000;stroke-width:0.34872347px;stroke-linecap:butt;stroke-linejoin:miter;stroke-opacity:1" />
    <path
       sodipodi:nodetypes="cc"
       inkscape:connector-curvature="0"
       id="path836"
       d="M 34.145419,263.11535 V 290.6169"
       style="fill:none;stroke:#00b300;stroke-width:0.46384358;stroke-linecap:butt;stroke-linejoin:miter;stroke-miterlimit:4;stroke-dasharray:1.39153087, 1.39153087;stroke-dashoffset:0;stroke-opacity:1" />
    <path
       sodipodi:nodetypes="cc"
       inkscape:connector-curvature="0"
       id="path838"
       d="m 12.735621,290.12905 20.791195,-0.0292"
       style="fill:none;stroke:#00b000;stroke-width:0.53027081;stroke-linecap:butt;stroke-linejoin:miter;stroke-miterlimit:4;stroke-dasharray:none;stroke-opacity:1;marker-start:url(#marker1934);marker-end:url(#marker1802)" />
    <g
       transform="matrix(0.4637742,0,0,0.4637742,-55.211834,224.83789)"
       ns1:version="0.9.1"
       ns1:texconverter="pdflatex"
       ns1:pdfconverter="pdf2svg"
       ns1:text="$\\Delta_{T}=T/2$"
       ns1:preamble="C:\\Users\\joa-m\\AppData\\Roaming\\inkscape\\extensions\\textext\\default_packages.tex"
       ns1:scale="2.83464566935"
       ns1:alignment="middle center"
       ns1:jacobian_sqrt="1.0"
       id="g2145"
       style="fill:#00ad00;fill-opacity:1;stroke:#00aa00;stroke-opacity:1">
      <g
         id="g2238"
         ns1:jacobian_sqrt="1.0"
         ns1:alignment="middle center"
         ns1:scale="2.83464566935"
         ns1:preamble="C:\\Users\\joa-m\\AppData\\Roaming\\inkscape\\extensions\\textext\\default_packages.tex"
         ns1:text="$\\frac{T}{2}$"
         ns1:pdfconverter="pdf2svg"
         ns1:texconverter="pdflatex"
         ns1:version="0.9.1"
         transform="translate(15.835417,-0.4704796)"
         style="fill:#00ad00;fill-opacity:1;stroke:#00aa00;stroke-opacity:1">
        <g
           id="g2236"
           style="fill:#00ad00;fill-opacity:1;stroke:#00aa00;stroke-opacity:1">
          <g
             id="g2228"
             style="fill:#00ad00;fill-opacity:1;stroke:#00aa00;stroke-opacity:1">
            <path
               id="path2226"
               transform="translate(149.908,130.842)"
               d="m 3.390625,-4.21875 c 0.046875,-0.203125 0.0625,-0.21875 0.21875,-0.234375 0.03125,0 0.265625,0 0.40625,0 0.4375,0 0.609375,0 0.78125,0.046875 0.3125,0.09375 0.328125,0.296875 0.328125,0.546875 0,0.109375 0,0.203125 -0.046875,0.5625 L 5.0625,-3.21875 c 0,0.078125 0.046875,0.109375 0.125,0.109375 0.109375,0 0.109375,-0.0625 0.125,-0.171875 L 5.5,-4.609375 c 0,-0.09375 -0.078125,-0.09375 -0.203125,-0.09375 h -4.28125 c -0.171875,0 -0.1875,0 -0.234375,0.140625 l -0.453125,1.234375 c 0,0.03125 -0.03125,0.09375 -0.03125,0.125 0,0.03125 0.015625,0.09375 0.125,0.09375 0.09375,0 0.09375,-0.03125 0.140625,-0.171875 0.40625,-1.109375 0.640625,-1.171875 1.703125,-1.171875 h 0.28125 c 0.21875,0 0.21875,0 0.21875,0.0625 0,0 0,0.046875 -0.03125,0.140625 L 1.8125,-0.578125 C 1.75,-0.328125 1.734375,-0.25 1,-0.25 c -0.25,0 -0.3125,0 -0.3125,0.15625 C 0.6875,-0.078125 0.703125,0 0.8125,0 1,0 1.21875,-0.015625 1.40625,-0.015625 1.609375,-0.015625 1.8125,-0.03125 2,-0.03125 c 0.203125,0 0.4375,0 0.640625,0.015625 C 2.828125,-0.015625 3.03125,0 3.21875,0 3.28125,0 3.375,0 3.375,-0.15625 3.375,-0.25 3.3125,-0.25 3.09375,-0.25 c -0.125,0 -0.265625,-0.015625 -0.40625,-0.015625 -0.234375,-0.015625 -0.25,-0.046875 -0.25,-0.125 0,-0.0625 0,-0.0625 0.03125,-0.171875 z m 0,0"
               style="fill:#00ad00;fill-opacity:1;stroke:#00aa00;stroke-width:0;stroke-opacity:1"
               inkscape:connector-curvature="0" />
          </g>
          <path
             id="path2230"
             transform="matrix(1,0,0,-1,149.908,132.274)"
             d="M -0.00175,5.625e-4 H 5.7795"
             style="fill:#00ad00;fill-opacity:1;stroke:#00aa00;stroke-width:0.398;stroke-linecap:butt;stroke-linejoin:miter;stroke-miterlimit:10;stroke-opacity:1"
             inkscape:connector-curvature="0" />
          <g
             id="g2234"
             style="fill:#00ad00;fill-opacity:1;stroke:#00aa00;stroke-opacity:1">
            <path
               id="path2232"
               transform="translate(150.811,138.2)"
               d="M 3.515625,-1.265625 H 3.28125 c -0.015625,0.15625 -0.09375,0.5625 -0.1875,0.625 C 3.046875,-0.59375 2.515625,-0.59375 2.40625,-0.59375 H 1.125 c 0.734375,-0.640625 0.984375,-0.84375 1.390625,-1.171875 0.515625,-0.40625 1,-0.84375 1,-1.5 0,-0.84375 -0.734375,-1.359375 -1.625,-1.359375 -0.859375,0 -1.453125,0.609375 -1.453125,1.25 0,0.34375 0.296875,0.390625 0.375,0.390625 0.15625,0 0.359375,-0.125 0.359375,-0.375 0,-0.125 -0.046875,-0.375 -0.40625,-0.375 C 0.984375,-4.21875 1.453125,-4.375 1.78125,-4.375 c 0.703125,0 1.0625,0.546875 1.0625,1.109375 0,0.609375 -0.4375,1.078125 -0.65625,1.328125 L 0.515625,-0.265625 C 0.4375,-0.203125 0.4375,-0.1875 0.4375,0 h 2.875 z m 0,0"
               style="fill:#00ad00;fill-opacity:1;stroke:#00aa00;stroke-width:0;stroke-opacity:1"
               inkscape:connector-curvature="0" />
          </g>
        </g>
      </g>
    </g>
    <path
       sodipodi:nodetypes="cc"
       inkscape:connector-curvature="0"
       id="path834-7"
       d="m 11.543128,274.18634 v 16.63924"
       style="fill:none;stroke:#00b100;stroke-width:0.47470275;stroke-linecap:butt;stroke-linejoin:miter;stroke-miterlimit:4;stroke-dasharray:1.42410824, 1.42410824;stroke-dashoffset:0;stroke-opacity:1" />
    <path
       style="fill:none;stroke:#ff0000;stroke-width:0.46384358;stroke-linecap:butt;stroke-linejoin:miter;stroke-miterlimit:4;stroke-dasharray:1.39153087, 1.39153087;stroke-dashoffset:0;stroke-opacity:1"
       d="M 34.145419,263.11535 H 11.63806"
       id="path3252"
       inkscape:connector-curvature="0" />
    <g
       id="g3438"
       ns1:jacobian_sqrt="0.231508"
       ns1:alignment="middle center"
       ns1:scale="0.656244113399"
       ns1:preamble="C:\\Users\\joa-m\\AppData\\Roaming\\inkscape\\extensions\\textext\\default_packages.tex"
       ns1:text="$V_{Z}\\frac{R_{2}}{R_{3}}$"
       ns1:pdfconverter="pdf2svg"
       ns1:texconverter="pdflatex"
       ns1:version="0.9.1"
       transform="matrix(0.40522079,0,0,0.40522079,-59.705467,208.91046)"
       style="stroke:#000000;stroke-opacity:1">
      <g
         id="surface1"
         style="fill:#ff0000;fill-opacity:1;stroke:#ff0000;stroke-opacity:1">
        <g
           id="g3413"
           style="fill:#ff0000;fill-opacity:1;stroke:#ff0000;stroke-opacity:1">
          <path
             id="path3411"
             transform="translate(148.712,134.765)"
             d="M 6.265625,-5.671875 C 6.75,-6.453125 7.171875,-6.484375 7.53125,-6.5 c 0.125,-0.015625 0.140625,-0.171875 0.140625,-0.1875 0,-0.078125 -0.0625,-0.125 -0.140625,-0.125 -0.25,0 -0.546875,0.03125 -0.8125,0.03125 -0.328125,0 -0.671875,-0.03125 -0.984375,-0.03125 -0.0625,0 -0.1875,0 -0.1875,0.1875 0,0.109375 0.078125,0.125 0.15625,0.125 0.265625,0.015625 0.453125,0.125 0.453125,0.328125 0,0.15625 -0.140625,0.375 -0.140625,0.375 l -3.0625,4.875 -0.6875,-5.28125 C 2.265625,-6.375 2.5,-6.5 2.953125,-6.5 c 0.140625,0 0.25,0 0.25,-0.203125 0,-0.078125 -0.078125,-0.109375 -0.125,-0.109375 -0.40625,0 -0.828125,0.03125 -1.25,0.03125 -0.171875,0 -0.359375,0 -0.546875,0 -0.171875,0 -0.359375,-0.03125 -0.53125,-0.03125 -0.078125,0 -0.1875,0 -0.1875,0.1875 0,0.125 0.078125,0.125 0.25,0.125 0.546875,0 0.5625,0.09375 0.59375,0.34375 L 2.1875,-0.015625 C 2.21875,0.1875 2.265625,0.21875 2.390625,0.21875 c 0.15625,0 0.203125,-0.046875 0.28125,-0.171875 z m 0,0"
             style="fill:#ff0000;fill-opacity:1;stroke:#ff0000;stroke-width:0;stroke-opacity:1"
             inkscape:connector-curvature="0" />
        </g>
        <g
           id="g3417"
           style="fill:#ff0000;fill-opacity:1;stroke:#ff0000;stroke-opacity:1">
          <path
             id="path3415"
             transform="translate(154.524,136.259)"
             d="m 5.453125,-4.484375 c 0.0625,-0.0625 0.09375,-0.109375 0.09375,-0.203125 0,-0.078125 -0.046875,-0.078125 -0.1875,-0.078125 h -3.25 C 1.9375,-4.765625 1.921875,-4.75 1.875,-4.625 L 1.484375,-3.359375 C 1.46875,-3.28125 1.46875,-3.28125 1.46875,-3.25 c 0,0.03125 0.015625,0.09375 0.109375,0.09375 0.09375,0 0.109375,-0.046875 0.125,-0.109375 0.34375,-0.984375 0.875,-1.25 1.78125,-1.25 h 1.25 L 0.671875,-0.3125 C 0.625,-0.265625 0.5625,-0.1875 0.5625,-0.078125 0.5625,0 0.625,0 0.75,0 h 3.375 c 0.171875,0 0.1875,0 0.21875,-0.140625 l 0.5,-1.546875 C 4.875,-1.78125 4.875,-1.796875 4.875,-1.8125 c 0,0 0,-0.09375 -0.109375,-0.09375 -0.09375,0 -0.109375,0.03125 -0.15625,0.1875 -0.3125,0.953125 -0.671875,1.4375 -1.890625,1.4375 H 1.390625 Z m 0,0"
             style="fill:#ff0000;fill-opacity:1;stroke:#ff0000;stroke-width:0;stroke-opacity:1"
             inkscape:connector-curvature="0" />
        </g>
        <g
           id="g3421"
           style="fill:#ff0000;fill-opacity:1;stroke:#ff0000;stroke-opacity:1">
          <path
             id="path3419"
             transform="translate(162.134,130.68)"
             d="m 2.875,-4.265625 c 0.046875,-0.203125 0.0625,-0.21875 0.21875,-0.25 h 0.453125 c 0.640625,0 1.4375,0 1.4375,0.71875 0,0.296875 -0.125,0.734375 -0.453125,0.984375 C 4.25,-2.59375 3.8125,-2.484375 3.328125,-2.484375 H 2.4375 Z M 4.140625,-2.375 c 0.828125,-0.1875 1.5625,-0.6875 1.5625,-1.3125 0,-0.59375 -0.703125,-1.078125 -1.71875,-1.078125 H 1.84375 c -0.125,0 -0.21875,0 -0.21875,0.15625 0,0.09375 0.078125,0.09375 0.21875,0.09375 0.015625,0 0.140625,0 0.265625,0.015625 0.15625,0.015625 0.15625,0.03125 0.15625,0.109375 0,0 0,0.046875 -0.015625,0.140625 L 1.3125,-0.546875 C 1.265625,-0.3125 1.25,-0.25 0.703125,-0.25 0.578125,-0.25 0.5,-0.25 0.5,-0.109375 0.5,-0.03125 0.546875,0 0.609375,0 c 0.125,0 0.296875,-0.015625 0.421875,-0.015625 0.140625,0 0.34375,-0.015625 0.46875,-0.015625 0.140625,0 0.296875,0.015625 0.4375,0.015625 C 2.09375,-0.015625 2.265625,0 2.40625,0 2.453125,0 2.5625,0 2.5625,-0.140625 2.5625,-0.25 2.484375,-0.25 2.328125,-0.25 2.21875,-0.25 2.1875,-0.25 2.0625,-0.265625 1.90625,-0.28125 1.90625,-0.296875 1.90625,-0.375 c 0,0 0,-0.046875 0.03125,-0.140625 L 2.375,-2.28125 h 0.953125 c 0.59375,0 0.859375,0.296875 0.859375,0.625 0,0.09375 -0.0625,0.328125 -0.109375,0.484375 C 4,-0.84375 3.96875,-0.75 3.96875,-0.625 c 0,0.546875 0.515625,0.765625 1.03125,0.765625 0.640625,0 0.921875,-0.6875 0.921875,-0.8125 0,-0.015625 -0.015625,-0.09375 -0.125,-0.09375 -0.09375,0 -0.109375,0.046875 -0.125,0.125 C 5.578125,-0.34375 5.3125,-0.0625 5.03125,-0.0625 c -0.1875,0 -0.328125,-0.0625 -0.328125,-0.453125 0,-0.171875 0.046875,-0.53125 0.078125,-0.71875 0.03125,-0.1875 0.03125,-0.25 0.03125,-0.328125 0,-0.078125 0,-0.3125 -0.203125,-0.515625 C 4.484375,-2.21875 4.296875,-2.3125 4.140625,-2.375 Z m 0,0"
             style="fill:#ff0000;fill-opacity:1;stroke:#ff0000;stroke-width:0;stroke-opacity:1"
             inkscape:connector-curvature="0" />
        </g>
        <g
           id="g3425"
           style="fill:#ff0000;fill-opacity:1;stroke:#ff0000;stroke-opacity:1">
          <path
             id="path3423"
             transform="translate(168.136,131.676)"
             d="M 2.9375,-0.96875 H 2.71875 c 0,0.09375 -0.0625,0.40625 -0.140625,0.453125 -0.03125,0.03125 -0.453125,0.03125 -0.53125,0.03125 H 1.078125 C 1.40625,-0.71875 1.765625,-1 2.0625,-1.203125 c 0.453125,-0.3125 0.875,-0.59375 0.875,-1.125 0,-0.640625 -0.609375,-0.984375 -1.3125,-0.984375 -0.671875,0 -1.171875,0.375 -1.171875,0.875 0,0.25 0.21875,0.296875 0.296875,0.296875 0.125,0 0.28125,-0.09375 0.28125,-0.296875 0,-0.171875 -0.125,-0.28125 -0.28125,-0.28125 0.140625,-0.234375 0.4375,-0.375 0.765625,-0.375 0.484375,0 0.890625,0.28125 0.890625,0.765625 0,0.421875 -0.296875,0.75 -0.671875,1.0625 l -1.21875,1.03125 C 0.46875,-0.1875 0.453125,-0.1875 0.453125,-0.15625 V 0 h 2.3125 z m 0,0"
             style="fill:#ff0000;fill-opacity:1;stroke:#ff0000;stroke-width:0;stroke-opacity:1"
             inkscape:connector-curvature="0" />
        </g>
        <path
           id="path3427"
           transform="matrix(1,0,0,-1,162.134,132.274)"
           d="M -0.0011875,5.625e-4 H 9.889438"
           style="fill:#ff0000;fill-opacity:1;stroke:#ff0000;stroke-width:0.398;stroke-linecap:butt;stroke-linejoin:miter;stroke-miterlimit:10;stroke-opacity:1"
           inkscape:connector-curvature="0" />
        <g
           id="g3431"
           style="fill:#ff0000;fill-opacity:1;stroke:#ff0000;stroke-opacity:1">
          <path
             id="path3429"
             transform="translate(162.134,138.2)"
             d="m 2.875,-4.265625 c 0.046875,-0.203125 0.0625,-0.21875 0.21875,-0.25 h 0.453125 c 0.640625,0 1.4375,0 1.4375,0.71875 0,0.296875 -0.125,0.734375 -0.453125,0.984375 C 4.25,-2.59375 3.8125,-2.484375 3.328125,-2.484375 H 2.4375 Z M 4.140625,-2.375 c 0.828125,-0.1875 1.5625,-0.6875 1.5625,-1.3125 0,-0.59375 -0.703125,-1.078125 -1.71875,-1.078125 H 1.84375 c -0.125,0 -0.21875,0 -0.21875,0.15625 0,0.09375 0.078125,0.09375 0.21875,0.09375 0.015625,0 0.140625,0 0.265625,0.015625 0.15625,0.015625 0.15625,0.03125 0.15625,0.109375 0,0 0,0.046875 -0.015625,0.140625 L 1.3125,-0.546875 C 1.265625,-0.3125 1.25,-0.25 0.703125,-0.25 0.578125,-0.25 0.5,-0.25 0.5,-0.109375 0.5,-0.03125 0.546875,0 0.609375,0 c 0.125,0 0.296875,-0.015625 0.421875,-0.015625 0.140625,0 0.34375,-0.015625 0.46875,-0.015625 0.140625,0 0.296875,0.015625 0.4375,0.015625 C 2.09375,-0.015625 2.265625,0 2.40625,0 2.453125,0 2.5625,0 2.5625,-0.140625 2.5625,-0.25 2.484375,-0.25 2.328125,-0.25 2.21875,-0.25 2.1875,-0.25 2.0625,-0.265625 1.90625,-0.28125 1.90625,-0.296875 1.90625,-0.375 c 0,0 0,-0.046875 0.03125,-0.140625 L 2.375,-2.28125 h 0.953125 c 0.59375,0 0.859375,0.296875 0.859375,0.625 0,0.09375 -0.0625,0.328125 -0.109375,0.484375 C 4,-0.84375 3.96875,-0.75 3.96875,-0.625 c 0,0.546875 0.515625,0.765625 1.03125,0.765625 0.640625,0 0.921875,-0.6875 0.921875,-0.8125 0,-0.015625 -0.015625,-0.09375 -0.125,-0.09375 -0.09375,0 -0.109375,0.046875 -0.125,0.125 C 5.578125,-0.34375 5.3125,-0.0625 5.03125,-0.0625 c -0.1875,0 -0.328125,-0.0625 -0.328125,-0.453125 0,-0.171875 0.046875,-0.53125 0.078125,-0.71875 0.03125,-0.1875 0.03125,-0.25 0.03125,-0.328125 0,-0.078125 0,-0.3125 -0.203125,-0.515625 C 4.484375,-2.21875 4.296875,-2.3125 4.140625,-2.375 Z m 0,0"
             style="fill:#ff0000;fill-opacity:1;stroke:#ff0000;stroke-width:0;stroke-opacity:1"
             inkscape:connector-curvature="0" />
        </g>
        <g
           id="g3435"
           style="fill:#ff0000;fill-opacity:1;stroke:#ff0000;stroke-opacity:1">
          <path
             id="path3433"
             transform="translate(168.136,139.196)"
             d="m 1.640625,-1.65625 c 0.46875,0 0.765625,0.296875 0.765625,0.78125 0,0.515625 -0.3125,0.78125 -0.75,0.78125 -0.0625,0 -0.65625,0 -0.90625,-0.265625 0.203125,-0.03125 0.265625,-0.171875 0.265625,-0.296875 0,-0.1875 -0.140625,-0.3125 -0.3125,-0.3125 -0.15625,0 -0.296875,0.109375 -0.296875,0.328125 0,0.515625 0.578125,0.75 1.265625,0.75 0.8125,0 1.3125,-0.5 1.3125,-0.984375 0,-0.40625 -0.359375,-0.75 -0.921875,-0.875 0.59375,-0.203125 0.75,-0.578125 0.75,-0.859375 0,-0.40625 -0.5,-0.703125 -1.125,-0.703125 -0.625,0 -1.109375,0.25 -1.109375,0.703125 0,0.234375 0.1875,0.296875 0.28125,0.296875 0.140625,0 0.28125,-0.109375 0.28125,-0.296875 0,-0.109375 -0.0625,-0.25 -0.234375,-0.28125 C 1.109375,-3.109375 1.5625,-3.125 1.671875,-3.125 c 0.359375,0 0.609375,0.171875 0.609375,0.515625 0,0.296875 -0.1875,0.75 -0.703125,0.78125 -0.140625,0 -0.15625,0 -0.296875,0.015625 -0.046875,0 -0.109375,0 -0.109375,0.078125 0,0.078125 0.046875,0.078125 0.140625,0.078125 z m 0,0"
             style="fill:#ff0000;fill-opacity:1;stroke:#ff0000;stroke-width:0;stroke-opacity:1"
             inkscape:connector-curvature="0" />
        </g>
      </g>
    </g>
    <path
       style="fill:none;stroke:#000000;stroke-width:0.46311429px;stroke-linecap:butt;stroke-linejoin:miter;stroke-opacity:1"
       d="m 82.944484,273.20554 1.30329,1.02814 -1.13955,1.05949"
       id="path4019"
       inkscape:connector-curvature="0" />
    <g
       transform="matrix(0.40468028,0,0,0.40468028,-53.121809,203.17065)"
       ns1:version="0.9.1"
       ns1:texconverter="pdflatex"
       ns1:pdfconverter="pdf2svg"
       ns1:text="V"
       ns1:preamble="C:\\Users\\joa-m\\AppData\\Roaming\\inkscape\\extensions\\textext\\default_packages.tex"
       ns1:scale="0.431087962251"
       ns1:alignment="middle center"
       ns1:jacobian_sqrt="0.152078"
       id="g4078">
      <g
         id="g4076">
        <g
           style="fill:#000000;fill-opacity:1"
           id="g4074">
          <path
             inkscape:connector-curvature="0"
             style="stroke:none;stroke-width:0"
             d="M 6.1875,-5.828125 C 6.328125,-6.203125 6.59375,-6.484375 7.28125,-6.5 v -0.3125 c -0.3125,0.03125 -0.71875,0.03125 -0.96875,0.03125 -0.296875,0 -0.875,-0.015625 -1.140625,-0.03125 V -6.5 C 5.6875,-6.484375 5.90625,-6.234375 5.90625,-6 c 0,0.078125 -0.03125,0.140625 -0.046875,0.203125 L 4.03125,-1 2.125,-6.03125 C 2.0625,-6.171875 2.0625,-6.1875 2.0625,-6.203125 2.0625,-6.5 2.625,-6.5 2.875,-6.5 v -0.3125 c -0.359375,0.03125 -1.046875,0.03125 -1.421875,0.03125 -0.46875,0 -0.90625,-0.015625 -1.265625,-0.03125 V -6.5 c 0.65625,0 0.84375,0 0.984375,0.375 L 3.484375,0 c 0.0625,0.1875 0.109375,0.21875 0.25,0.21875 0.15625,0 0.1875,-0.046875 0.234375,-0.1875 z m 0,0"
             transform="translate(148.712,134.765)"
             id="path4072" />
        </g>
      </g>
    </g>
    <g
       id="g4244"
       ns1:jacobian_sqrt="0.152078"
       ns1:alignment="middle center"
       ns1:scale="0.431087962251"
       ns1:preamble="C:\\Users\\joa-m\\AppData\\Roaming\\inkscape\\extensions\\textext\\default_packages.tex"
       ns1:text="t(s)"
       ns1:pdfconverter="pdf2svg"
       ns1:texconverter="pdflatex"
       ns1:version="0.9.1"
       transform="matrix(0.152078,0,0,0.152078,77.21658,71.055166)">
      <g
         id="g4242">
        <g
           id="g4240"
           style="fill:#000000;fill-opacity:1">
          <path
             id="path4232"
             d="m 39.320943,1357.2336 h 4.18376 v -0.9095 h -4.18376 v -5.3208 h -0.72762 c 0,2.3648 -0.86403,5.4571 -3.72901,5.5936 v 0.6367 h 2.4557 v 8.0038 c 0,3.5471 2.72853,3.9108 3.77448,3.9108 2.0464,0 2.86497,-2.0463 2.86497,-3.9108 v -1.6373 h -0.72762 v 1.5918 c 0,2.1373 -0.86404,3.2287 -1.95546,3.2287 -1.95544,0 -1.95544,-2.6376 -1.95544,-3.1379 z m 0,0"
             style="stroke:none;stroke-width:0"
             inkscape:connector-curvature="0" />
        </g>
      </g>
    </g>
  </g>
  <g
     id="g3873"
     ns1:jacobian_sqrt="0.152078"
     ns1:alignment="middle center"
     ns1:scale="0.431087962251"
     ns1:preamble="C:\\Users\\joa-m\\AppData\\Roaming\\inkscape\\extensions\\textext\\default_packages.tex"
     ns1:text="$m=\\frac{1}{2CR}V_{Z}$"
     ns1:pdfconverter="pdf2svg"
     ns1:texconverter="pdflatex"
     ns1:version="0.9.1"
     transform="matrix(0.15489232,-0.15489232,0.15489232,0.15489232,-23.22485,32.6754)"
     style="fill:#0000ff;fill-opacity:1;stroke:#0000ff;stroke-opacity:1">
    <g
       id="g3871"
       style="fill:#0000ff;fill-opacity:1;stroke:#0000ff;stroke-opacity:1">
      <g
         id="g3839"
         style="fill:#0000ff;fill-opacity:1;stroke:#0000ff;stroke-opacity:1">
        <path
           id="path3837"
           transform="translate(148.712,134.765)"
           d="m 0.875,-0.59375 c -0.03125,0.15625 -0.09375,0.390625 -0.09375,0.4375 0,0.171875 0.140625,0.265625 0.296875,0.265625 0.125,0 0.296875,-0.078125 0.375,-0.28125 0,-0.015625 0.125,-0.484375 0.1875,-0.734375 l 0.21875,-0.890625 C 1.90625,-2.03125 1.96875,-2.25 2.03125,-2.46875 c 0.03125,-0.171875 0.109375,-0.46875 0.125,-0.5 0.140625,-0.3125 0.671875,-1.21875 1.625,-1.21875 0.453125,0 0.53125,0.375 0.53125,0.703125 0,0.25 -0.0625,0.53125 -0.140625,0.828125 L 3.890625,-1.5 3.6875,-0.75 c -0.03125,0.203125 -0.125,0.546875 -0.125,0.59375 0,0.171875 0.140625,0.265625 0.28125,0.265625 0.3125,0 0.375,-0.25 0.453125,-0.5625 0.140625,-0.5625 0.515625,-2.015625 0.59375,-2.40625 0.03125,-0.125 0.5625,-1.328125 1.65625,-1.328125 0.421875,0 0.53125,0.34375 0.53125,0.703125 0,0.5625 -0.421875,1.703125 -0.625,2.234375 -0.078125,0.234375 -0.125,0.34375 -0.125,0.546875 0,0.46875 0.34375,0.8125 0.8125,0.8125 0.9375,0 1.3125,-1.453125 1.3125,-1.53125 0,-0.109375 -0.09375,-0.109375 -0.125,-0.109375 -0.09375,0 -0.09375,0.03125 -0.140625,0.1875 -0.15625,0.53125 -0.46875,1.234375 -1.015625,1.234375 -0.171875,0 -0.25,-0.09375 -0.25,-0.328125 0,-0.25 0.09375,-0.484375 0.1875,-0.703125 0.1875,-0.53125 0.609375,-1.625 0.609375,-2.203125 0,-0.640625 -0.40625,-1.0625 -1.15625,-1.0625 -0.734375,0 -1.25,0.4375 -1.625,0.96875 0,-0.125 -0.03125,-0.46875 -0.3125,-0.703125 -0.25,-0.21875 -0.5625,-0.265625 -0.8125,-0.265625 -0.90625,0 -1.390625,0.640625 -1.5625,0.875 -0.046875,-0.578125 -0.46875,-0.875 -0.921875,-0.875 -0.453125,0 -0.640625,0.390625 -0.734375,0.5625 -0.171875,0.359375 -0.296875,0.9375 -0.296875,0.96875 0,0.109375 0.09375,0.109375 0.109375,0.109375 0.109375,0 0.109375,-0.015625 0.171875,-0.234375 0.171875,-0.703125 0.375,-1.1875 0.734375,-1.1875 0.15625,0 0.296875,0.078125 0.296875,0.453125 0,0.21875 -0.03125,0.328125 -0.15625,0.84375 z m 0,0"
           style="fill:#0000ff;fill-opacity:1;stroke:#0000ff;stroke-width:0;stroke-opacity:1"
           inkscape:connector-curvature="0" />
      </g>
      <g
         id="g3843"
         style="fill:#0000ff;fill-opacity:1;stroke:#0000ff;stroke-opacity:1">
        <path
           id="path3841"
           transform="translate(160.227,134.765)"
           d="m 6.84375,-3.265625 c 0.15625,0 0.34375,0 0.34375,-0.1875 C 7.1875,-3.65625 7,-3.65625 6.859375,-3.65625 h -5.96875 c -0.140625,0 -0.328125,0 -0.328125,0.203125 0,0.1875 0.1875,0.1875 0.328125,0.1875 z m 0.015625,1.9375 c 0.140625,0 0.328125,0 0.328125,-0.203125 0,-0.1875 -0.1875,-0.1875 -0.34375,-0.1875 H 0.890625 c -0.140625,0 -0.328125,0 -0.328125,0.1875 0,0.203125 0.1875,0.203125 0.328125,0.203125 z m 0,0"
           style="fill:#0000ff;fill-opacity:1;stroke:#0000ff;stroke-width:0;stroke-opacity:1"
           inkscape:connector-curvature="0" />
      </g>
      <g
         id="g3847"
         style="fill:#0000ff;fill-opacity:1;stroke:#0000ff;stroke-opacity:1">
        <path
           id="path3845"
           transform="translate(178.059,130.842)"
           d="m 2.328125,-4.4375 c 0,-0.1875 0,-0.1875 -0.203125,-0.1875 -0.453125,0.4375 -1.078125,0.4375 -1.359375,0.4375 v 0.25 c 0.15625,0 0.625,0 1,-0.1875 v 3.546875 c 0,0.234375 0,0.328125 -0.6875,0.328125 H 0.8125 V 0 c 0.125,0 0.984375,-0.03125 1.234375,-0.03125 0.21875,0 1.09375,0.03125 1.25,0.03125 V -0.25 H 3.03125 c -0.703125,0 -0.703125,-0.09375 -0.703125,-0.328125 z m 0,0"
           style="fill:#0000ff;fill-opacity:1;stroke:#0000ff;stroke-width:0;stroke-opacity:1"
           inkscape:connector-curvature="0" />
      </g>
      <path
         id="path3849"
         transform="matrix(1,0,0,-1,171.939,132.274)"
         d="M -0.0015,5.625e-4 H 16.209438"
         style="fill:#0000ff;fill-opacity:1;stroke:#0000ff;stroke-width:0.398;stroke-linecap:butt;stroke-linejoin:miter;stroke-miterlimit:10;stroke-opacity:1"
         inkscape:connector-curvature="0" />
      <g
         id="g3853"
         style="fill:#0000ff;fill-opacity:1;stroke:#0000ff;stroke-opacity:1">
        <path
           id="path3851"
           transform="translate(171.939,138.2)"
           d="M 3.515625,-1.265625 H 3.28125 c -0.015625,0.15625 -0.09375,0.5625 -0.1875,0.625 C 3.046875,-0.59375 2.515625,-0.59375 2.40625,-0.59375 H 1.125 c 0.734375,-0.640625 0.984375,-0.84375 1.390625,-1.171875 0.515625,-0.40625 1,-0.84375 1,-1.5 0,-0.84375 -0.734375,-1.359375 -1.625,-1.359375 -0.859375,0 -1.453125,0.609375 -1.453125,1.25 0,0.34375 0.296875,0.390625 0.375,0.390625 0.15625,0 0.359375,-0.125 0.359375,-0.375 0,-0.125 -0.046875,-0.375 -0.40625,-0.375 C 0.984375,-4.21875 1.453125,-4.375 1.78125,-4.375 c 0.703125,0 1.0625,0.546875 1.0625,1.109375 0,0.609375 -0.4375,1.078125 -0.65625,1.328125 L 0.515625,-0.265625 C 0.4375,-0.203125 0.4375,-0.1875 0.4375,0 h 2.875 z m 0,0"
           style="fill:#0000ff;fill-opacity:1;stroke:#0000ff;stroke-width:0;stroke-opacity:1"
           inkscape:connector-curvature="0" />
      </g>
      <g
         id="g3857"
         style="fill:#0000ff;fill-opacity:1;stroke:#0000ff;stroke-opacity:1">
        <path
           id="path3855"
           transform="translate(175.91,138.2)"
           d="m 5.875,-4.8125 c 0,-0.03125 -0.015625,-0.09375 -0.09375,-0.09375 -0.046875,0 -0.0625,0.015625 -0.125,0.09375 l -0.5,0.53125 c -0.0625,-0.078125 -0.453125,-0.625 -1.3125,-0.625 -1.703125,0 -3.359375,1.5 -3.359375,3.078125 0,1.140625 0.890625,1.96875 2.140625,1.96875 0.375,0 1.046875,-0.078125 1.765625,-0.6875 0.546875,-0.46875 0.703125,-1.0625 0.703125,-1.125 0,-0.09375 -0.078125,-0.09375 -0.125,-0.09375 -0.078125,0 -0.09375,0.03125 -0.125,0.109375 -0.28125,0.953125 -1.25,1.546875 -2.09375,1.546875 -0.75,0 -1.5625,-0.40625 -1.5625,-1.5 0,-0.203125 0.046875,-1.296875 0.84375,-2.1875 0.484375,-0.53125 1.21875,-0.84375 1.875,-0.84375 0.8125,0 1.28125,0.578125 1.28125,1.359375 0,0.1875 -0.015625,0.25 -0.015625,0.28125 0,0.09375 0.09375,0.09375 0.125,0.09375 0.109375,0 0.109375,-0.015625 0.140625,-0.15625 z m 0,0"
           style="fill:#0000ff;fill-opacity:1;stroke:#0000ff;stroke-width:0;stroke-opacity:1"
           inkscape:connector-curvature="0" />
      </g>
      <g
         id="g3861"
         style="fill:#0000ff;fill-opacity:1;stroke:#0000ff;stroke-opacity:1">
        <path
           id="path3859"
           transform="translate(182.1125,138.2)"
           d="m 2.875,-4.265625 c 0.046875,-0.203125 0.0625,-0.21875 0.21875,-0.25 h 0.453125 c 0.640625,0 1.4375,0 1.4375,0.71875 0,0.296875 -0.125,0.734375 -0.453125,0.984375 C 4.25,-2.59375 3.8125,-2.484375 3.328125,-2.484375 H 2.4375 Z M 4.140625,-2.375 c 0.828125,-0.1875 1.5625,-0.6875 1.5625,-1.3125 0,-0.59375 -0.703125,-1.078125 -1.71875,-1.078125 H 1.84375 c -0.125,0 -0.21875,0 -0.21875,0.15625 0,0.09375 0.078125,0.09375 0.21875,0.09375 0.015625,0 0.140625,0 0.265625,0.015625 0.15625,0.015625 0.15625,0.03125 0.15625,0.109375 0,0 0,0.046875 -0.015625,0.140625 L 1.3125,-0.546875 C 1.265625,-0.3125 1.25,-0.25 0.703125,-0.25 0.578125,-0.25 0.5,-0.25 0.5,-0.109375 0.5,-0.03125 0.546875,0 0.609375,0 c 0.125,0 0.296875,-0.015625 0.421875,-0.015625 0.140625,0 0.34375,-0.015625 0.46875,-0.015625 0.140625,0 0.296875,0.015625 0.4375,0.015625 C 2.09375,-0.015625 2.265625,0 2.40625,0 2.453125,0 2.5625,0 2.5625,-0.140625 2.5625,-0.25 2.484375,-0.25 2.328125,-0.25 2.21875,-0.25 2.1875,-0.25 2.0625,-0.265625 1.90625,-0.28125 1.90625,-0.296875 1.90625,-0.375 c 0,0 0,-0.046875 0.03125,-0.140625 L 2.375,-2.28125 h 0.953125 c 0.59375,0 0.859375,0.296875 0.859375,0.625 0,0.09375 -0.0625,0.328125 -0.109375,0.484375 C 4,-0.84375 3.96875,-0.75 3.96875,-0.625 c 0,0.546875 0.515625,0.765625 1.03125,0.765625 0.640625,0 0.921875,-0.6875 0.921875,-0.8125 0,-0.015625 -0.015625,-0.09375 -0.125,-0.09375 -0.09375,0 -0.109375,0.046875 -0.125,0.125 C 5.578125,-0.34375 5.3125,-0.0625 5.03125,-0.0625 c -0.1875,0 -0.328125,-0.0625 -0.328125,-0.453125 0,-0.171875 0.046875,-0.53125 0.078125,-0.71875 0.03125,-0.1875 0.03125,-0.25 0.03125,-0.328125 0,-0.078125 0,-0.3125 -0.203125,-0.515625 C 4.484375,-2.21875 4.296875,-2.3125 4.140625,-2.375 Z m 0,0"
           style="fill:#0000ff;fill-opacity:1;stroke:#0000ff;stroke-width:0;stroke-opacity:1"
           inkscape:connector-curvature="0" />
      </g>
      <g
         id="g3865"
         style="fill:#0000ff;fill-opacity:1;stroke:#0000ff;stroke-opacity:1">
        <path
           id="path3863"
           transform="translate(189.346,134.765)"
           d="M 6.265625,-5.671875 C 6.75,-6.453125 7.171875,-6.484375 7.53125,-6.5 c 0.125,-0.015625 0.140625,-0.171875 0.140625,-0.1875 0,-0.078125 -0.0625,-0.125 -0.140625,-0.125 -0.25,0 -0.546875,0.03125 -0.8125,0.03125 -0.328125,0 -0.671875,-0.03125 -0.984375,-0.03125 -0.0625,0 -0.1875,0 -0.1875,0.1875 0,0.109375 0.078125,0.125 0.15625,0.125 0.265625,0.015625 0.453125,0.125 0.453125,0.328125 0,0.15625 -0.140625,0.375 -0.140625,0.375 l -3.0625,4.875 -0.6875,-5.28125 C 2.265625,-6.375 2.5,-6.5 2.953125,-6.5 c 0.140625,0 0.25,0 0.25,-0.203125 0,-0.078125 -0.078125,-0.109375 -0.125,-0.109375 -0.40625,0 -0.828125,0.03125 -1.25,0.03125 -0.171875,0 -0.359375,0 -0.546875,0 -0.171875,0 -0.359375,-0.03125 -0.53125,-0.03125 -0.078125,0 -0.1875,0 -0.1875,0.1875 0,0.125 0.078125,0.125 0.25,0.125 0.546875,0 0.5625,0.09375 0.59375,0.34375 L 2.1875,-0.015625 C 2.21875,0.1875 2.265625,0.21875 2.390625,0.21875 c 0.15625,0 0.203125,-0.046875 0.28125,-0.171875 z m 0,0"
           style="fill:#0000ff;fill-opacity:1;stroke:#0000ff;stroke-width:0;stroke-opacity:1"
           inkscape:connector-curvature="0" />
      </g>
      <g
         id="g3869"
         style="fill:#0000ff;fill-opacity:1;stroke:#0000ff;stroke-opacity:1">
        <path
           id="path3867"
           transform="translate(195.157,136.259)"
           d="m 5.453125,-4.484375 c 0.0625,-0.0625 0.09375,-0.109375 0.09375,-0.203125 0,-0.078125 -0.046875,-0.078125 -0.1875,-0.078125 h -3.25 C 1.9375,-4.765625 1.921875,-4.75 1.875,-4.625 L 1.484375,-3.359375 C 1.46875,-3.28125 1.46875,-3.28125 1.46875,-3.25 c 0,0.03125 0.015625,0.09375 0.109375,0.09375 0.09375,0 0.109375,-0.046875 0.125,-0.109375 0.34375,-0.984375 0.875,-1.25 1.78125,-1.25 h 1.25 L 0.671875,-0.3125 C 0.625,-0.265625 0.5625,-0.1875 0.5625,-0.078125 0.5625,0 0.625,0 0.75,0 h 3.375 c 0.171875,0 0.1875,0 0.21875,-0.140625 l 0.5,-1.546875 C 4.875,-1.78125 4.875,-1.796875 4.875,-1.8125 c 0,0 0,-0.09375 -0.109375,-0.09375 -0.09375,0 -0.109375,0.03125 -0.15625,0.1875 -0.3125,0.953125 -0.671875,1.4375 -1.890625,1.4375 H 1.390625 Z m 0,0"
           style="fill:#0000ff;fill-opacity:1;stroke:#0000ff;stroke-width:0;stroke-opacity:1"
           inkscape:connector-curvature="0" />
      </g>
    </g>
  </g>
  <path
     style="fill:none;stroke:#000000;stroke-width:0.46311429px;stroke-linecap:butt;stroke-linejoin:miter;stroke-opacity:1"
     d="m 10.85987,15.101327 0.683256,-0.96777 0.790369,0.886029"
     id="path3945"
     inkscape:connector-curvature="0" />
</svg>
